STARTFONT 2.1
FONT -FontForge-Sevenish-Book-R-Normal--8-80-75-75-P-75-ISO10646-1
SIZE 8 75 75
FONTBOUNDINGBOX 23 22 -9 -8
COMMENT "Generated by fontforge, http://fontforge.sourceforge.net"
COMMENT "Copyright 2023 Nico "SauceDLX""
COMMENT ""
COMMENT "Permission is hereby granted, free of charge, to any person obtaining a copy of this software and associated documentation files (the "Software"), to deal in the Software without restriction, including without limitation the rights to use, copy, modify, merge, publish, distribute, sublicense, and/or sell copies of the Software, and to permit persons to whom the Software is furnished to do so, subject to the following conditions:"
COMMENT ""
COMMENT "The above copyright notice and this permission notice shall be included in all copies or substantial portions of the Software."
COMMENT ""
COMMENT "THE SOFTWARE IS PROVIDED "AS IS", WITHOUT WARRANTY OF ANY KIND, EXPRESS OR IMPLIED, INCLUDING BUT NOT LIMITED TO THE WARRANTIES OF MERCHANTABILITY, FITNESS FOR A PARTICULAR PURPOSE AND NONINFRINGEMENT. IN NO EVENT SHALL THE AUTHORS OR COPYRIGHT HOLDERS BE LIABLE FOR ANY CLAIM, DAMAGES OR OTHER LIABILITY, WHETHER IN AN ACTION OF CONTRACT, TORT OR OTHERWISE, ARISING FROM, OUT OF OR IN CONNECTION WITH THE SOFTWARE OR THE USE OR OTHER DEALINGS IN THE SOFTWARE."
STARTPROPERTIES 39
FOUNDRY "FontForge"
FAMILY_NAME "Sevenish"
WEIGHT_NAME "Book"
SLANT "R"
SETWIDTH_NAME "Normal"
ADD_STYLE_NAME ""
PIXEL_SIZE 8
POINT_SIZE 80
RESOLUTION_X 75
RESOLUTION_Y 75
SPACING "P"
AVERAGE_WIDTH 75
CHARSET_REGISTRY "ISO10646"
CHARSET_ENCODING "1"
FONTNAME_REGISTRY ""
CHARSET_COLLECTIONS "ISO8859-2 ISO8859-5 ISO8859-7 ISO8859-9 ISO8859-8 ISO8859-6 ISO8859-4 ISO8859-11 JISX0208.1997 KSC5601.1992 Symbol ISO10646-1"
FONT_NAME "Sevenish"
FACE_NAME "Sevenish"
COPYRIGHT "Copyright 2023 Nico "SauceDLX""
FONT_VERSION "1.000;April 9, 2023;FontCreator 14.0.0.2901 64-bit"
FONT_ASCENT 7
FONT_DESCENT 1
UNDERLINE_POSITION 0
UNDERLINE_THICKNESS 0
X_HEIGHT 4
CAP_HEIGHT 6

STARTCHAR space
ENCODING 32
SWIDTH 250 0
DWIDTH 2 0
BBX 1 1 0 0
BITMAP
00
ENDCHAR
STARTCHAR exclam
ENCODING 33
SWIDTH 250 0
DWIDTH 2 0
BBX 1 7 0 0
BITMAP
80
80
80
80
80
00
80
ENDCHAR
STARTCHAR quotedbl
ENCODING 34
SWIDTH 500 0
DWIDTH 4 0
BBX 3 2 0 5
BITMAP
A0
A0
ENDCHAR
STARTCHAR numbersign
ENCODING 35
SWIDTH 750 0
DWIDTH 6 0
BBX 5 7 0 0
BITMAP
50
50
F8
50
F8
50
50
ENDCHAR
STARTCHAR dollar
ENCODING 36
SWIDTH 750 0
DWIDTH 6 0
BBX 5 9 0 -1
BITMAP
20
70
A8
A0
70
28
A8
70
20
ENDCHAR
STARTCHAR percent
ENCODING 37
SWIDTH 1000 0
DWIDTH 8 0
BBX 7 7 0 0
BITMAP
44
A4
48
10
24
4A
44
ENDCHAR
STARTCHAR ampersand
ENCODING 38
SWIDTH 750 0
DWIDTH 6 0
BBX 5 7 0 0
BITMAP
60
90
A0
48
A8
90
68
ENDCHAR
STARTCHAR quotesingle
ENCODING 39
SWIDTH 250 0
DWIDTH 2 0
BBX 1 2 0 5
BITMAP
80
80
ENDCHAR
STARTCHAR parenleft
ENCODING 40
SWIDTH 375 0
DWIDTH 3 0
BBX 2 7 0 0
BITMAP
40
80
80
80
80
80
40
ENDCHAR
STARTCHAR parenright
ENCODING 41
SWIDTH 375 0
DWIDTH 3 0
BBX 2 7 0 0
BITMAP
80
40
40
40
40
40
80
ENDCHAR
STARTCHAR asterisk
ENCODING 42
SWIDTH 500 0
DWIDTH 4 0
BBX 3 5 0 2
BITMAP
A0
40
E0
40
A0
ENDCHAR
STARTCHAR plus
ENCODING 43
SWIDTH 500 0
DWIDTH 4 0
BBX 3 3 0 2
BITMAP
40
E0
40
ENDCHAR
STARTCHAR comma
ENCODING 44
SWIDTH 250 0
DWIDTH 2 0
BBX 1 2 0 -1
BITMAP
80
80
ENDCHAR
STARTCHAR hyphen
ENCODING 45
SWIDTH 500 0
DWIDTH 4 0
BBX 3 1 0 2
BITMAP
E0
ENDCHAR
STARTCHAR period
ENCODING 46
SWIDTH 250 0
DWIDTH 2 0
BBX 1 1 0 0
BITMAP
80
ENDCHAR
STARTCHAR slash
ENCODING 47
SWIDTH 500 0
DWIDTH 4 0
BBX 3 7 0 0
BITMAP
20
20
40
40
40
80
80
ENDCHAR
STARTCHAR zero
ENCODING 48
SWIDTH 625 0
DWIDTH 5 0
BBX 4 7 0 0
BITMAP
60
90
90
90
90
90
60
ENDCHAR
STARTCHAR one
ENCODING 49
SWIDTH 625 0
DWIDTH 5 0
BBX 3 7 1 0
BITMAP
40
C0
40
40
40
40
E0
ENDCHAR
STARTCHAR two
ENCODING 50
SWIDTH 625 0
DWIDTH 5 0
BBX 4 7 0 0
BITMAP
60
90
10
20
40
80
F0
ENDCHAR
STARTCHAR three
ENCODING 51
SWIDTH 625 0
DWIDTH 5 0
BBX 4 7 0 0
BITMAP
60
90
10
20
10
90
60
ENDCHAR
STARTCHAR four
ENCODING 52
SWIDTH 625 0
DWIDTH 5 0
BBX 4 7 0 0
BITMAP
10
30
50
90
F0
10
10
ENDCHAR
STARTCHAR five
ENCODING 53
SWIDTH 625 0
DWIDTH 5 0
BBX 4 7 0 0
BITMAP
F0
80
E0
10
10
90
60
ENDCHAR
STARTCHAR six
ENCODING 54
SWIDTH 625 0
DWIDTH 5 0
BBX 4 7 0 0
BITMAP
60
90
80
E0
90
90
60
ENDCHAR
STARTCHAR seven
ENCODING 55
SWIDTH 625 0
DWIDTH 5 0
BBX 4 7 0 0
BITMAP
F0
10
10
20
20
40
40
ENDCHAR
STARTCHAR eight
ENCODING 56
SWIDTH 625 0
DWIDTH 5 0
BBX 4 7 0 0
BITMAP
60
90
90
60
90
90
60
ENDCHAR
STARTCHAR nine
ENCODING 57
SWIDTH 625 0
DWIDTH 5 0
BBX 4 7 0 0
BITMAP
60
90
90
70
10
90
60
ENDCHAR
STARTCHAR colon
ENCODING 58
SWIDTH 250 0
DWIDTH 2 0
BBX 1 4 0 0
BITMAP
80
00
00
80
ENDCHAR
STARTCHAR semicolon
ENCODING 59
SWIDTH 250 0
DWIDTH 2 0
BBX 1 5 0 -1
BITMAP
80
00
00
80
80
ENDCHAR
STARTCHAR less
ENCODING 60
SWIDTH 500 0
DWIDTH 4 0
BBX 3 5 0 0
BITMAP
20
40
80
40
20
ENDCHAR
STARTCHAR equal
ENCODING 61
SWIDTH 500 0
DWIDTH 4 0
BBX 3 3 0 1
BITMAP
E0
00
E0
ENDCHAR
STARTCHAR greater
ENCODING 62
SWIDTH 500 0
DWIDTH 4 0
BBX 3 5 0 0
BITMAP
80
40
20
40
80
ENDCHAR
STARTCHAR question
ENCODING 63
SWIDTH 750 0
DWIDTH 6 0
BBX 5 7 0 0
BITMAP
70
88
08
30
20
00
20
ENDCHAR
STARTCHAR at
ENCODING 64
SWIDTH 1000 0
DWIDTH 8 0
BBX 7 7 0 0
BITMAP
3C
42
9A
AA
AA
9A
44
ENDCHAR
STARTCHAR A
ENCODING 65
SWIDTH 750 0
DWIDTH 6 0
BBX 5 7 0 0
BITMAP
70
88
88
F8
88
88
88
ENDCHAR
STARTCHAR B
ENCODING 66
SWIDTH 750 0
DWIDTH 6 0
BBX 5 7 0 0
BITMAP
F0
88
88
F0
88
88
F0
ENDCHAR
STARTCHAR C
ENCODING 67
SWIDTH 750 0
DWIDTH 6 0
BBX 5 7 0 0
BITMAP
70
88
80
80
80
88
70
ENDCHAR
STARTCHAR D
ENCODING 68
SWIDTH 750 0
DWIDTH 6 0
BBX 5 7 0 0
BITMAP
F0
88
88
88
88
88
F0
ENDCHAR
STARTCHAR E
ENCODING 69
SWIDTH 750 0
DWIDTH 6 0
BBX 5 7 0 0
BITMAP
F8
80
80
F8
80
80
F8
ENDCHAR
STARTCHAR F
ENCODING 70
SWIDTH 750 0
DWIDTH 6 0
BBX 5 7 0 0
BITMAP
F8
80
80
F8
80
80
80
ENDCHAR
STARTCHAR G
ENCODING 71
SWIDTH 750 0
DWIDTH 6 0
BBX 5 7 0 0
BITMAP
70
88
80
98
88
88
70
ENDCHAR
STARTCHAR H
ENCODING 72
SWIDTH 750 0
DWIDTH 6 0
BBX 5 7 0 0
BITMAP
88
88
88
F8
88
88
88
ENDCHAR
STARTCHAR I
ENCODING 73
SWIDTH 500 0
DWIDTH 4 0
BBX 3 7 0 0
BITMAP
E0
40
40
40
40
40
E0
ENDCHAR
STARTCHAR J
ENCODING 74
SWIDTH 625 0
DWIDTH 5 0
BBX 4 7 0 0
BITMAP
70
10
10
10
10
90
60
ENDCHAR
STARTCHAR K
ENCODING 75
SWIDTH 750 0
DWIDTH 6 0
BBX 5 7 0 0
BITMAP
88
88
90
E0
90
88
88
ENDCHAR
STARTCHAR L
ENCODING 76
SWIDTH 625 0
DWIDTH 5 0
BBX 4 7 0 0
BITMAP
80
80
80
80
80
80
F0
ENDCHAR
STARTCHAR M
ENCODING 77
SWIDTH 750 0
DWIDTH 6 0
BBX 5 7 0 0
BITMAP
88
D8
A8
A8
88
88
88
ENDCHAR
STARTCHAR N
ENCODING 78
SWIDTH 750 0
DWIDTH 6 0
BBX 5 7 0 0
BITMAP
88
C8
C8
A8
98
98
88
ENDCHAR
STARTCHAR O
ENCODING 79
SWIDTH 750 0
DWIDTH 6 0
BBX 5 7 0 0
BITMAP
70
88
88
88
88
88
70
ENDCHAR
STARTCHAR P
ENCODING 80
SWIDTH 750 0
DWIDTH 6 0
BBX 5 7 0 0
BITMAP
F0
88
88
F0
80
80
80
ENDCHAR
STARTCHAR Q
ENCODING 81
SWIDTH 750 0
DWIDTH 6 0
BBX 5 7 0 0
BITMAP
70
88
88
88
A8
90
68
ENDCHAR
STARTCHAR R
ENCODING 82
SWIDTH 750 0
DWIDTH 6 0
BBX 5 7 0 0
BITMAP
F0
88
88
F0
A0
90
88
ENDCHAR
STARTCHAR S
ENCODING 83
SWIDTH 750 0
DWIDTH 6 0
BBX 5 7 0 0
BITMAP
70
88
80
70
08
88
70
ENDCHAR
STARTCHAR T
ENCODING 84
SWIDTH 750 0
DWIDTH 6 0
BBX 5 7 0 0
BITMAP
F8
20
20
20
20
20
20
ENDCHAR
STARTCHAR U
ENCODING 85
SWIDTH 750 0
DWIDTH 6 0
BBX 5 7 0 0
BITMAP
88
88
88
88
88
88
70
ENDCHAR
STARTCHAR V
ENCODING 86
SWIDTH 750 0
DWIDTH 6 0
BBX 5 7 0 0
BITMAP
88
88
88
50
50
20
20
ENDCHAR
STARTCHAR W
ENCODING 87
SWIDTH 1250 0
DWIDTH 10 0
BBX 9 7 0 0
BITMAP
8880
8880
8880
8880
4900
5500
2200
ENDCHAR
STARTCHAR X
ENCODING 88
SWIDTH 750 0
DWIDTH 6 0
BBX 5 7 0 0
BITMAP
88
88
50
20
50
88
88
ENDCHAR
STARTCHAR Y
ENCODING 89
SWIDTH 750 0
DWIDTH 6 0
BBX 5 7 0 0
BITMAP
88
88
50
20
20
20
20
ENDCHAR
STARTCHAR Z
ENCODING 90
SWIDTH 750 0
DWIDTH 6 0
BBX 5 7 0 0
BITMAP
F8
08
10
20
40
80
F8
ENDCHAR
STARTCHAR bracketleft
ENCODING 91
SWIDTH 375 0
DWIDTH 3 0
BBX 2 7 0 0
BITMAP
C0
80
80
80
80
80
C0
ENDCHAR
STARTCHAR backslash
ENCODING 92
SWIDTH 375 0
DWIDTH 3 0
BBX 3 7 0 0
BITMAP
80
80
40
40
40
20
20
ENDCHAR
STARTCHAR bracketright
ENCODING 93
SWIDTH 375 0
DWIDTH 3 0
BBX 2 7 0 0
BITMAP
C0
40
40
40
40
40
C0
ENDCHAR
STARTCHAR asciicircum
ENCODING 94
SWIDTH 500 0
DWIDTH 4 0
BBX 3 3 0 4
BITMAP
40
A0
A0
ENDCHAR
STARTCHAR underscore
ENCODING 95
SWIDTH 625 0
DWIDTH 5 0
BBX 4 1 0 0
BITMAP
F0
ENDCHAR
STARTCHAR grave
ENCODING 96
SWIDTH 250 0
DWIDTH 2 0
BBX 2 2 0 5
BITMAP
80
40
ENDCHAR
STARTCHAR a
ENCODING 97
SWIDTH 625 0
DWIDTH 5 0
BBX 4 5 0 0
BITMAP
E0
10
70
90
70
ENDCHAR
STARTCHAR b
ENCODING 98
SWIDTH 625 0
DWIDTH 5 0
BBX 4 7 0 0
BITMAP
80
80
E0
90
90
90
E0
ENDCHAR
STARTCHAR c
ENCODING 99
SWIDTH 625 0
DWIDTH 5 0
BBX 4 5 0 0
BITMAP
60
90
80
90
60
ENDCHAR
STARTCHAR d
ENCODING 100
SWIDTH 625 0
DWIDTH 5 0
BBX 4 7 0 0
BITMAP
10
10
70
90
90
90
70
ENDCHAR
STARTCHAR e
ENCODING 101
SWIDTH 625 0
DWIDTH 5 0
BBX 4 5 0 0
BITMAP
60
90
F0
80
70
ENDCHAR
STARTCHAR f
ENCODING 102
SWIDTH 500 0
DWIDTH 4 0
BBX 3 7 0 0
BITMAP
60
80
E0
80
80
80
80
ENDCHAR
STARTCHAR g
ENCODING 103
SWIDTH 625 0
DWIDTH 5 0
BBX 4 7 0 -2
BITMAP
70
90
90
90
70
10
E0
ENDCHAR
STARTCHAR h
ENCODING 104
SWIDTH 625 0
DWIDTH 5 0
BBX 4 7 0 0
BITMAP
80
80
E0
90
90
90
90
ENDCHAR
STARTCHAR i
ENCODING 105
SWIDTH 250 0
DWIDTH 2 0
BBX 1 7 0 0
BITMAP
80
00
80
80
80
80
80
ENDCHAR
STARTCHAR j
ENCODING 106
SWIDTH 250 0
DWIDTH 2 0
BBX 2 9 -1 -2
BITMAP
40
00
40
40
40
40
40
40
80
ENDCHAR
STARTCHAR k
ENCODING 107
SWIDTH 625 0
DWIDTH 5 0
BBX 4 7 0 0
BITMAP
80
80
90
A0
C0
A0
90
ENDCHAR
STARTCHAR l
ENCODING 108
SWIDTH 250 0
DWIDTH 2 0
BBX 1 7 0 0
BITMAP
80
80
80
80
80
80
80
ENDCHAR
STARTCHAR m
ENCODING 109
SWIDTH 750 0
DWIDTH 6 0
BBX 5 5 0 0
BITMAP
D0
A8
A8
A8
A8
ENDCHAR
STARTCHAR n
ENCODING 110
SWIDTH 625 0
DWIDTH 5 0
BBX 4 5 0 0
BITMAP
E0
90
90
90
90
ENDCHAR
STARTCHAR o
ENCODING 111
SWIDTH 625 0
DWIDTH 5 0
BBX 4 5 0 0
BITMAP
60
90
90
90
60
ENDCHAR
STARTCHAR p
ENCODING 112
SWIDTH 625 0
DWIDTH 5 0
BBX 4 7 0 -2
BITMAP
E0
90
90
90
E0
80
80
ENDCHAR
STARTCHAR q
ENCODING 113
SWIDTH 625 0
DWIDTH 5 0
BBX 4 7 0 -2
BITMAP
70
90
90
90
70
10
10
ENDCHAR
STARTCHAR r
ENCODING 114
SWIDTH 625 0
DWIDTH 5 0
BBX 4 5 0 0
BITMAP
E0
90
80
80
80
ENDCHAR
STARTCHAR s
ENCODING 115
SWIDTH 625 0
DWIDTH 5 0
BBX 4 5 0 0
BITMAP
70
80
60
10
E0
ENDCHAR
STARTCHAR t
ENCODING 116
SWIDTH 500 0
DWIDTH 4 0
BBX 3 6 0 0
BITMAP
40
E0
40
40
40
20
ENDCHAR
STARTCHAR u
ENCODING 117
SWIDTH 625 0
DWIDTH 5 0
BBX 4 5 0 0
BITMAP
90
90
90
90
70
ENDCHAR
STARTCHAR v
ENCODING 118
SWIDTH 750 0
DWIDTH 6 0
BBX 5 5 0 0
BITMAP
88
88
50
50
20
ENDCHAR
STARTCHAR w
ENCODING 119
SWIDTH 750 0
DWIDTH 6 0
BBX 5 5 0 0
BITMAP
88
88
A8
50
50
ENDCHAR
STARTCHAR x
ENCODING 120
SWIDTH 750 0
DWIDTH 6 0
BBX 5 5 0 0
BITMAP
88
50
20
50
88
ENDCHAR
STARTCHAR y
ENCODING 121
SWIDTH 625 0
DWIDTH 5 0
BBX 4 7 0 -2
BITMAP
90
90
90
90
70
10
E0
ENDCHAR
STARTCHAR z
ENCODING 122
SWIDTH 750 0
DWIDTH 6 0
BBX 5 5 0 0
BITMAP
F8
10
20
40
F8
ENDCHAR
STARTCHAR braceleft
ENCODING 123
SWIDTH 500 0
DWIDTH 4 0
BBX 3 7 0 0
BITMAP
60
40
40
80
40
40
60
ENDCHAR
STARTCHAR bar
ENCODING 124
SWIDTH 250 0
DWIDTH 2 0
BBX 1 11 0 -2
BITMAP
80
80
80
80
80
80
80
80
80
80
80
ENDCHAR
STARTCHAR braceright
ENCODING 125
SWIDTH 500 0
DWIDTH 4 0
BBX 3 7 0 0
BITMAP
C0
40
40
20
40
40
C0
ENDCHAR
STARTCHAR asciitilde
ENCODING 126
SWIDTH 875 0
DWIDTH 7 0
BBX 6 2 0 2
BITMAP
64
98
ENDCHAR
STARTCHAR exclamdown
ENCODING 161
SWIDTH 250 0
DWIDTH 2 0
BBX 1 7 0 -2
BITMAP
80
00
80
80
80
80
80
ENDCHAR
STARTCHAR cent
ENCODING 162
SWIDTH 750 0
DWIDTH 6 0
BBX 5 7 0 -1
BITMAP
20
70
A8
A0
A8
70
20
ENDCHAR
STARTCHAR sterling
ENCODING 163
SWIDTH 750 0
DWIDTH 6 0
BBX 5 7 0 0
BITMAP
30
40
40
E0
40
40
F8
ENDCHAR
STARTCHAR currency
ENCODING 164
SWIDTH 750 0
DWIDTH 6 0
BBX 5 5 0 1
BITMAP
88
70
50
70
88
ENDCHAR
STARTCHAR yen
ENCODING 165
SWIDTH 750 0
DWIDTH 6 0
BBX 5 7 0 0
BITMAP
88
50
20
70
20
70
20
ENDCHAR
STARTCHAR brokenbar
ENCODING 166
SWIDTH 250 0
DWIDTH 2 0
BBX 1 7 0 0
BITMAP
80
80
80
00
80
80
80
ENDCHAR
STARTCHAR section
ENCODING 167
SWIDTH 750 0
DWIDTH 6 0
BBX 5 7 0 0
BITMAP
70
88
60
50
30
88
70
ENDCHAR
STARTCHAR dieresis
ENCODING 168
SWIDTH 500 0
DWIDTH 4 0
BBX 3 1 0 6
BITMAP
A0
ENDCHAR
STARTCHAR copyright
ENCODING 169
SWIDTH 750 0
DWIDTH 6 0
BBX 5 5 0 0
BITMAP
70
88
B8
88
70
ENDCHAR
STARTCHAR ordfeminine
ENCODING 170
SWIDTH 500 0
DWIDTH 4 0
BBX 3 4 0 5
BITMAP
C0
20
A0
E0
ENDCHAR
STARTCHAR guillemotleft
ENCODING 171
SWIDTH 875 0
DWIDTH 7 0
BBX 6 5 0 1
BITMAP
24
48
90
48
24
ENDCHAR
STARTCHAR logicalnot
ENCODING 172
SWIDTH 125 0
DWIDTH 1 0
BBX 1 1 0 0
BITMAP
00
ENDCHAR
STARTCHAR uni00AD
ENCODING 173
SWIDTH 500 0
DWIDTH 4 0
BBX 3 1 0 3
BITMAP
E0
ENDCHAR
STARTCHAR registered
ENCODING 174
SWIDTH 500 0
DWIDTH 4 0
BBX 3 4 0 3
BITMAP
E0
E0
C0
A0
ENDCHAR
STARTCHAR macron
ENCODING 175
SWIDTH 500 0
DWIDTH 4 0
BBX 3 1 0 6
BITMAP
E0
ENDCHAR
STARTCHAR degree
ENCODING 176
SWIDTH 500 0
DWIDTH 4 0
BBX 3 3 0 4
BITMAP
40
A0
40
ENDCHAR
STARTCHAR plusminus
ENCODING 177
SWIDTH 500 0
DWIDTH 4 0
BBX 3 5 0 1
BITMAP
40
E0
40
00
E0
ENDCHAR
STARTCHAR uni00B2
ENCODING 178
SWIDTH 500 0
DWIDTH 4 0
BBX 3 5 0 4
BITMAP
C0
20
40
80
E0
ENDCHAR
STARTCHAR uni00B3
ENCODING 179
SWIDTH 500 0
DWIDTH 4 0
BBX 3 5 0 4
BITMAP
C0
20
40
20
C0
ENDCHAR
STARTCHAR acute
ENCODING 180
SWIDTH 375 0
DWIDTH 3 0
BBX 2 2 0 5
BITMAP
40
80
ENDCHAR
STARTCHAR mu
ENCODING 181
SWIDTH 750 0
DWIDTH 6 0
BBX 5 7 0 -2
BITMAP
90
90
90
90
E8
80
80
ENDCHAR
STARTCHAR paragraph
ENCODING 182
SWIDTH 750 0
DWIDTH 6 0
BBX 5 7 0 0
BITMAP
78
A8
A8
68
28
28
28
ENDCHAR
STARTCHAR periodcentered
ENCODING 183
SWIDTH 250 0
DWIDTH 2 0
BBX 1 1 0 3
BITMAP
80
ENDCHAR
STARTCHAR cedilla
ENCODING 184
SWIDTH 375 0
DWIDTH 3 0
BBX 2 2 0 -2
BITMAP
40
80
ENDCHAR
STARTCHAR uni00B9
ENCODING 185
SWIDTH 500 0
DWIDTH 4 0
BBX 3 5 0 4
BITMAP
40
C0
40
40
E0
ENDCHAR
STARTCHAR ordmasculine
ENCODING 186
SWIDTH 500 0
DWIDTH 4 0
BBX 3 4 0 5
BITMAP
40
A0
A0
40
ENDCHAR
STARTCHAR guillemotright
ENCODING 187
SWIDTH 875 0
DWIDTH 7 0
BBX 6 5 0 1
BITMAP
90
48
24
48
90
ENDCHAR
STARTCHAR onequarter
ENCODING 188
SWIDTH 875 0
DWIDTH 7 0
BBX 6 10 0 -2
BITMAP
40
C0
44
48
10
24
4C
94
1C
04
ENDCHAR
STARTCHAR onehalf
ENCODING 189
SWIDTH 875 0
DWIDTH 7 0
BBX 6 11 0 -2
BITMAP
40
C0
44
48
10
20
40
98
04
08
1C
ENDCHAR
STARTCHAR threequarters
ENCODING 190
SWIDTH 875 0
DWIDTH 7 0
BBX 6 11 0 -2
BITMAP
C0
20
40
24
C8
10
24
4C
94
1C
04
ENDCHAR
STARTCHAR questiondown
ENCODING 191
SWIDTH 750 0
DWIDTH 6 0
BBX 5 7 0 -2
BITMAP
20
00
20
60
80
88
70
ENDCHAR
STARTCHAR Agrave
ENCODING 192
SWIDTH 750 0
DWIDTH 6 0
BBX 5 10 0 0
BITMAP
40
20
00
70
88
88
F8
88
88
88
ENDCHAR
STARTCHAR Aacute
ENCODING 193
SWIDTH 750 0
DWIDTH 6 0
BBX 5 10 0 0
BITMAP
10
20
00
70
88
88
F8
88
88
88
ENDCHAR
STARTCHAR Acircumflex
ENCODING 194
SWIDTH 750 0
DWIDTH 6 0
BBX 5 10 0 0
BITMAP
20
50
00
70
88
88
F8
88
88
88
ENDCHAR
STARTCHAR Atilde
ENCODING 195
SWIDTH 750 0
DWIDTH 6 0
BBX 5 9 0 0
BITMAP
70
00
70
88
88
F8
88
88
88
ENDCHAR
STARTCHAR Adieresis
ENCODING 196
SWIDTH 750 0
DWIDTH 6 0
BBX 5 9 0 0
BITMAP
50
00
70
88
88
F8
88
88
88
ENDCHAR
STARTCHAR Aring
ENCODING 197
SWIDTH 750 0
DWIDTH 6 0
BBX 5 9 0 0
BITMAP
20
00
70
88
88
F8
88
88
88
ENDCHAR
STARTCHAR AE
ENCODING 198
SWIDTH 1000 0
DWIDTH 8 0
BBX 7 7 0 0
BITMAP
7E
90
90
FE
90
90
9E
ENDCHAR
STARTCHAR Ccedilla
ENCODING 199
SWIDTH 750 0
DWIDTH 6 0
BBX 5 9 0 -2
BITMAP
70
88
80
80
80
88
70
20
40
ENDCHAR
STARTCHAR Egrave
ENCODING 200
SWIDTH 750 0
DWIDTH 6 0
BBX 5 10 0 0
BITMAP
40
20
00
F8
80
80
F8
80
80
F8
ENDCHAR
STARTCHAR Eacute
ENCODING 201
SWIDTH 750 0
DWIDTH 6 0
BBX 5 10 0 0
BITMAP
10
20
00
F8
80
80
F8
80
80
F8
ENDCHAR
STARTCHAR Ecircumflex
ENCODING 202
SWIDTH 750 0
DWIDTH 6 0
BBX 5 10 0 0
BITMAP
20
50
00
F8
80
80
F8
80
80
F8
ENDCHAR
STARTCHAR Edieresis
ENCODING 203
SWIDTH 750 0
DWIDTH 6 0
BBX 5 9 0 0
BITMAP
50
00
F8
80
80
F8
80
80
F8
ENDCHAR
STARTCHAR Igrave
ENCODING 204
SWIDTH 500 0
DWIDTH 4 0
BBX 3 10 0 0
BITMAP
80
40
00
E0
40
40
40
40
40
E0
ENDCHAR
STARTCHAR Iacute
ENCODING 205
SWIDTH 500 0
DWIDTH 4 0
BBX 3 10 0 0
BITMAP
20
40
00
E0
40
40
40
40
40
E0
ENDCHAR
STARTCHAR Icircumflex
ENCODING 206
SWIDTH 500 0
DWIDTH 4 0
BBX 3 10 0 0
BITMAP
40
A0
00
E0
40
40
40
40
40
E0
ENDCHAR
STARTCHAR Idieresis
ENCODING 207
SWIDTH 500 0
DWIDTH 4 0
BBX 3 9 0 0
BITMAP
A0
00
E0
40
40
40
40
40
E0
ENDCHAR
STARTCHAR Eth
ENCODING 208
SWIDTH 750 0
DWIDTH 6 0
BBX 6 7 -1 0
BITMAP
78
44
44
E4
44
44
78
ENDCHAR
STARTCHAR Ntilde
ENCODING 209
SWIDTH 750 0
DWIDTH 6 0
BBX 5 9 0 0
BITMAP
70
00
88
C8
C8
A8
98
98
88
ENDCHAR
STARTCHAR Ograve
ENCODING 210
SWIDTH 750 0
DWIDTH 6 0
BBX 5 10 0 0
BITMAP
40
20
00
70
88
88
88
88
88
70
ENDCHAR
STARTCHAR Oacute
ENCODING 211
SWIDTH 750 0
DWIDTH 6 0
BBX 5 10 0 0
BITMAP
10
20
00
70
88
88
88
88
88
70
ENDCHAR
STARTCHAR Ocircumflex
ENCODING 212
SWIDTH 750 0
DWIDTH 6 0
BBX 5 10 0 0
BITMAP
20
50
00
70
88
88
88
88
88
70
ENDCHAR
STARTCHAR Otilde
ENCODING 213
SWIDTH 750 0
DWIDTH 6 0
BBX 5 9 0 0
BITMAP
70
00
70
88
88
88
88
88
70
ENDCHAR
STARTCHAR Odieresis
ENCODING 214
SWIDTH 750 0
DWIDTH 6 0
BBX 5 9 0 0
BITMAP
50
00
70
88
88
88
88
88
70
ENDCHAR
STARTCHAR multiply
ENCODING 215
SWIDTH 500 0
DWIDTH 4 0
BBX 3 3 0 2
BITMAP
A0
40
A0
ENDCHAR
STARTCHAR Oslash
ENCODING 216
SWIDTH 1000 0
DWIDTH 8 0
BBX 7 7 0 0
BITMAP
3A
44
4C
54
64
44
B8
ENDCHAR
STARTCHAR Ugrave
ENCODING 217
SWIDTH 750 0
DWIDTH 6 0
BBX 5 10 0 0
BITMAP
40
20
00
88
88
88
88
88
88
70
ENDCHAR
STARTCHAR Uacute
ENCODING 218
SWIDTH 750 0
DWIDTH 6 0
BBX 5 10 0 0
BITMAP
10
20
00
88
88
88
88
88
88
70
ENDCHAR
STARTCHAR Ucircumflex
ENCODING 219
SWIDTH 750 0
DWIDTH 6 0
BBX 5 10 0 0
BITMAP
20
50
00
88
88
88
88
88
88
70
ENDCHAR
STARTCHAR Udieresis
ENCODING 220
SWIDTH 750 0
DWIDTH 6 0
BBX 5 9 0 0
BITMAP
50
00
88
88
88
88
88
88
70
ENDCHAR
STARTCHAR Yacute
ENCODING 221
SWIDTH 750 0
DWIDTH 6 0
BBX 5 10 0 0
BITMAP
10
20
00
88
88
50
20
20
20
20
ENDCHAR
STARTCHAR Thorn
ENCODING 222
SWIDTH 625 0
DWIDTH 5 0
BBX 4 7 0 0
BITMAP
80
E0
90
90
90
E0
80
ENDCHAR
STARTCHAR germandbls
ENCODING 223
SWIDTH 625 0
DWIDTH 5 0
BBX 4 7 0 0
BITMAP
60
90
90
A0
90
90
A0
ENDCHAR
STARTCHAR agrave
ENCODING 224
SWIDTH 625 0
DWIDTH 5 0
BBX 4 8 0 0
BITMAP
80
40
00
E0
10
70
90
70
ENDCHAR
STARTCHAR aacute
ENCODING 225
SWIDTH 625 0
DWIDTH 5 0
BBX 4 8 0 0
BITMAP
10
20
00
E0
10
70
90
70
ENDCHAR
STARTCHAR acircumflex
ENCODING 226
SWIDTH 625 0
DWIDTH 5 0
BBX 4 8 0 0
BITMAP
20
50
00
E0
10
70
90
70
ENDCHAR
STARTCHAR atilde
ENCODING 227
SWIDTH 625 0
DWIDTH 5 0
BBX 4 7 0 0
BITMAP
70
00
E0
10
70
90
70
ENDCHAR
STARTCHAR adieresis
ENCODING 228
SWIDTH 625 0
DWIDTH 5 0
BBX 4 7 0 0
BITMAP
50
00
E0
10
70
90
70
ENDCHAR
STARTCHAR aring
ENCODING 229
SWIDTH 625 0
DWIDTH 5 0
BBX 4 7 0 0
BITMAP
20
00
E0
10
70
90
70
ENDCHAR
STARTCHAR ae
ENCODING 230
SWIDTH 1000 0
DWIDTH 8 0
BBX 7 5 0 0
BITMAP
EC
12
7E
90
6E
ENDCHAR
STARTCHAR ccedilla
ENCODING 231
SWIDTH 625 0
DWIDTH 5 0
BBX 4 7 0 -2
BITMAP
60
90
80
90
60
20
40
ENDCHAR
STARTCHAR egrave
ENCODING 232
SWIDTH 625 0
DWIDTH 5 0
BBX 4 8 0 0
BITMAP
80
40
00
60
90
F0
80
70
ENDCHAR
STARTCHAR eacute
ENCODING 233
SWIDTH 625 0
DWIDTH 5 0
BBX 4 8 0 0
BITMAP
10
20
00
60
90
F0
80
70
ENDCHAR
STARTCHAR ecircumflex
ENCODING 234
SWIDTH 625 0
DWIDTH 5 0
BBX 4 8 0 0
BITMAP
60
90
00
60
90
F0
80
70
ENDCHAR
STARTCHAR edieresis
ENCODING 235
SWIDTH 625 0
DWIDTH 5 0
BBX 4 7 0 0
BITMAP
90
00
60
90
F0
80
70
ENDCHAR
STARTCHAR igrave
ENCODING 236
SWIDTH 375 0
DWIDTH 3 0
BBX 2 8 0 0
BITMAP
80
40
00
40
40
40
40
40
ENDCHAR
STARTCHAR iacute
ENCODING 237
SWIDTH 500 0
DWIDTH 4 0
BBX 2 8 1 0
BITMAP
40
80
00
80
80
80
80
80
ENDCHAR
STARTCHAR icircumflex
ENCODING 238
SWIDTH 500 0
DWIDTH 4 0
BBX 3 8 0 0
BITMAP
40
A0
00
40
40
40
40
40
ENDCHAR
STARTCHAR idieresis
ENCODING 239
SWIDTH 500 0
DWIDTH 4 0
BBX 3 7 0 0
BITMAP
A0
00
40
40
40
40
40
ENDCHAR
STARTCHAR eth
ENCODING 240
SWIDTH 750 0
DWIDTH 6 0
BBX 5 7 0 0
BITMAP
10
38
10
70
90
90
60
ENDCHAR
STARTCHAR ntilde
ENCODING 241
SWIDTH 625 0
DWIDTH 5 0
BBX 4 7 0 0
BITMAP
F0
00
E0
90
90
90
90
ENDCHAR
STARTCHAR ograve
ENCODING 242
SWIDTH 625 0
DWIDTH 5 0
BBX 4 8 0 0
BITMAP
80
40
00
60
90
90
90
60
ENDCHAR
STARTCHAR oacute
ENCODING 243
SWIDTH 625 0
DWIDTH 5 0
BBX 4 8 0 0
BITMAP
10
20
00
60
90
90
90
60
ENDCHAR
STARTCHAR ocircumflex
ENCODING 244
SWIDTH 625 0
DWIDTH 5 0
BBX 4 8 0 0
BITMAP
60
90
00
60
90
90
90
60
ENDCHAR
STARTCHAR otilde
ENCODING 245
SWIDTH 625 0
DWIDTH 5 0
BBX 4 7 0 0
BITMAP
F0
00
60
90
90
90
60
ENDCHAR
STARTCHAR odieresis
ENCODING 246
SWIDTH 625 0
DWIDTH 5 0
BBX 4 7 0 0
BITMAP
90
00
60
90
90
90
60
ENDCHAR
STARTCHAR divide
ENCODING 247
SWIDTH 375 0
DWIDTH 3 0
BBX 3 5 0 1
BITMAP
40
00
E0
00
40
ENDCHAR
STARTCHAR oslash
ENCODING 248
SWIDTH 750 0
DWIDTH 6 0
BBX 5 5 0 0
BITMAP
68
90
A8
48
B0
ENDCHAR
STARTCHAR ugrave
ENCODING 249
SWIDTH 625 0
DWIDTH 5 0
BBX 4 8 0 0
BITMAP
80
40
00
90
90
90
90
70
ENDCHAR
STARTCHAR uacute
ENCODING 250
SWIDTH 625 0
DWIDTH 5 0
BBX 4 8 0 0
BITMAP
10
20
00
90
90
90
90
70
ENDCHAR
STARTCHAR ucircumflex
ENCODING 251
SWIDTH 625 0
DWIDTH 5 0
BBX 4 8 0 0
BITMAP
60
90
00
90
90
90
90
70
ENDCHAR
STARTCHAR udieresis
ENCODING 252
SWIDTH 625 0
DWIDTH 5 0
BBX 4 7 0 0
BITMAP
90
00
90
90
90
90
70
ENDCHAR
STARTCHAR yacute
ENCODING 253
SWIDTH 625 0
DWIDTH 5 0
BBX 4 10 0 -2
BITMAP
10
20
00
90
90
90
90
70
10
E0
ENDCHAR
STARTCHAR thorn
ENCODING 254
SWIDTH 625 0
DWIDTH 5 0
BBX 4 9 0 -2
BITMAP
80
80
E0
90
90
90
E0
80
80
ENDCHAR
STARTCHAR ydieresis
ENCODING 255
SWIDTH 625 0
DWIDTH 5 0
BBX 4 9 0 -2
BITMAP
90
00
90
90
90
90
70
10
E0
ENDCHAR
STARTCHAR Amacron
ENCODING 256
SWIDTH 750 0
DWIDTH 6 0
BBX 5 9 0 0
BITMAP
70
00
70
88
88
F8
88
88
88
ENDCHAR
STARTCHAR amacron
ENCODING 257
SWIDTH 625 0
DWIDTH 5 0
BBX 4 7 0 0
BITMAP
F0
00
E0
10
70
90
70
ENDCHAR
STARTCHAR Abreve
ENCODING 258
SWIDTH 750 0
DWIDTH 6 0
BBX 5 10 0 0
BITMAP
50
20
00
70
88
88
F8
88
88
88
ENDCHAR
STARTCHAR abreve
ENCODING 259
SWIDTH 625 0
DWIDTH 5 0
BBX 4 8 0 0
BITMAP
50
20
00
E0
10
70
90
70
ENDCHAR
STARTCHAR Aogonek
ENCODING 260
SWIDTH 750 0
DWIDTH 6 0
BBX 5 9 0 -2
BITMAP
70
88
88
F8
88
88
88
10
18
ENDCHAR
STARTCHAR aogonek
ENCODING 261
SWIDTH 625 0
DWIDTH 5 0
BBX 4 7 0 -2
BITMAP
E0
10
70
90
70
20
30
ENDCHAR
STARTCHAR Cacute
ENCODING 262
SWIDTH 750 0
DWIDTH 6 0
BBX 5 10 0 0
BITMAP
10
20
00
70
88
80
80
80
88
70
ENDCHAR
STARTCHAR cacute
ENCODING 263
SWIDTH 625 0
DWIDTH 5 0
BBX 4 8 0 0
BITMAP
10
20
00
60
90
80
90
60
ENDCHAR
STARTCHAR Ccircumflex
ENCODING 264
SWIDTH 750 0
DWIDTH 6 0
BBX 5 10 0 0
BITMAP
20
50
00
70
88
80
80
80
88
70
ENDCHAR
STARTCHAR ccircumflex
ENCODING 265
SWIDTH 625 0
DWIDTH 5 0
BBX 4 8 0 0
BITMAP
60
90
00
60
90
80
90
60
ENDCHAR
STARTCHAR Cdotaccent
ENCODING 266
SWIDTH 750 0
DWIDTH 6 0
BBX 5 9 0 0
BITMAP
20
00
70
88
80
80
80
88
70
ENDCHAR
STARTCHAR cdotaccent
ENCODING 267
SWIDTH 625 0
DWIDTH 5 0
BBX 4 7 0 0
BITMAP
20
00
60
90
80
90
60
ENDCHAR
STARTCHAR Ccaron
ENCODING 268
SWIDTH 750 0
DWIDTH 6 0
BBX 5 10 0 0
BITMAP
50
20
00
70
88
80
80
80
88
70
ENDCHAR
STARTCHAR ccaron
ENCODING 269
SWIDTH 625 0
DWIDTH 5 0
BBX 4 8 0 0
BITMAP
90
60
00
60
90
80
90
60
ENDCHAR
STARTCHAR Dcaron
ENCODING 270
SWIDTH 750 0
DWIDTH 6 0
BBX 5 10 0 0
BITMAP
50
20
00
F0
88
88
88
88
88
F0
ENDCHAR
STARTCHAR dcaron
ENCODING 271
SWIDTH 875 0
DWIDTH 7 0
BBX 6 7 0 0
BITMAP
14
14
70
90
90
90
70
ENDCHAR
STARTCHAR Dcroat
ENCODING 272
SWIDTH 875 0
DWIDTH 7 0
BBX 6 7 0 0
BITMAP
78
44
44
E4
44
44
78
ENDCHAR
STARTCHAR dcroat
ENCODING 273
SWIDTH 750 0
DWIDTH 6 0
BBX 5 7 0 0
BITMAP
10
38
10
70
90
90
70
ENDCHAR
STARTCHAR Emacron
ENCODING 274
SWIDTH 750 0
DWIDTH 6 0
BBX 5 9 0 0
BITMAP
70
00
F8
80
80
F8
80
80
F8
ENDCHAR
STARTCHAR emacron
ENCODING 275
SWIDTH 625 0
DWIDTH 5 0
BBX 4 7 0 0
BITMAP
F0
00
60
90
F0
80
70
ENDCHAR
STARTCHAR Ebreve
ENCODING 276
SWIDTH 750 0
DWIDTH 6 0
BBX 5 10 0 0
BITMAP
50
20
00
F8
80
80
F8
80
80
F8
ENDCHAR
STARTCHAR ebreve
ENCODING 277
SWIDTH 625 0
DWIDTH 5 0
BBX 4 8 0 0
BITMAP
90
60
00
60
90
F0
80
70
ENDCHAR
STARTCHAR Edotaccent
ENCODING 278
SWIDTH 750 0
DWIDTH 6 0
BBX 5 9 0 0
BITMAP
20
00
F8
80
80
F8
80
80
F8
ENDCHAR
STARTCHAR edotaccent
ENCODING 279
SWIDTH 625 0
DWIDTH 5 0
BBX 4 7 0 0
BITMAP
20
00
60
90
F0
80
70
ENDCHAR
STARTCHAR Eogonek
ENCODING 280
SWIDTH 750 0
DWIDTH 6 0
BBX 5 9 0 -2
BITMAP
F8
80
80
F8
80
80
F8
10
18
ENDCHAR
STARTCHAR eogonek
ENCODING 281
SWIDTH 625 0
DWIDTH 5 0
BBX 4 7 0 -2
BITMAP
60
90
F0
80
70
20
30
ENDCHAR
STARTCHAR Ecaron
ENCODING 282
SWIDTH 750 0
DWIDTH 6 0
BBX 5 10 0 0
BITMAP
50
20
00
F8
80
80
F8
80
80
F8
ENDCHAR
STARTCHAR ecaron
ENCODING 283
SWIDTH 625 0
DWIDTH 5 0
BBX 4 8 0 0
BITMAP
90
60
00
60
90
F0
80
70
ENDCHAR
STARTCHAR Gcircumflex
ENCODING 284
SWIDTH 750 0
DWIDTH 6 0
BBX 5 10 0 0
BITMAP
20
50
00
70
88
80
98
88
88
70
ENDCHAR
STARTCHAR gcircumflex
ENCODING 285
SWIDTH 625 0
DWIDTH 5 0
BBX 4 10 0 -2
BITMAP
20
50
00
70
90
90
90
70
10
E0
ENDCHAR
STARTCHAR Gbreve
ENCODING 286
SWIDTH 750 0
DWIDTH 6 0
BBX 5 10 0 0
BITMAP
50
20
00
70
88
80
98
88
88
70
ENDCHAR
STARTCHAR gbreve
ENCODING 287
SWIDTH 625 0
DWIDTH 5 0
BBX 4 10 0 -2
BITMAP
50
20
00
70
90
90
90
70
10
E0
ENDCHAR
STARTCHAR Gdotaccent
ENCODING 288
SWIDTH 750 0
DWIDTH 6 0
BBX 5 9 0 0
BITMAP
20
00
70
88
80
98
88
88
70
ENDCHAR
STARTCHAR gdotaccent
ENCODING 289
SWIDTH 625 0
DWIDTH 5 0
BBX 4 9 0 -2
BITMAP
20
00
70
90
90
90
70
10
E0
ENDCHAR
STARTCHAR uni0122
ENCODING 290
SWIDTH 750 0
DWIDTH 6 0
BBX 5 9 0 -2
BITMAP
70
88
80
98
88
88
70
20
40
ENDCHAR
STARTCHAR uni0123
ENCODING 291
SWIDTH 625 0
DWIDTH 5 0
BBX 4 10 0 -2
BITMAP
20
20
00
70
90
90
90
70
10
E0
ENDCHAR
STARTCHAR Hcircumflex
ENCODING 292
SWIDTH 750 0
DWIDTH 6 0
BBX 5 10 0 0
BITMAP
20
50
00
88
88
88
F8
88
88
88
ENDCHAR
STARTCHAR hcircumflex
ENCODING 293
SWIDTH 625 0
DWIDTH 5 0
BBX 5 10 -1 0
BITMAP
40
A0
00
40
40
70
48
48
48
48
ENDCHAR
STARTCHAR Hbar
ENCODING 294
SWIDTH 1000 0
DWIDTH 8 0
BBX 7 7 0 0
BITMAP
44
FE
44
7C
44
44
44
ENDCHAR
STARTCHAR hbar
ENCODING 295
SWIDTH 750 0
DWIDTH 6 0
BBX 5 7 0 0
BITMAP
40
E0
40
70
48
48
48
ENDCHAR
STARTCHAR Itilde
ENCODING 296
SWIDTH 500 0
DWIDTH 4 0
BBX 3 9 0 0
BITMAP
E0
00
E0
40
40
40
40
40
E0
ENDCHAR
STARTCHAR itilde
ENCODING 297
SWIDTH 500 0
DWIDTH 4 0
BBX 3 7 0 0
BITMAP
E0
00
40
40
40
40
40
ENDCHAR
STARTCHAR Imacron
ENCODING 298
SWIDTH 500 0
DWIDTH 4 0
BBX 3 9 0 0
BITMAP
E0
00
E0
40
40
40
40
40
E0
ENDCHAR
STARTCHAR imacron
ENCODING 299
SWIDTH 500 0
DWIDTH 4 0
BBX 3 7 0 0
BITMAP
E0
00
40
40
40
40
40
ENDCHAR
STARTCHAR Ibreve
ENCODING 300
SWIDTH 500 0
DWIDTH 4 0
BBX 3 10 0 0
BITMAP
A0
40
00
E0
40
40
40
40
40
E0
ENDCHAR
STARTCHAR ibreve
ENCODING 301
SWIDTH 500 0
DWIDTH 4 0
BBX 3 8 0 0
BITMAP
A0
40
00
40
40
40
40
40
ENDCHAR
STARTCHAR Iogonek
ENCODING 302
SWIDTH 500 0
DWIDTH 4 0
BBX 3 9 0 -2
BITMAP
E0
40
40
40
40
40
E0
80
C0
ENDCHAR
STARTCHAR iogonek
ENCODING 303
SWIDTH 375 0
DWIDTH 3 0
BBX 2 9 0 -2
BITMAP
40
00
40
40
40
40
40
80
C0
ENDCHAR
STARTCHAR Idotaccent
ENCODING 304
SWIDTH 500 0
DWIDTH 4 0
BBX 3 9 0 0
BITMAP
40
00
E0
40
40
40
40
40
E0
ENDCHAR
STARTCHAR dotlessi
ENCODING 305
SWIDTH 250 0
DWIDTH 2 0
BBX 1 5 0 0
BITMAP
80
80
80
80
80
ENDCHAR
STARTCHAR IJ
ENCODING 306
SWIDTH 750 0
DWIDTH 6 0
BBX 5 8 0 -1
BITMAP
F8
48
48
48
E8
08
48
30
ENDCHAR
STARTCHAR ij
ENCODING 307
SWIDTH 500 0
DWIDTH 4 0
BBX 3 9 0 -2
BITMAP
A0
00
A0
A0
A0
A0
A0
20
C0
ENDCHAR
STARTCHAR Jcircumflex
ENCODING 308
SWIDTH 625 0
DWIDTH 5 0
BBX 4 10 0 0
BITMAP
20
50
00
70
10
10
10
10
90
60
ENDCHAR
STARTCHAR jcircumflex
ENCODING 309
SWIDTH 500 0
DWIDTH 4 0
BBX 3 10 0 -2
BITMAP
40
A0
00
40
40
40
40
40
40
80
ENDCHAR
STARTCHAR uni0136
ENCODING 310
SWIDTH 750 0
DWIDTH 6 0
BBX 5 9 0 -2
BITMAP
88
88
90
E0
90
88
88
20
40
ENDCHAR
STARTCHAR uni0137
ENCODING 311
SWIDTH 625 0
DWIDTH 5 0
BBX 4 9 0 -2
BITMAP
80
80
90
A0
C0
A0
90
40
80
ENDCHAR
STARTCHAR kgreenlandic
ENCODING 312
SWIDTH 625 0
DWIDTH 5 0
BBX 4 5 0 0
BITMAP
90
A0
C0
A0
90
ENDCHAR
STARTCHAR Lacute
ENCODING 313
SWIDTH 625 0
DWIDTH 5 0
BBX 4 10 0 0
BITMAP
10
20
00
80
80
80
80
80
80
F0
ENDCHAR
STARTCHAR lacute
ENCODING 314
SWIDTH 250 0
DWIDTH 2 0
BBX 2 10 0 0
BITMAP
40
80
00
80
80
80
80
80
80
80
ENDCHAR
STARTCHAR uni013B
ENCODING 315
SWIDTH 625 0
DWIDTH 5 0
BBX 4 9 0 -2
BITMAP
80
80
80
80
80
80
F0
20
40
ENDCHAR
STARTCHAR uni013C
ENCODING 316
SWIDTH 375 0
DWIDTH 3 0
BBX 2 9 0 -2
BITMAP
80
80
80
80
80
80
80
40
80
ENDCHAR
STARTCHAR Lcaron
ENCODING 317
SWIDTH 625 0
DWIDTH 5 0
BBX 4 7 0 0
BITMAP
A0
A0
80
80
80
80
F0
ENDCHAR
STARTCHAR lcaron
ENCODING 318
SWIDTH 500 0
DWIDTH 4 0
BBX 3 7 0 0
BITMAP
A0
A0
80
80
80
80
80
ENDCHAR
STARTCHAR Ldot
ENCODING 319
SWIDTH 625 0
DWIDTH 5 0
BBX 4 7 0 0
BITMAP
80
80
80
A0
80
80
F0
ENDCHAR
STARTCHAR ldot
ENCODING 320
SWIDTH 500 0
DWIDTH 4 0
BBX 3 7 0 0
BITMAP
80
80
80
A0
80
80
80
ENDCHAR
STARTCHAR Lslash
ENCODING 321
SWIDTH 750 0
DWIDTH 6 0
BBX 5 7 0 0
BITMAP
40
40
60
C0
40
40
78
ENDCHAR
STARTCHAR lslash
ENCODING 322
SWIDTH 500 0
DWIDTH 4 0
BBX 3 7 0 0
BITMAP
40
40
60
C0
40
40
40
ENDCHAR
STARTCHAR Nacute
ENCODING 323
SWIDTH 750 0
DWIDTH 6 0
BBX 5 10 0 0
BITMAP
10
20
00
88
C8
C8
A8
98
98
88
ENDCHAR
STARTCHAR nacute
ENCODING 324
SWIDTH 625 0
DWIDTH 5 0
BBX 4 8 0 0
BITMAP
10
20
00
E0
90
90
90
90
ENDCHAR
STARTCHAR uni0145
ENCODING 325
SWIDTH 750 0
DWIDTH 6 0
BBX 5 9 0 -2
BITMAP
88
C8
C8
A8
98
98
88
20
40
ENDCHAR
STARTCHAR uni0146
ENCODING 326
SWIDTH 625 0
DWIDTH 5 0
BBX 4 7 0 -2
BITMAP
E0
90
90
90
90
40
80
ENDCHAR
STARTCHAR Ncaron
ENCODING 327
SWIDTH 750 0
DWIDTH 6 0
BBX 5 10 0 0
BITMAP
50
20
00
88
C8
C8
A8
98
98
88
ENDCHAR
STARTCHAR ncaron
ENCODING 328
SWIDTH 625 0
DWIDTH 5 0
BBX 4 8 0 0
BITMAP
A0
40
00
E0
90
90
90
90
ENDCHAR
STARTCHAR napostrophe
ENCODING 329
SWIDTH 750 0
DWIDTH 6 0
BBX 5 7 0 0
BITMAP
80
80
70
48
48
48
48
ENDCHAR
STARTCHAR Eng
ENCODING 330
SWIDTH 750 0
DWIDTH 6 0
BBX 5 9 0 -2
BITMAP
88
C8
C8
A8
98
98
88
08
10
ENDCHAR
STARTCHAR eng
ENCODING 331
SWIDTH 625 0
DWIDTH 5 0
BBX 4 7 0 -2
BITMAP
E0
90
90
90
90
10
20
ENDCHAR
STARTCHAR Omacron
ENCODING 332
SWIDTH 750 0
DWIDTH 6 0
BBX 5 9 0 0
BITMAP
70
00
70
88
88
88
88
88
70
ENDCHAR
STARTCHAR omacron
ENCODING 333
SWIDTH 625 0
DWIDTH 5 0
BBX 4 7 0 0
BITMAP
F0
00
60
90
90
90
60
ENDCHAR
STARTCHAR Obreve
ENCODING 334
SWIDTH 750 0
DWIDTH 6 0
BBX 5 10 0 0
BITMAP
50
20
00
70
88
88
88
88
88
70
ENDCHAR
STARTCHAR obreve
ENCODING 335
SWIDTH 625 0
DWIDTH 5 0
BBX 4 8 0 0
BITMAP
90
60
00
60
90
90
90
60
ENDCHAR
STARTCHAR Ohungarumlaut
ENCODING 336
SWIDTH 750 0
DWIDTH 6 0
BBX 5 10 0 0
BITMAP
48
90
00
70
88
88
88
88
88
70
ENDCHAR
STARTCHAR ohungarumlaut
ENCODING 337
SWIDTH 625 0
DWIDTH 5 0
BBX 4 9 0 0
BITMAP
40
90
20
00
60
90
90
90
60
ENDCHAR
STARTCHAR OE
ENCODING 338
SWIDTH 1000 0
DWIDTH 8 0
BBX 7 7 0 0
BITMAP
7E
90
90
9E
90
90
7E
ENDCHAR
STARTCHAR oe
ENCODING 339
SWIDTH 1000 0
DWIDTH 8 0
BBX 7 5 0 0
BITMAP
6C
92
9E
90
6E
ENDCHAR
STARTCHAR Racute
ENCODING 340
SWIDTH 750 0
DWIDTH 6 0
BBX 5 10 0 0
BITMAP
10
20
00
F0
88
88
F0
A0
90
88
ENDCHAR
STARTCHAR racute
ENCODING 341
SWIDTH 625 0
DWIDTH 5 0
BBX 4 8 0 0
BITMAP
10
20
00
E0
90
80
80
80
ENDCHAR
STARTCHAR uni0156
ENCODING 342
SWIDTH 750 0
DWIDTH 6 0
BBX 5 9 0 -2
BITMAP
F0
88
88
F0
A0
90
88
20
40
ENDCHAR
STARTCHAR uni0157
ENCODING 343
SWIDTH 625 0
DWIDTH 5 0
BBX 4 7 0 -2
BITMAP
E0
90
80
80
80
20
40
ENDCHAR
STARTCHAR Rcaron
ENCODING 344
SWIDTH 750 0
DWIDTH 6 0
BBX 5 10 0 0
BITMAP
50
20
00
F0
88
88
F0
A0
90
88
ENDCHAR
STARTCHAR rcaron
ENCODING 345
SWIDTH 625 0
DWIDTH 5 0
BBX 4 8 0 0
BITMAP
A0
40
00
E0
90
80
80
80
ENDCHAR
STARTCHAR Sacute
ENCODING 346
SWIDTH 750 0
DWIDTH 6 0
BBX 5 10 0 0
BITMAP
10
20
00
70
88
80
70
08
88
70
ENDCHAR
STARTCHAR sacute
ENCODING 347
SWIDTH 625 0
DWIDTH 5 0
BBX 4 8 0 0
BITMAP
10
20
00
70
80
60
10
E0
ENDCHAR
STARTCHAR Scircumflex
ENCODING 348
SWIDTH 750 0
DWIDTH 6 0
BBX 5 10 0 0
BITMAP
20
50
00
70
88
80
70
08
88
70
ENDCHAR
STARTCHAR scircumflex
ENCODING 349
SWIDTH 625 0
DWIDTH 5 0
BBX 4 8 0 0
BITMAP
20
50
00
70
80
60
10
E0
ENDCHAR
STARTCHAR Scedilla
ENCODING 350
SWIDTH 750 0
DWIDTH 6 0
BBX 5 9 0 -2
BITMAP
70
88
80
70
08
88
70
20
40
ENDCHAR
STARTCHAR scedilla
ENCODING 351
SWIDTH 625 0
DWIDTH 5 0
BBX 4 7 0 -2
BITMAP
70
80
60
10
E0
40
80
ENDCHAR
STARTCHAR Scaron
ENCODING 352
SWIDTH 750 0
DWIDTH 6 0
BBX 5 10 0 0
BITMAP
50
20
00
70
88
80
70
08
88
70
ENDCHAR
STARTCHAR scaron
ENCODING 353
SWIDTH 625 0
DWIDTH 5 0
BBX 4 8 0 0
BITMAP
50
20
00
70
80
60
10
E0
ENDCHAR
STARTCHAR uni0162
ENCODING 354
SWIDTH 750 0
DWIDTH 6 0
BBX 5 9 0 -2
BITMAP
F8
20
20
20
20
20
20
10
20
ENDCHAR
STARTCHAR uni0163
ENCODING 355
SWIDTH 625 0
DWIDTH 5 0
BBX 3 8 1 -2
BITMAP
40
E0
40
40
40
40
20
40
ENDCHAR
STARTCHAR Tcaron
ENCODING 356
SWIDTH 750 0
DWIDTH 6 0
BBX 5 10 0 0
BITMAP
50
20
00
F8
20
20
20
20
20
20
ENDCHAR
STARTCHAR tcaron
ENCODING 357
SWIDTH 625 0
DWIDTH 5 0
BBX 4 8 0 0
BITMAP
10
10
40
E0
40
40
40
20
ENDCHAR
STARTCHAR Tbar
ENCODING 358
SWIDTH 750 0
DWIDTH 6 0
BBX 5 7 0 0
BITMAP
F8
20
20
70
20
20
20
ENDCHAR
STARTCHAR tbar
ENCODING 359
SWIDTH 500 0
DWIDTH 4 0
BBX 3 6 0 0
BITMAP
40
E0
40
E0
40
20
ENDCHAR
STARTCHAR Utilde
ENCODING 360
SWIDTH 750 0
DWIDTH 6 0
BBX 5 9 0 0
BITMAP
70
00
88
88
88
88
88
88
70
ENDCHAR
STARTCHAR utilde
ENCODING 361
SWIDTH 625 0
DWIDTH 5 0
BBX 4 7 0 0
BITMAP
F0
00
90
90
90
90
70
ENDCHAR
STARTCHAR Umacron
ENCODING 362
SWIDTH 750 0
DWIDTH 6 0
BBX 5 8 0 0
BITMAP
70
00
88
88
88
88
88
70
ENDCHAR
STARTCHAR umacron
ENCODING 363
SWIDTH 625 0
DWIDTH 5 0
BBX 4 7 0 0
BITMAP
F0
00
90
90
90
90
70
ENDCHAR
STARTCHAR Ubreve
ENCODING 364
SWIDTH 750 0
DWIDTH 6 0
BBX 5 10 0 0
BITMAP
50
20
00
88
88
88
88
88
88
70
ENDCHAR
STARTCHAR ubreve
ENCODING 365
SWIDTH 625 0
DWIDTH 5 0
BBX 4 8 0 0
BITMAP
90
60
00
90
90
90
90
70
ENDCHAR
STARTCHAR Uring
ENCODING 366
SWIDTH 750 0
DWIDTH 6 0
BBX 5 9 0 0
BITMAP
20
00
88
88
88
88
88
88
70
ENDCHAR
STARTCHAR uring
ENCODING 367
SWIDTH 625 0
DWIDTH 5 0
BBX 4 7 0 0
BITMAP
20
00
90
90
90
90
70
ENDCHAR
STARTCHAR Uhungarumlaut
ENCODING 368
SWIDTH 750 0
DWIDTH 6 0
BBX 5 10 0 0
BITMAP
48
90
00
88
88
88
88
88
88
70
ENDCHAR
STARTCHAR uhungarumlaut
ENCODING 369
SWIDTH 625 0
DWIDTH 5 0
BBX 4 9 0 0
BITMAP
40
90
20
00
90
90
90
90
70
ENDCHAR
STARTCHAR Uogonek
ENCODING 370
SWIDTH 750 0
DWIDTH 6 0
BBX 5 9 0 -2
BITMAP
88
88
88
88
88
88
70
20
30
ENDCHAR
STARTCHAR uogonek
ENCODING 371
SWIDTH 625 0
DWIDTH 5 0
BBX 4 7 0 -2
BITMAP
90
90
90
90
70
20
30
ENDCHAR
STARTCHAR Wcircumflex
ENCODING 372
SWIDTH 1250 0
DWIDTH 10 0
BBX 9 10 0 0
BITMAP
0800
1400
0000
8880
8880
8880
8880
4900
5500
2200
ENDCHAR
STARTCHAR wcircumflex
ENCODING 373
SWIDTH 750 0
DWIDTH 6 0
BBX 5 8 0 0
BITMAP
20
50
00
88
88
A8
50
50
ENDCHAR
STARTCHAR Ycircumflex
ENCODING 374
SWIDTH 750 0
DWIDTH 6 0
BBX 5 10 0 0
BITMAP
20
50
00
88
88
50
20
20
20
20
ENDCHAR
STARTCHAR ycircumflex
ENCODING 375
SWIDTH 625 0
DWIDTH 5 0
BBX 4 10 0 -2
BITMAP
60
90
00
90
90
90
90
70
10
E0
ENDCHAR
STARTCHAR Ydieresis
ENCODING 376
SWIDTH 750 0
DWIDTH 6 0
BBX 5 9 0 0
BITMAP
50
00
88
88
50
20
20
20
20
ENDCHAR
STARTCHAR Zacute
ENCODING 377
SWIDTH 750 0
DWIDTH 6 0
BBX 5 10 0 0
BITMAP
10
20
00
F8
08
10
20
40
80
F8
ENDCHAR
STARTCHAR zacute
ENCODING 378
SWIDTH 750 0
DWIDTH 6 0
BBX 5 8 0 0
BITMAP
10
20
00
F8
10
20
40
F8
ENDCHAR
STARTCHAR Zdotaccent
ENCODING 379
SWIDTH 750 0
DWIDTH 6 0
BBX 5 9 0 0
BITMAP
20
00
F8
08
10
20
40
80
F8
ENDCHAR
STARTCHAR zdotaccent
ENCODING 380
SWIDTH 750 0
DWIDTH 6 0
BBX 5 7 0 0
BITMAP
20
00
F8
10
20
40
F8
ENDCHAR
STARTCHAR Zcaron
ENCODING 381
SWIDTH 750 0
DWIDTH 6 0
BBX 5 10 0 0
BITMAP
50
20
00
F8
08
10
20
40
80
F8
ENDCHAR
STARTCHAR zcaron
ENCODING 382
SWIDTH 750 0
DWIDTH 6 0
BBX 5 8 0 0
BITMAP
50
20
00
F8
10
20
40
F8
ENDCHAR
STARTCHAR longs
ENCODING 383
SWIDTH 500 0
DWIDTH 4 0
BBX 3 7 0 0
BITMAP
60
80
80
80
80
80
80
ENDCHAR
STARTCHAR uni018F
ENCODING 399
SWIDTH 750 0
DWIDTH 6 0
BBX 5 7 0 0
BITMAP
70
88
08
F8
88
88
70
ENDCHAR
STARTCHAR Ohorn
ENCODING 416
SWIDTH 875 0
DWIDTH 7 0
BBX 6 7 0 0
BITMAP
74
8C
88
88
88
88
70
ENDCHAR
STARTCHAR ohorn
ENCODING 417
SWIDTH 750 0
DWIDTH 6 0
BBX 5 5 0 0
BITMAP
68
98
90
90
60
ENDCHAR
STARTCHAR Uhorn
ENCODING 431
SWIDTH 875 0
DWIDTH 7 0
BBX 6 8 0 0
BITMAP
04
8C
88
88
88
88
88
70
ENDCHAR
STARTCHAR uhorn
ENCODING 432
SWIDTH 750 0
DWIDTH 6 0
BBX 5 6 0 0
BITMAP
08
98
90
90
90
70
ENDCHAR
STARTCHAR uni01B5
ENCODING 437
SWIDTH 750 0
DWIDTH 6 0
BBX 5 7 0 0
BITMAP
F8
08
50
20
50
80
F8
ENDCHAR
STARTCHAR uni01B6
ENCODING 438
SWIDTH 750 0
DWIDTH 6 0
BBX 5 5 0 0
BITMAP
F8
10
F8
40
F8
ENDCHAR
STARTCHAR uni01B7
ENCODING 439
SWIDTH 750 0
DWIDTH 6 0
BBX 5 7 0 0
BITMAP
F8
10
20
70
08
88
70
ENDCHAR
STARTCHAR uni01BF
ENCODING 447
SWIDTH 625 0
DWIDTH 5 0
BBX 4 9 0 -2
BITMAP
80
E0
90
90
90
A0
C0
80
80
ENDCHAR
STARTCHAR uni01DD
ENCODING 477
SWIDTH 625 0
DWIDTH 5 0
BBX 4 5 0 0
BITMAP
E0
10
F0
90
60
ENDCHAR
STARTCHAR Aringacute
ENCODING 506
SWIDTH 125 0
DWIDTH 1 0
BBX 1 1 0 0
BITMAP
00
ENDCHAR
STARTCHAR aringacute
ENCODING 507
SWIDTH 125 0
DWIDTH 1 0
BBX 1 1 0 0
BITMAP
00
ENDCHAR
STARTCHAR uni0218
ENCODING 536
SWIDTH 750 0
DWIDTH 6 0
BBX 5 10 0 -3
BITMAP
70
88
80
70
08
88
70
00
20
20
ENDCHAR
STARTCHAR uni0219
ENCODING 537
SWIDTH 625 0
DWIDTH 5 0
BBX 4 8 0 -3
BITMAP
70
80
60
10
E0
00
20
20
ENDCHAR
STARTCHAR uni021A
ENCODING 538
SWIDTH 750 0
DWIDTH 6 0
BBX 5 10 0 -3
BITMAP
F8
20
20
20
20
20
20
00
20
20
ENDCHAR
STARTCHAR uni021B
ENCODING 539
SWIDTH 625 0
DWIDTH 5 0
BBX 3 9 1 -3
BITMAP
40
E0
40
40
40
20
00
40
40
ENDCHAR
STARTCHAR uni021C
ENCODING 540
SWIDTH 750 0
DWIDTH 6 0
BBX 5 7 0 0
BITMAP
70
88
10
08
08
88
70
ENDCHAR
STARTCHAR uni021D
ENCODING 541
SWIDTH 625 0
DWIDTH 5 0
BBX 4 7 0 -2
BITMAP
60
90
10
20
10
10
E0
ENDCHAR
STARTCHAR gravecomb
ENCODING 768
SWIDTH 0 0
DWIDTH 0 0
BBX 2 2 -3 8
BITMAP
80
40
ENDCHAR
STARTCHAR acutecomb
ENCODING 769
SWIDTH 0 0
DWIDTH 0 0
BBX 2 2 -2 8
BITMAP
40
80
ENDCHAR
STARTCHAR uni0302
ENCODING 770
SWIDTH 0 0
DWIDTH 0 0
BBX 3 2 -3 8
BITMAP
40
A0
ENDCHAR
STARTCHAR tildecomb
ENCODING 771
SWIDTH 0 0
DWIDTH 0 0
BBX 4 2 -4 8
BITMAP
50
A0
ENDCHAR
STARTCHAR uni0304
ENCODING 772
SWIDTH 0 0
DWIDTH 0 0
BBX 3 1 -3 8
BITMAP
E0
ENDCHAR
STARTCHAR uni0305
ENCODING 773
SWIDTH 0 0
DWIDTH 0 0
BBX 5 1 -5 8
BITMAP
F8
ENDCHAR
STARTCHAR uni0306
ENCODING 774
SWIDTH 0 0
DWIDTH 0 0
BBX 3 2 -3 8
BITMAP
A0
E0
ENDCHAR
STARTCHAR uni0307
ENCODING 775
SWIDTH 0 0
DWIDTH 0 0
BBX 1 1 0 8
BITMAP
80
ENDCHAR
STARTCHAR uni0308
ENCODING 776
SWIDTH 0 0
DWIDTH 0 0
BBX 3 1 -3 8
BITMAP
A0
ENDCHAR
STARTCHAR hookabovecomb
ENCODING 777
SWIDTH 0 0
DWIDTH 0 0
BBX 2 2 -2 8
BITMAP
C0
40
ENDCHAR
STARTCHAR uni030A
ENCODING 778
SWIDTH 0 0
DWIDTH 0 0
BBX 3 3 -3 8
BITMAP
40
A0
40
ENDCHAR
STARTCHAR uni030B
ENCODING 779
SWIDTH 0 0
DWIDTH 0 0
BBX 5 2 -4 8
BITMAP
48
90
ENDCHAR
STARTCHAR uni030C
ENCODING 780
SWIDTH 0 0
DWIDTH 0 0
BBX 3 2 -3 8
BITMAP
A0
40
ENDCHAR
STARTCHAR uni030D
ENCODING 781
SWIDTH 0 0
DWIDTH 0 0
BBX 1 2 -2 8
BITMAP
80
80
ENDCHAR
STARTCHAR uni030E
ENCODING 782
SWIDTH 0 0
DWIDTH 0 0
BBX 3 2 -3 8
BITMAP
A0
A0
ENDCHAR
STARTCHAR uni030F
ENCODING 783
SWIDTH 0 0
DWIDTH 0 0
BBX 5 2 -5 8
BITMAP
90
48
ENDCHAR
STARTCHAR dotbelowcomb
ENCODING 803
SWIDTH 0 0
DWIDTH 0 0
BBX 1 1 -2 -2
BITMAP
80
ENDCHAR
STARTCHAR uni0324
ENCODING 804
SWIDTH 0 0
DWIDTH 0 0
BBX 3 1 -3 -2
BITMAP
A0
ENDCHAR
STARTCHAR uni0325
ENCODING 805
SWIDTH 0 0
DWIDTH 0 0
BBX 1 1 0 0
BITMAP
00
ENDCHAR
STARTCHAR uni0326
ENCODING 806
SWIDTH 0 0
DWIDTH 0 0
BBX 1 2 -2 -3
BITMAP
80
80
ENDCHAR
STARTCHAR uni0327
ENCODING 807
SWIDTH 0 0
DWIDTH 0 0
BBX 2 2 -3 -2
BITMAP
40
80
ENDCHAR
STARTCHAR uni0328
ENCODING 808
SWIDTH 0 0
DWIDTH 0 0
BBX 2 2 -2 -2
BITMAP
80
C0
ENDCHAR
STARTCHAR uni0358
ENCODING 856
SWIDTH 0 0
DWIDTH 0 0
BBX 1 1 0 8
BITMAP
80
ENDCHAR
STARTCHAR uni0374
ENCODING 884
SWIDTH 375 0
DWIDTH 3 0
BBX 2 2 0 5
BITMAP
40
80
ENDCHAR
STARTCHAR uni0375
ENCODING 885
SWIDTH 375 0
DWIDTH 3 0
BBX 2 2 0 0
BITMAP
40
80
ENDCHAR
STARTCHAR uni037A
ENCODING 890
SWIDTH 375 0
DWIDTH 3 0
BBX 2 2 0 -2
BITMAP
80
40
ENDCHAR
STARTCHAR uni037E
ENCODING 894
SWIDTH 250 0
DWIDTH 2 0
BBX 1 6 0 -1
BITMAP
80
00
00
00
80
80
ENDCHAR
STARTCHAR tonos
ENCODING 900
SWIDTH 375 0
DWIDTH 3 0
BBX 2 2 0 5
BITMAP
40
80
ENDCHAR
STARTCHAR dieresistonos
ENCODING 901
SWIDTH 750 0
DWIDTH 6 0
BBX 5 2 0 5
BITMAP
20
A8
ENDCHAR
STARTCHAR Alphatonos
ENCODING 902
SWIDTH 750 0
DWIDTH 6 0
BBX 7 8 -2 0
BITMAP
40
9C
22
22
3E
22
22
22
ENDCHAR
STARTCHAR anoteleia
ENCODING 903
SWIDTH 250 0
DWIDTH 2 0
BBX 1 1 0 3
BITMAP
80
ENDCHAR
STARTCHAR Epsilontonos
ENCODING 904
SWIDTH 750 0
DWIDTH 6 0
BBX 7 9 -2 0
BITMAP
40
80
3E
20
20
3E
20
20
3E
ENDCHAR
STARTCHAR Etatonos
ENCODING 905
SWIDTH 750 0
DWIDTH 6 0
BBX 7 9 -2 0
BITMAP
40
80
22
22
22
3E
22
22
22
ENDCHAR
STARTCHAR Iotatonos
ENCODING 906
SWIDTH 500 0
DWIDTH 4 0
BBX 5 9 -2 0
BITMAP
40
80
38
10
10
10
10
10
38
ENDCHAR
STARTCHAR Omicrontonos
ENCODING 908
SWIDTH 750 0
DWIDTH 6 0
BBX 7 8 -2 0
BITMAP
40
9C
22
22
22
22
22
1C
ENDCHAR
STARTCHAR Upsilontonos
ENCODING 910
SWIDTH 750 0
DWIDTH 6 0
BBX 7 9 -2 0
BITMAP
40
80
22
22
14
08
08
08
08
ENDCHAR
STARTCHAR Omegatonos
ENCODING 911
SWIDTH 750 0
DWIDTH 6 0
BBX 7 8 -2 0
BITMAP
40
9C
22
22
22
1C
00
3E
ENDCHAR
STARTCHAR iotadieresistonos
ENCODING 912
SWIDTH 500 0
DWIDTH 4 0
BBX 5 8 -2 0
BITMAP
20
A8
00
20
20
20
20
10
ENDCHAR
STARTCHAR Alpha
ENCODING 913
SWIDTH 750 0
DWIDTH 6 0
BBX 5 7 0 0
BITMAP
70
88
88
F8
88
88
88
ENDCHAR
STARTCHAR Beta
ENCODING 914
SWIDTH 750 0
DWIDTH 6 0
BBX 5 7 0 0
BITMAP
F0
88
88
F0
88
88
F0
ENDCHAR
STARTCHAR Gamma
ENCODING 915
SWIDTH 750 0
DWIDTH 6 0
BBX 5 7 0 0
BITMAP
F8
80
80
80
80
80
80
ENDCHAR
STARTCHAR uni0394
ENCODING 916
SWIDTH 750 0
DWIDTH 6 0
BBX 5 7 0 0
BITMAP
20
20
50
50
88
88
F8
ENDCHAR
STARTCHAR Epsilon
ENCODING 917
SWIDTH 750 0
DWIDTH 6 0
BBX 5 7 0 0
BITMAP
F8
80
80
F8
80
80
F8
ENDCHAR
STARTCHAR Zeta
ENCODING 918
SWIDTH 750 0
DWIDTH 6 0
BBX 5 7 0 0
BITMAP
F8
08
10
20
40
80
F8
ENDCHAR
STARTCHAR Eta
ENCODING 919
SWIDTH 750 0
DWIDTH 6 0
BBX 5 7 0 0
BITMAP
88
88
88
F8
88
88
88
ENDCHAR
STARTCHAR Theta
ENCODING 920
SWIDTH 750 0
DWIDTH 6 0
BBX 5 7 0 0
BITMAP
70
88
88
F8
88
88
70
ENDCHAR
STARTCHAR Iota
ENCODING 921
SWIDTH 500 0
DWIDTH 4 0
BBX 3 7 0 0
BITMAP
E0
40
40
40
40
40
E0
ENDCHAR
STARTCHAR Kappa
ENCODING 922
SWIDTH 750 0
DWIDTH 6 0
BBX 5 7 0 0
BITMAP
88
88
90
E0
90
88
88
ENDCHAR
STARTCHAR Lambda
ENCODING 923
SWIDTH 750 0
DWIDTH 6 0
BBX 5 7 0 0
BITMAP
20
20
50
50
50
88
88
ENDCHAR
STARTCHAR Mu
ENCODING 924
SWIDTH 750 0
DWIDTH 6 0
BBX 5 7 0 0
BITMAP
88
D8
A8
88
88
88
88
ENDCHAR
STARTCHAR Nu
ENCODING 925
SWIDTH 750 0
DWIDTH 6 0
BBX 5 7 0 0
BITMAP
88
C8
C8
A8
98
98
88
ENDCHAR
STARTCHAR Xi
ENCODING 926
SWIDTH 750 0
DWIDTH 6 0
BBX 5 7 0 0
BITMAP
F8
00
00
70
00
00
F8
ENDCHAR
STARTCHAR Omicron
ENCODING 927
SWIDTH 750 0
DWIDTH 6 0
BBX 5 7 0 0
BITMAP
70
88
88
88
88
88
70
ENDCHAR
STARTCHAR Pi
ENCODING 928
SWIDTH 750 0
DWIDTH 6 0
BBX 5 7 0 0
BITMAP
F8
88
88
88
88
88
88
ENDCHAR
STARTCHAR Rho
ENCODING 929
SWIDTH 750 0
DWIDTH 6 0
BBX 5 7 0 0
BITMAP
F0
88
88
F0
80
80
80
ENDCHAR
STARTCHAR Sigma
ENCODING 931
SWIDTH 750 0
DWIDTH 6 0
BBX 5 7 0 0
BITMAP
F8
80
40
20
40
80
F8
ENDCHAR
STARTCHAR Tau
ENCODING 932
SWIDTH 750 0
DWIDTH 6 0
BBX 5 7 0 0
BITMAP
F8
20
20
20
20
20
20
ENDCHAR
STARTCHAR Upsilon
ENCODING 933
SWIDTH 750 0
DWIDTH 6 0
BBX 5 7 0 0
BITMAP
88
88
50
20
20
20
20
ENDCHAR
STARTCHAR Phi
ENCODING 934
SWIDTH 1000 0
DWIDTH 8 0
BBX 7 7 0 0
BITMAP
10
7C
92
92
92
7C
10
ENDCHAR
STARTCHAR Chi
ENCODING 935
SWIDTH 750 0
DWIDTH 6 0
BBX 5 7 0 0
BITMAP
88
88
50
20
50
88
88
ENDCHAR
STARTCHAR Psi
ENCODING 936
SWIDTH 1000 0
DWIDTH 8 0
BBX 7 7 0 0
BITMAP
92
54
54
38
10
10
10
ENDCHAR
STARTCHAR uni03A9
ENCODING 937
SWIDTH 750 0
DWIDTH 6 0
BBX 5 7 0 0
BITMAP
70
88
88
88
70
00
F8
ENDCHAR
STARTCHAR Iotadieresis
ENCODING 938
SWIDTH 500 0
DWIDTH 4 0
BBX 3 9 0 0
BITMAP
A0
00
E0
40
40
40
40
40
E0
ENDCHAR
STARTCHAR Upsilondieresis
ENCODING 939
SWIDTH 750 0
DWIDTH 6 0
BBX 5 9 0 0
BITMAP
50
00
88
88
50
20
20
20
20
ENDCHAR
STARTCHAR alphatonos
ENCODING 940
SWIDTH 750 0
DWIDTH 6 0
BBX 5 8 0 0
BITMAP
10
20
00
68
98
90
90
68
ENDCHAR
STARTCHAR epsilontonos
ENCODING 941
SWIDTH 625 0
DWIDTH 5 0
BBX 4 8 0 0
BITMAP
10
20
00
60
90
40
90
60
ENDCHAR
STARTCHAR etatonos
ENCODING 942
SWIDTH 625 0
DWIDTH 5 0
BBX 4 10 0 -2
BITMAP
10
20
00
E0
90
90
90
90
10
10
ENDCHAR
STARTCHAR iotatonos
ENCODING 943
SWIDTH 375 0
DWIDTH 3 0
BBX 2 8 0 0
BITMAP
40
80
00
80
80
80
80
40
ENDCHAR
STARTCHAR upsilondieresistonos
ENCODING 944
SWIDTH 750 0
DWIDTH 6 0
BBX 5 8 0 0
BITMAP
20
A8
00
90
90
90
90
60
ENDCHAR
STARTCHAR alpha
ENCODING 945
SWIDTH 750 0
DWIDTH 6 0
BBX 5 5 0 0
BITMAP
68
98
90
90
68
ENDCHAR
STARTCHAR beta
ENCODING 946
SWIDTH 625 0
DWIDTH 5 0
BBX 4 9 0 -2
BITMAP
60
90
90
A0
90
90
A0
80
80
ENDCHAR
STARTCHAR gamma
ENCODING 947
SWIDTH 750 0
DWIDTH 6 0
BBX 5 7 0 -2
BITMAP
88
88
50
50
20
20
20
ENDCHAR
STARTCHAR delta
ENCODING 948
SWIDTH 625 0
DWIDTH 5 0
BBX 4 7 0 0
BITMAP
60
80
40
20
90
90
60
ENDCHAR
STARTCHAR epsilon
ENCODING 949
SWIDTH 625 0
DWIDTH 5 0
BBX 4 5 0 0
BITMAP
60
90
40
90
60
ENDCHAR
STARTCHAR zeta
ENCODING 950
SWIDTH 750 0
DWIDTH 6 0
BBX 5 9 0 -2
BITMAP
F8
10
20
40
80
80
70
08
30
ENDCHAR
STARTCHAR eta
ENCODING 951
SWIDTH 625 0
DWIDTH 5 0
BBX 4 7 0 -2
BITMAP
E0
90
90
90
90
10
10
ENDCHAR
STARTCHAR theta
ENCODING 952
SWIDTH 625 0
DWIDTH 5 0
BBX 4 7 0 0
BITMAP
60
90
90
F0
90
90
60
ENDCHAR
STARTCHAR iota
ENCODING 953
SWIDTH 375 0
DWIDTH 3 0
BBX 2 5 0 0
BITMAP
80
80
80
80
40
ENDCHAR
STARTCHAR kappa
ENCODING 954
SWIDTH 625 0
DWIDTH 5 0
BBX 4 5 0 0
BITMAP
90
A0
C0
A0
90
ENDCHAR
STARTCHAR lambda
ENCODING 955
SWIDTH 750 0
DWIDTH 6 0
BBX 5 7 0 0
BITMAP
C0
20
20
50
50
88
88
ENDCHAR
STARTCHAR uni03BC
ENCODING 956
SWIDTH 750 0
DWIDTH 6 0
BBX 5 7 0 -2
BITMAP
90
90
90
90
E8
80
80
ENDCHAR
STARTCHAR nu
ENCODING 957
SWIDTH 625 0
DWIDTH 5 0
BBX 4 5 0 0
BITMAP
90
90
90
A0
40
ENDCHAR
STARTCHAR xi
ENCODING 958
SWIDTH 625 0
DWIDTH 5 0
BBX 5 9 -1 -2
BITMAP
F8
40
40
30
40
40
30
08
70
ENDCHAR
STARTCHAR omicron
ENCODING 959
SWIDTH 625 0
DWIDTH 5 0
BBX 4 5 0 0
BITMAP
60
90
90
90
60
ENDCHAR
STARTCHAR pi
ENCODING 960
SWIDTH 875 0
DWIDTH 7 0
BBX 6 5 0 0
BITMAP
FC
48
48
48
48
ENDCHAR
STARTCHAR rho
ENCODING 961
SWIDTH 625 0
DWIDTH 5 0
BBX 4 7 0 -2
BITMAP
60
90
90
90
E0
80
80
ENDCHAR
STARTCHAR sigma1
ENCODING 962
SWIDTH 625 0
DWIDTH 5 0
BBX 4 7 0 -2
BITMAP
70
80
80
80
60
10
20
ENDCHAR
STARTCHAR sigma
ENCODING 963
SWIDTH 750 0
DWIDTH 6 0
BBX 5 5 0 0
BITMAP
78
90
90
90
60
ENDCHAR
STARTCHAR tau
ENCODING 964
SWIDTH 750 0
DWIDTH 6 0
BBX 5 5 0 0
BITMAP
F8
20
20
20
20
ENDCHAR
STARTCHAR upsilon
ENCODING 965
SWIDTH 625 0
DWIDTH 5 0
BBX 4 5 0 0
BITMAP
90
90
90
90
60
ENDCHAR
STARTCHAR phi
ENCODING 966
SWIDTH 750 0
DWIDTH 6 0
BBX 5 7 0 -2
BITMAP
30
A8
A8
A8
70
20
20
ENDCHAR
STARTCHAR chi
ENCODING 967
SWIDTH 750 0
DWIDTH 6 0
BBX 5 7 0 -2
BITMAP
88
50
20
50
50
88
88
ENDCHAR
STARTCHAR psi
ENCODING 968
SWIDTH 750 0
DWIDTH 6 0
BBX 5 7 0 -2
BITMAP
20
A8
A8
A8
70
20
20
ENDCHAR
STARTCHAR omega
ENCODING 969
SWIDTH 1000 0
DWIDTH 8 0
BBX 7 5 0 0
BITMAP
44
82
92
92
6C
ENDCHAR
STARTCHAR iotadieresis
ENCODING 970
SWIDTH 375 0
DWIDTH 3 0
BBX 3 7 -1 0
BITMAP
A0
00
40
40
40
40
20
ENDCHAR
STARTCHAR upsilondieresis
ENCODING 971
SWIDTH 625 0
DWIDTH 5 0
BBX 4 7 0 0
BITMAP
90
00
90
90
90
90
60
ENDCHAR
STARTCHAR omicrontonos
ENCODING 972
SWIDTH 625 0
DWIDTH 5 0
BBX 4 8 0 0
BITMAP
10
20
00
60
90
90
90
60
ENDCHAR
STARTCHAR upsilontonos
ENCODING 973
SWIDTH 625 0
DWIDTH 5 0
BBX 4 8 0 0
BITMAP
10
20
00
90
90
90
90
60
ENDCHAR
STARTCHAR omegatonos
ENCODING 974
SWIDTH 750 0
DWIDTH 6 0
BBX 5 8 0 0
BITMAP
10
20
00
50
88
A8
A8
50
ENDCHAR
STARTCHAR uni03D8
ENCODING 984
SWIDTH 750 0
DWIDTH 6 0
BBX 5 9 0 -2
BITMAP
70
88
88
88
88
88
70
20
20
ENDCHAR
STARTCHAR uni03D9
ENCODING 985
SWIDTH 750 0
DWIDTH 6 0
BBX 5 7 0 -2
BITMAP
70
88
88
88
70
20
20
ENDCHAR
STARTCHAR uni0400
ENCODING 1024
SWIDTH 750 0
DWIDTH 6 0
BBX 5 10 0 0
BITMAP
40
20
00
F8
80
80
F8
80
80
F8
ENDCHAR
STARTCHAR uni0401
ENCODING 1025
SWIDTH 750 0
DWIDTH 6 0
BBX 5 9 0 0
BITMAP
50
00
F8
80
80
F8
80
80
F8
ENDCHAR
STARTCHAR uni0402
ENCODING 1026
SWIDTH 1000 0
DWIDTH 8 0
BBX 7 7 0 0
BITMAP
F8
20
20
3C
22
22
24
ENDCHAR
STARTCHAR uni0403
ENCODING 1027
SWIDTH 750 0
DWIDTH 6 0
BBX 5 10 0 0
BITMAP
10
20
00
F8
80
80
80
80
80
80
ENDCHAR
STARTCHAR uni0404
ENCODING 1028
SWIDTH 750 0
DWIDTH 6 0
BBX 5 7 0 0
BITMAP
70
88
80
E0
80
88
70
ENDCHAR
STARTCHAR uni0405
ENCODING 1029
SWIDTH 750 0
DWIDTH 6 0
BBX 5 7 0 0
BITMAP
70
88
80
70
08
88
70
ENDCHAR
STARTCHAR uni0406
ENCODING 1030
SWIDTH 500 0
DWIDTH 4 0
BBX 3 7 0 0
BITMAP
E0
40
40
40
40
40
E0
ENDCHAR
STARTCHAR uni0407
ENCODING 1031
SWIDTH 500 0
DWIDTH 4 0
BBX 3 9 0 0
BITMAP
A0
00
E0
40
40
40
40
40
E0
ENDCHAR
STARTCHAR uni0408
ENCODING 1032
SWIDTH 625 0
DWIDTH 5 0
BBX 4 7 0 0
BITMAP
F0
10
10
10
10
90
60
ENDCHAR
STARTCHAR uni0409
ENCODING 1033
SWIDTH 1125 0
DWIDTH 9 0
BBX 8 7 0 0
BITMAP
78
48
48
4E
49
49
8E
ENDCHAR
STARTCHAR uni040A
ENCODING 1034
SWIDTH 1000 0
DWIDTH 8 0
BBX 7 7 0 0
BITMAP
90
90
90
FC
92
92
9C
ENDCHAR
STARTCHAR uni040B
ENCODING 1035
SWIDTH 875 0
DWIDTH 7 0
BBX 6 7 0 0
BITMAP
F8
20
20
38
24
24
24
ENDCHAR
STARTCHAR uni040C
ENCODING 1036
SWIDTH 750 0
DWIDTH 6 0
BBX 5 7 0 0
BITMAP
88
90
90
E0
90
88
88
ENDCHAR
STARTCHAR uni040D
ENCODING 1037
SWIDTH 750 0
DWIDTH 6 0
BBX 5 9 0 0
BITMAP
40
20
88
88
88
98
A8
C8
88
ENDCHAR
STARTCHAR uni040E
ENCODING 1038
SWIDTH 750 0
DWIDTH 6 0
BBX 5 10 0 0
BITMAP
50
20
00
88
88
88
78
08
08
F0
ENDCHAR
STARTCHAR uni040F
ENCODING 1039
SWIDTH 750 0
DWIDTH 6 0
BBX 5 8 0 -1
BITMAP
88
88
88
88
88
88
F8
20
ENDCHAR
STARTCHAR uni0410
ENCODING 1040
SWIDTH 750 0
DWIDTH 6 0
BBX 5 7 0 0
BITMAP
70
88
88
F8
88
88
88
ENDCHAR
STARTCHAR uni0411
ENCODING 1041
SWIDTH 750 0
DWIDTH 6 0
BBX 5 7 0 0
BITMAP
F8
80
80
F0
88
88
F0
ENDCHAR
STARTCHAR uni0412
ENCODING 1042
SWIDTH 750 0
DWIDTH 6 0
BBX 5 7 0 0
BITMAP
F0
88
88
F0
88
88
F0
ENDCHAR
STARTCHAR uni0413
ENCODING 1043
SWIDTH 750 0
DWIDTH 6 0
BBX 5 7 0 0
BITMAP
F8
80
80
80
80
80
80
ENDCHAR
STARTCHAR uni0414
ENCODING 1044
SWIDTH 875 0
DWIDTH 7 0
BBX 6 8 0 -1
BITMAP
78
48
48
48
48
88
FC
84
ENDCHAR
STARTCHAR uni0415
ENCODING 1045
SWIDTH 750 0
DWIDTH 6 0
BBX 5 7 0 0
BITMAP
F8
80
80
F8
80
80
F8
ENDCHAR
STARTCHAR uni0416
ENCODING 1046
SWIDTH 1000 0
DWIDTH 8 0
BBX 7 7 0 0
BITMAP
92
54
54
38
54
92
92
ENDCHAR
STARTCHAR uni0417
ENCODING 1047
SWIDTH 750 0
DWIDTH 6 0
BBX 5 7 0 0
BITMAP
70
88
08
30
08
88
70
ENDCHAR
STARTCHAR uni0418
ENCODING 1048
SWIDTH 750 0
DWIDTH 6 0
BBX 5 7 0 0
BITMAP
88
88
88
98
A8
C8
88
ENDCHAR
STARTCHAR uni0419
ENCODING 1049
SWIDTH 750 0
DWIDTH 6 0
BBX 5 10 0 0
BITMAP
50
20
00
88
88
88
98
A8
C8
88
ENDCHAR
STARTCHAR uni041A
ENCODING 1050
SWIDTH 750 0
DWIDTH 6 0
BBX 5 7 0 0
BITMAP
88
90
90
E0
90
88
88
ENDCHAR
STARTCHAR uni041B
ENCODING 1051
SWIDTH 750 0
DWIDTH 6 0
BBX 5 7 0 0
BITMAP
78
48
48
48
48
48
88
ENDCHAR
STARTCHAR uni041C
ENCODING 1052
SWIDTH 750 0
DWIDTH 6 0
BBX 5 7 0 0
BITMAP
88
D8
A8
88
88
88
88
ENDCHAR
STARTCHAR uni041D
ENCODING 1053
SWIDTH 750 0
DWIDTH 6 0
BBX 5 7 0 0
BITMAP
88
88
88
F8
88
88
88
ENDCHAR
STARTCHAR uni041E
ENCODING 1054
SWIDTH 750 0
DWIDTH 6 0
BBX 5 7 0 0
BITMAP
70
88
88
88
88
88
70
ENDCHAR
STARTCHAR uni041F
ENCODING 1055
SWIDTH 750 0
DWIDTH 6 0
BBX 5 7 0 0
BITMAP
F8
88
88
88
88
88
88
ENDCHAR
STARTCHAR uni0420
ENCODING 1056
SWIDTH 750 0
DWIDTH 6 0
BBX 5 7 0 0
BITMAP
F0
88
88
F0
80
80
80
ENDCHAR
STARTCHAR uni0421
ENCODING 1057
SWIDTH 750 0
DWIDTH 6 0
BBX 5 7 0 0
BITMAP
70
88
80
80
80
88
70
ENDCHAR
STARTCHAR uni0422
ENCODING 1058
SWIDTH 750 0
DWIDTH 6 0
BBX 5 7 0 0
BITMAP
F8
20
20
20
20
20
20
ENDCHAR
STARTCHAR uni0423
ENCODING 1059
SWIDTH 750 0
DWIDTH 6 0
BBX 5 7 0 0
BITMAP
88
88
88
78
08
08
F0
ENDCHAR
STARTCHAR uni0424
ENCODING 1060
SWIDTH 1000 0
DWIDTH 8 0
BBX 7 7 0 0
BITMAP
10
7C
92
92
92
7C
10
ENDCHAR
STARTCHAR uni0425
ENCODING 1061
SWIDTH 750 0
DWIDTH 6 0
BBX 5 7 0 0
BITMAP
88
88
50
20
50
88
88
ENDCHAR
STARTCHAR uni0426
ENCODING 1062
SWIDTH 875 0
DWIDTH 7 0
BBX 6 8 0 -1
BITMAP
88
88
88
88
88
88
FC
04
ENDCHAR
STARTCHAR uni0427
ENCODING 1063
SWIDTH 750 0
DWIDTH 6 0
BBX 5 7 0 0
BITMAP
88
88
88
78
08
08
08
ENDCHAR
STARTCHAR uni0428
ENCODING 1064
SWIDTH 1000 0
DWIDTH 8 0
BBX 7 7 0 0
BITMAP
92
92
92
92
92
92
FE
ENDCHAR
STARTCHAR uni0429
ENCODING 1065
SWIDTH 1125 0
DWIDTH 9 0
BBX 8 8 0 -1
BITMAP
92
92
92
92
92
92
FF
01
ENDCHAR
STARTCHAR uni042A
ENCODING 1066
SWIDTH 750 0
DWIDTH 6 0
BBX 5 7 0 0
BITMAP
C0
40
40
70
48
48
70
ENDCHAR
STARTCHAR uni042B
ENCODING 1067
SWIDTH 875 0
DWIDTH 7 0
BBX 6 7 0 0
BITMAP
84
84
84
E4
94
94
E4
ENDCHAR
STARTCHAR uni042C
ENCODING 1068
SWIDTH 625 0
DWIDTH 5 0
BBX 4 7 0 0
BITMAP
80
80
80
E0
90
90
E0
ENDCHAR
STARTCHAR uni042D
ENCODING 1069
SWIDTH 750 0
DWIDTH 6 0
BBX 5 7 0 0
BITMAP
70
88
08
38
08
88
70
ENDCHAR
STARTCHAR uni042E
ENCODING 1070
SWIDTH 875 0
DWIDTH 7 0
BBX 6 7 0 0
BITMAP
98
A4
A4
E4
A4
A4
98
ENDCHAR
STARTCHAR uni042F
ENCODING 1071
SWIDTH 750 0
DWIDTH 6 0
BBX 5 7 0 0
BITMAP
78
88
88
78
28
48
88
ENDCHAR
STARTCHAR uni0430
ENCODING 1072
SWIDTH 625 0
DWIDTH 5 0
BBX 4 5 0 0
BITMAP
E0
10
70
90
70
ENDCHAR
STARTCHAR uni0431
ENCODING 1073
SWIDTH 625 0
DWIDTH 5 0
BBX 4 8 0 0
BITMAP
10
60
80
E0
90
90
90
60
ENDCHAR
STARTCHAR uni0432
ENCODING 1074
SWIDTH 625 0
DWIDTH 5 0
BBX 4 5 0 0
BITMAP
E0
90
E0
90
E0
ENDCHAR
STARTCHAR uni0433
ENCODING 1075
SWIDTH 625 0
DWIDTH 5 0
BBX 4 5 0 0
BITMAP
F0
80
80
80
80
ENDCHAR
STARTCHAR uni0434
ENCODING 1076
SWIDTH 750 0
DWIDTH 6 0
BBX 5 6 0 -1
BITMAP
70
50
50
90
F8
88
ENDCHAR
STARTCHAR uni0435
ENCODING 1077
SWIDTH 625 0
DWIDTH 5 0
BBX 4 5 0 0
BITMAP
60
90
F0
80
70
ENDCHAR
STARTCHAR uni0436
ENCODING 1078
SWIDTH 750 0
DWIDTH 6 0
BBX 5 5 0 0
BITMAP
A8
A8
70
A8
A8
ENDCHAR
STARTCHAR uni0437
ENCODING 1079
SWIDTH 625 0
DWIDTH 5 0
BBX 4 5 0 0
BITMAP
60
90
20
90
60
ENDCHAR
STARTCHAR uni0438
ENCODING 1080
SWIDTH 625 0
DWIDTH 5 0
BBX 4 5 0 0
BITMAP
90
90
B0
D0
90
ENDCHAR
STARTCHAR uni0439
ENCODING 1081
SWIDTH 625 0
DWIDTH 5 0
BBX 4 8 0 0
BITMAP
50
20
00
90
90
B0
D0
90
ENDCHAR
STARTCHAR uni043A
ENCODING 1082
SWIDTH 625 0
DWIDTH 5 0
BBX 4 5 0 0
BITMAP
90
A0
C0
A0
90
ENDCHAR
STARTCHAR uni043B
ENCODING 1083
SWIDTH 625 0
DWIDTH 5 0
BBX 4 5 0 0
BITMAP
70
50
50
50
90
ENDCHAR
STARTCHAR uni043C
ENCODING 1084
SWIDTH 750 0
DWIDTH 6 0
BBX 5 5 0 0
BITMAP
88
D8
A8
88
88
ENDCHAR
STARTCHAR uni043D
ENCODING 1085
SWIDTH 625 0
DWIDTH 5 0
BBX 4 5 0 0
BITMAP
90
90
F0
90
90
ENDCHAR
STARTCHAR uni043E
ENCODING 1086
SWIDTH 625 0
DWIDTH 5 0
BBX 4 5 0 0
BITMAP
60
90
90
90
60
ENDCHAR
STARTCHAR uni043F
ENCODING 1087
SWIDTH 625 0
DWIDTH 5 0
BBX 4 5 0 0
BITMAP
F0
90
90
90
90
ENDCHAR
STARTCHAR uni0440
ENCODING 1088
SWIDTH 625 0
DWIDTH 5 0
BBX 4 7 0 -2
BITMAP
E0
90
90
90
E0
80
80
ENDCHAR
STARTCHAR uni0441
ENCODING 1089
SWIDTH 625 0
DWIDTH 5 0
BBX 4 5 0 0
BITMAP
60
90
80
90
60
ENDCHAR
STARTCHAR uni0442
ENCODING 1090
SWIDTH 750 0
DWIDTH 6 0
BBX 5 5 0 0
BITMAP
F8
20
20
20
20
ENDCHAR
STARTCHAR uni0443
ENCODING 1091
SWIDTH 625 0
DWIDTH 5 0
BBX 4 7 0 -2
BITMAP
90
90
90
90
70
10
E0
ENDCHAR
STARTCHAR uni0444
ENCODING 1092
SWIDTH 1000 0
DWIDTH 8 0
BBX 7 9 0 -2
BITMAP
10
10
7C
92
92
92
7C
10
10
ENDCHAR
STARTCHAR uni0445
ENCODING 1093
SWIDTH 750 0
DWIDTH 6 0
BBX 5 5 0 0
BITMAP
88
50
20
50
88
ENDCHAR
STARTCHAR uni0446
ENCODING 1094
SWIDTH 750 0
DWIDTH 6 0
BBX 5 6 0 -1
BITMAP
90
90
90
90
F8
08
ENDCHAR
STARTCHAR uni0447
ENCODING 1095
SWIDTH 625 0
DWIDTH 5 0
BBX 4 5 0 0
BITMAP
90
90
70
10
10
ENDCHAR
STARTCHAR uni0448
ENCODING 1096
SWIDTH 750 0
DWIDTH 6 0
BBX 5 5 0 0
BITMAP
A8
A8
A8
A8
F8
ENDCHAR
STARTCHAR uni0449
ENCODING 1097
SWIDTH 875 0
DWIDTH 7 0
BBX 6 6 0 -1
BITMAP
A8
A8
A8
A8
FC
04
ENDCHAR
STARTCHAR uni044A
ENCODING 1098
SWIDTH 750 0
DWIDTH 6 0
BBX 5 5 0 0
BITMAP
C0
40
70
48
70
ENDCHAR
STARTCHAR uni044B
ENCODING 1099
SWIDTH 750 0
DWIDTH 6 0
BBX 5 5 0 0
BITMAP
88
88
C8
A8
C8
ENDCHAR
STARTCHAR uni044C
ENCODING 1100
SWIDTH 625 0
DWIDTH 5 0
BBX 4 5 0 0
BITMAP
80
80
E0
90
E0
ENDCHAR
STARTCHAR uni044D
ENCODING 1101
SWIDTH 625 0
DWIDTH 5 0
BBX 4 5 0 0
BITMAP
60
90
30
90
60
ENDCHAR
STARTCHAR uni044E
ENCODING 1102
SWIDTH 750 0
DWIDTH 6 0
BBX 5 5 0 0
BITMAP
90
A8
E8
A8
90
ENDCHAR
STARTCHAR uni044F
ENCODING 1103
SWIDTH 625 0
DWIDTH 5 0
BBX 4 5 0 0
BITMAP
70
90
70
50
90
ENDCHAR
STARTCHAR uni0450
ENCODING 1104
SWIDTH 625 0
DWIDTH 5 0
BBX 4 8 0 0
BITMAP
40
20
00
60
90
F0
80
70
ENDCHAR
STARTCHAR uni0451
ENCODING 1105
SWIDTH 625 0
DWIDTH 5 0
BBX 4 7 0 0
BITMAP
90
00
60
90
F0
80
70
ENDCHAR
STARTCHAR uni0452
ENCODING 1106
SWIDTH 625 0
DWIDTH 5 0
BBX 5 9 -1 -2
BITMAP
40
E0
40
70
48
48
48
08
10
ENDCHAR
STARTCHAR uni0453
ENCODING 1107
SWIDTH 625 0
DWIDTH 5 0
BBX 4 8 0 0
BITMAP
10
20
00
F0
80
80
80
80
ENDCHAR
STARTCHAR uni0454
ENCODING 1108
SWIDTH 625 0
DWIDTH 5 0
BBX 4 5 0 0
BITMAP
60
90
C0
90
60
ENDCHAR
STARTCHAR uni0455
ENCODING 1109
SWIDTH 625 0
DWIDTH 5 0
BBX 4 5 0 0
BITMAP
70
80
60
10
E0
ENDCHAR
STARTCHAR uni0456
ENCODING 1110
SWIDTH 250 0
DWIDTH 2 0
BBX 1 7 0 0
BITMAP
80
00
80
80
80
80
80
ENDCHAR
STARTCHAR uni0457
ENCODING 1111
SWIDTH 375 0
DWIDTH 3 0
BBX 3 7 -1 0
BITMAP
A0
00
40
40
40
40
40
ENDCHAR
STARTCHAR uni0458
ENCODING 1112
SWIDTH 250 0
DWIDTH 2 0
BBX 2 9 -1 -2
BITMAP
40
00
40
40
40
40
40
40
80
ENDCHAR
STARTCHAR uni0459
ENCODING 1113
SWIDTH 875 0
DWIDTH 7 0
BBX 6 5 0 0
BITMAP
70
50
58
54
98
ENDCHAR
STARTCHAR uni045A
ENCODING 1114
SWIDTH 750 0
DWIDTH 6 0
BBX 5 5 0 0
BITMAP
A0
A0
F0
A8
B0
ENDCHAR
STARTCHAR uni045B
ENCODING 1115
SWIDTH 750 0
DWIDTH 6 0
BBX 5 7 0 0
BITMAP
40
F0
40
70
48
48
48
ENDCHAR
STARTCHAR uni045C
ENCODING 1116
SWIDTH 625 0
DWIDTH 5 0
BBX 4 8 0 0
BITMAP
10
20
00
90
A0
C0
A0
90
ENDCHAR
STARTCHAR uni045D
ENCODING 1117
SWIDTH 625 0
DWIDTH 5 0
BBX 4 8 0 0
BITMAP
40
20
00
90
90
B0
D0
90
ENDCHAR
STARTCHAR uni045E
ENCODING 1118
SWIDTH 625 0
DWIDTH 5 0
BBX 4 10 0 -2
BITMAP
50
20
00
90
90
90
90
70
10
E0
ENDCHAR
STARTCHAR uni045F
ENCODING 1119
SWIDTH 750 0
DWIDTH 6 0
BBX 5 6 0 -1
BITMAP
88
88
88
88
F8
20
ENDCHAR
STARTCHAR uni0460
ENCODING 1120
SWIDTH 1250 0
DWIDTH 10 0
BBX 9 7 0 0
BITMAP
7700
8080
8080
8880
8880
8880
7700
ENDCHAR
STARTCHAR uni0461
ENCODING 1121
SWIDTH 750 0
DWIDTH 6 0
BBX 5 5 0 0
BITMAP
A8
A8
A8
50
50
ENDCHAR
STARTCHAR uni0462
ENCODING 1122
SWIDTH 750 0
DWIDTH 6 0
BBX 5 7 0 0
BITMAP
40
E0
40
70
48
48
70
ENDCHAR
STARTCHAR uni0463
ENCODING 1123
SWIDTH 750 0
DWIDTH 6 0
BBX 5 7 0 0
BITMAP
40
E0
40
40
70
48
70
ENDCHAR
STARTCHAR uni0464
ENCODING 1124
SWIDTH 1000 0
DWIDTH 8 0
BBX 7 7 0 0
BITMAP
9C
A2
A0
F8
A0
A2
9C
ENDCHAR
STARTCHAR uni0465
ENCODING 1125
SWIDTH 875 0
DWIDTH 7 0
BBX 6 5 0 0
BITMAP
98
A4
F0
A4
98
ENDCHAR
STARTCHAR uni0466
ENCODING 1126
SWIDTH 750 0
DWIDTH 6 0
BBX 5 7 0 0
BITMAP
70
88
88
F8
A8
A8
A8
ENDCHAR
STARTCHAR uni0467
ENCODING 1127
SWIDTH 750 0
DWIDTH 6 0
BBX 5 5 0 0
BITMAP
70
88
F8
A8
A8
ENDCHAR
STARTCHAR uni0468
ENCODING 1128
SWIDTH 1000 0
DWIDTH 8 0
BBX 7 7 0 0
BITMAP
9C
A2
A2
FE
AA
AA
AA
ENDCHAR
STARTCHAR uni0469
ENCODING 1129
SWIDTH 1000 0
DWIDTH 8 0
BBX 7 5 0 0
BITMAP
9C
A2
FE
AA
AA
ENDCHAR
STARTCHAR uni046A
ENCODING 1130
SWIDTH 750 0
DWIDTH 6 0
BBX 5 7 0 0
BITMAP
F8
88
50
20
70
A8
A8
ENDCHAR
STARTCHAR uni046B
ENCODING 1131
SWIDTH 750 0
DWIDTH 6 0
BBX 5 5 0 0
BITMAP
F8
50
20
70
A8
ENDCHAR
STARTCHAR uni046C
ENCODING 1132
SWIDTH 1000 0
DWIDTH 8 0
BBX 7 7 0 0
BITMAP
BE
A2
94
E8
9C
AA
AA
ENDCHAR
STARTCHAR uni046D
ENCODING 1133
SWIDTH 1000 0
DWIDTH 8 0
BBX 7 5 0 0
BITMAP
BE
94
E8
9C
AA
ENDCHAR
STARTCHAR uni046E
ENCODING 1134
SWIDTH 750 0
DWIDTH 6 0
BBX 5 11 0 -2
BITMAP
50
20
70
08
08
30
08
08
70
80
70
ENDCHAR
STARTCHAR uni046F
ENCODING 1135
SWIDTH 750 0
DWIDTH 6 0
BBX 5 9 0 -2
BITMAP
50
20
70
88
30
08
70
80
70
ENDCHAR
STARTCHAR uni0470
ENCODING 1136
SWIDTH 1000 0
DWIDTH 8 0
BBX 7 7 0 0
BITMAP
10
92
92
92
7C
10
10
ENDCHAR
STARTCHAR uni0471
ENCODING 1137
SWIDTH 750 0
DWIDTH 6 0
BBX 5 9 0 -2
BITMAP
20
20
A8
A8
A8
A8
70
20
20
ENDCHAR
STARTCHAR uni0472
ENCODING 1138
SWIDTH 750 0
DWIDTH 6 0
BBX 5 7 0 0
BITMAP
70
88
88
F8
88
88
70
ENDCHAR
STARTCHAR uni0473
ENCODING 1139
SWIDTH 625 0
DWIDTH 5 0
BBX 4 5 0 0
BITMAP
60
90
F0
90
60
ENDCHAR
STARTCHAR uni0474
ENCODING 1140
SWIDTH 875 0
DWIDTH 7 0
BBX 6 7 0 0
BITMAP
84
88
88
50
50
20
20
ENDCHAR
STARTCHAR uni0475
ENCODING 1141
SWIDTH 875 0
DWIDTH 7 0
BBX 6 5 0 0
BITMAP
84
88
50
50
20
ENDCHAR
STARTCHAR uni048A
ENCODING 1162
SWIDTH 875 0
DWIDTH 7 0
BBX 6 12 0 -2
BITMAP
50
20
00
88
88
88
98
A8
C8
8C
04
08
ENDCHAR
STARTCHAR uni048B
ENCODING 1163
SWIDTH 750 0
DWIDTH 6 0
BBX 5 10 0 -2
BITMAP
50
20
00
90
90
B0
D0
98
08
10
ENDCHAR
STARTCHAR uni048C
ENCODING 1164
SWIDTH 750 0
DWIDTH 6 0
BBX 5 7 0 0
BITMAP
40
E0
40
70
48
48
70
ENDCHAR
STARTCHAR uni048D
ENCODING 1165
SWIDTH 750 0
DWIDTH 6 0
BBX 5 7 0 0
BITMAP
40
E0
40
40
70
48
70
ENDCHAR
STARTCHAR uni048E
ENCODING 1166
SWIDTH 750 0
DWIDTH 6 0
BBX 5 7 0 0
BITMAP
F0
A8
90
E8
80
80
80
ENDCHAR
STARTCHAR uni048F
ENCODING 1167
SWIDTH 625 0
DWIDTH 5 0
BBX 4 7 0 -2
BITMAP
E0
90
D0
A0
D0
80
80
ENDCHAR
STARTCHAR uni0490
ENCODING 1168
SWIDTH 750 0
DWIDTH 6 0
BBX 5 8 0 0
BITMAP
08
F8
80
80
80
80
80
80
ENDCHAR
STARTCHAR uni0491
ENCODING 1169
SWIDTH 625 0
DWIDTH 5 0
BBX 4 6 0 0
BITMAP
10
F0
80
80
80
80
ENDCHAR
STARTCHAR uni0492
ENCODING 1170
SWIDTH 875 0
DWIDTH 7 0
BBX 6 7 0 0
BITMAP
7C
40
40
E0
40
40
40
ENDCHAR
STARTCHAR uni0493
ENCODING 1171
SWIDTH 750 0
DWIDTH 6 0
BBX 5 5 0 0
BITMAP
78
40
E0
40
40
ENDCHAR
STARTCHAR uni0494
ENCODING 1172
SWIDTH 750 0
DWIDTH 6 0
BBX 5 9 0 -2
BITMAP
F0
80
80
F0
88
88
88
10
20
ENDCHAR
STARTCHAR uni0495
ENCODING 1173
SWIDTH 625 0
DWIDTH 5 0
BBX 4 7 0 -2
BITMAP
E0
80
E0
90
90
20
40
ENDCHAR
STARTCHAR uni0496
ENCODING 1174
SWIDTH 1125 0
DWIDTH 9 0
BBX 8 8 0 -1
BITMAP
92
54
54
38
54
92
93
01
ENDCHAR
STARTCHAR uni0497
ENCODING 1175
SWIDTH 875 0
DWIDTH 7 0
BBX 6 6 0 -1
BITMAP
A8
A8
70
A8
AC
04
ENDCHAR
STARTCHAR uni0498
ENCODING 1176
SWIDTH 750 0
DWIDTH 6 0
BBX 5 8 0 -1
BITMAP
70
88
08
30
08
88
70
20
ENDCHAR
STARTCHAR uni0499
ENCODING 1177
SWIDTH 625 0
DWIDTH 5 0
BBX 4 6 0 -1
BITMAP
60
90
20
90
60
20
ENDCHAR
STARTCHAR uni049A
ENCODING 1178
SWIDTH 875 0
DWIDTH 7 0
BBX 6 8 0 -1
BITMAP
88
90
90
E0
90
88
8C
04
ENDCHAR
STARTCHAR uni049B
ENCODING 1179
SWIDTH 750 0
DWIDTH 6 0
BBX 5 6 0 -1
BITMAP
90
A0
C0
A0
98
08
ENDCHAR
STARTCHAR uni049C
ENCODING 1180
SWIDTH 875 0
DWIDTH 7 0
BBX 6 7 0 0
BITMAP
84
88
A8
F0
A8
84
84
ENDCHAR
STARTCHAR uni049D
ENCODING 1181
SWIDTH 750 0
DWIDTH 6 0
BBX 5 5 0 0
BITMAP
88
A8
F0
A8
88
ENDCHAR
STARTCHAR uni049E
ENCODING 1182
SWIDTH 875 0
DWIDTH 7 0
BBX 6 7 0 0
BITMAP
44
E8
48
70
48
44
44
ENDCHAR
STARTCHAR uni049F
ENCODING 1183
SWIDTH 750 0
DWIDTH 6 0
BBX 5 7 0 0
BITMAP
40
E0
48
50
60
50
48
ENDCHAR
STARTCHAR uni04A0
ENCODING 1184
SWIDTH 875 0
DWIDTH 7 0
BBX 6 7 0 0
BITMAP
C4
48
48
70
48
44
44
ENDCHAR
STARTCHAR uni04A1
ENCODING 1185
SWIDTH 750 0
DWIDTH 6 0
BBX 5 7 0 0
BITMAP
C0
40
48
50
60
50
48
ENDCHAR
STARTCHAR uni04A2
ENCODING 1186
SWIDTH 875 0
DWIDTH 7 0
BBX 6 8 0 -1
BITMAP
88
88
88
F8
88
88
8C
04
ENDCHAR
STARTCHAR uni04A3
ENCODING 1187
SWIDTH 750 0
DWIDTH 6 0
BBX 5 6 0 -1
BITMAP
90
90
F0
90
98
08
ENDCHAR
STARTCHAR uni04A4
ENCODING 1188
SWIDTH 875 0
DWIDTH 7 0
BBX 6 7 0 0
BITMAP
8C
88
88
F8
88
88
88
ENDCHAR
STARTCHAR uni04A5
ENCODING 1189
SWIDTH 750 0
DWIDTH 6 0
BBX 5 5 0 0
BITMAP
98
90
F0
90
90
ENDCHAR
STARTCHAR uni04A6
ENCODING 1190
SWIDTH 1000 0
DWIDTH 8 0
BBX 7 9 0 -2
BITMAP
F0
90
90
9C
92
92
92
04
08
ENDCHAR
STARTCHAR uni04A7
ENCODING 1191
SWIDTH 1000 0
DWIDTH 8 0
BBX 7 7 0 -2
BITMAP
F0
90
9C
92
92
04
08
ENDCHAR
STARTCHAR uni04A8
ENCODING 1192
SWIDTH 875 0
DWIDTH 7 0
BBX 6 8 0 0
BITMAP
70
88
88
94
94
94
88
74
ENDCHAR
STARTCHAR uni04A9
ENCODING 1193
SWIDTH 750 0
DWIDTH 6 0
BBX 5 5 0 0
BITMAP
60
90
A8
90
68
ENDCHAR
STARTCHAR uni04AA
ENCODING 1194
SWIDTH 750 0
DWIDTH 6 0
BBX 5 8 0 -1
BITMAP
70
88
80
80
80
88
70
20
ENDCHAR
STARTCHAR uni04AB
ENCODING 1195
SWIDTH 625 0
DWIDTH 5 0
BBX 4 6 0 -1
BITMAP
60
90
80
90
60
20
ENDCHAR
STARTCHAR uni04AC
ENCODING 1196
SWIDTH 750 0
DWIDTH 6 0
BBX 5 8 0 -1
BITMAP
F8
20
20
20
20
20
30
10
ENDCHAR
STARTCHAR uni04AD
ENCODING 1197
SWIDTH 750 0
DWIDTH 6 0
BBX 5 6 0 -1
BITMAP
F8
20
20
20
30
10
ENDCHAR
STARTCHAR uni04AE
ENCODING 1198
SWIDTH 750 0
DWIDTH 6 0
BBX 5 7 0 0
BITMAP
88
88
50
20
20
20
20
ENDCHAR
STARTCHAR uni04AF
ENCODING 1199
SWIDTH 750 0
DWIDTH 6 0
BBX 5 7 0 -2
BITMAP
88
88
50
50
20
20
20
ENDCHAR
STARTCHAR uni04B0
ENCODING 1200
SWIDTH 750 0
DWIDTH 6 0
BBX 5 6 0 0
BITMAP
88
88
50
20
70
20
ENDCHAR
STARTCHAR uni04B1
ENCODING 1201
SWIDTH 750 0
DWIDTH 6 0
BBX 5 7 0 -2
BITMAP
88
88
50
20
70
20
20
ENDCHAR
STARTCHAR uni04B2
ENCODING 1202
SWIDTH 875 0
DWIDTH 7 0
BBX 6 8 0 -1
BITMAP
88
88
50
20
50
88
8C
04
ENDCHAR
STARTCHAR uni04B3
ENCODING 1203
SWIDTH 875 0
DWIDTH 7 0
BBX 6 6 0 -1
BITMAP
88
50
20
50
8C
04
ENDCHAR
STARTCHAR uni04B4
ENCODING 1204
SWIDTH 1000 0
DWIDTH 8 0
BBX 7 8 0 -1
BITMAP
E4
44
44
44
44
44
7E
02
ENDCHAR
STARTCHAR uni04B5
ENCODING 1205
SWIDTH 875 0
DWIDTH 7 0
BBX 6 6 0 -1
BITMAP
E8
48
48
48
7C
04
ENDCHAR
STARTCHAR uni04B6
ENCODING 1206
SWIDTH 875 0
DWIDTH 7 0
BBX 6 8 0 -1
BITMAP
88
88
88
78
08
08
0C
04
ENDCHAR
STARTCHAR uni04B7
ENCODING 1207
SWIDTH 750 0
DWIDTH 6 0
BBX 5 6 0 -1
BITMAP
90
90
70
10
18
08
ENDCHAR
STARTCHAR uni04B8
ENCODING 1208
SWIDTH 750 0
DWIDTH 6 0
BBX 5 7 0 0
BITMAP
88
88
A8
78
28
08
08
ENDCHAR
STARTCHAR uni04B9
ENCODING 1209
SWIDTH 750 0
DWIDTH 6 0
BBX 5 5 0 0
BITMAP
88
A8
78
28
08
ENDCHAR
STARTCHAR uni04BA
ENCODING 1210
SWIDTH 750 0
DWIDTH 6 0
BBX 5 7 0 0
BITMAP
80
80
80
F0
88
88
88
ENDCHAR
STARTCHAR uni04BB
ENCODING 1211
SWIDTH 625 0
DWIDTH 5 0
BBX 4 5 0 0
BITMAP
80
80
E0
90
90
ENDCHAR
STARTCHAR uni04BC
ENCODING 1212
SWIDTH 1000 0
DWIDTH 8 0
BBX 7 7 0 0
BITMAP
1C
22
A2
7E
20
22
1C
ENDCHAR
STARTCHAR uni04BD
ENCODING 1213
SWIDTH 875 0
DWIDTH 7 0
BBX 6 5 0 0
BITMAP
18
A4
7C
20
1C
ENDCHAR
STARTCHAR uni04BE
ENCODING 1214
SWIDTH 1000 0
DWIDTH 8 0
BBX 7 8 0 -1
BITMAP
1C
22
A2
7E
20
22
1C
08
ENDCHAR
STARTCHAR uni04BF
ENCODING 1215
SWIDTH 875 0
DWIDTH 7 0
BBX 6 6 0 -1
BITMAP
18
A4
7C
20
1C
08
ENDCHAR
STARTCHAR uni04C0
ENCODING 1216
SWIDTH 500 0
DWIDTH 4 0
BBX 3 7 0 0
BITMAP
E0
40
40
40
40
40
E0
ENDCHAR
STARTCHAR uni04C1
ENCODING 1217
SWIDTH 1000 0
DWIDTH 8 0
BBX 7 10 0 0
BITMAP
28
10
00
92
54
54
38
54
92
92
ENDCHAR
STARTCHAR uni04C2
ENCODING 1218
SWIDTH 750 0
DWIDTH 6 0
BBX 5 8 0 0
BITMAP
50
20
00
A8
A8
70
A8
A8
ENDCHAR
STARTCHAR uni04C3
ENCODING 1219
SWIDTH 750 0
DWIDTH 6 0
BBX 5 9 0 -2
BITMAP
88
90
90
E0
90
88
88
10
20
ENDCHAR
STARTCHAR uni04C4
ENCODING 1220
SWIDTH 625 0
DWIDTH 5 0
BBX 4 7 0 -2
BITMAP
90
A0
C0
A0
90
10
20
ENDCHAR
STARTCHAR uni04C5
ENCODING 1221
SWIDTH 875 0
DWIDTH 7 0
BBX 6 9 0 -2
BITMAP
78
48
48
48
48
48
8C
04
08
ENDCHAR
STARTCHAR uni04C6
ENCODING 1222
SWIDTH 875 0
DWIDTH 7 0
BBX 6 7 0 -2
BITMAP
78
48
48
48
8C
04
08
ENDCHAR
STARTCHAR uni04C7
ENCODING 1223
SWIDTH 750 0
DWIDTH 6 0
BBX 5 9 0 -2
BITMAP
88
88
88
F8
88
88
88
08
10
ENDCHAR
STARTCHAR uni04C8
ENCODING 1224
SWIDTH 625 0
DWIDTH 5 0
BBX 4 7 0 -2
BITMAP
90
90
F0
90
90
10
20
ENDCHAR
STARTCHAR uni04C9
ENCODING 1225
SWIDTH 875 0
DWIDTH 7 0
BBX 6 9 0 -2
BITMAP
88
88
88
F8
88
88
8C
04
08
ENDCHAR
STARTCHAR uni04CA
ENCODING 1226
SWIDTH 750 0
DWIDTH 6 0
BBX 5 7 0 -2
BITMAP
90
90
F0
90
98
08
10
ENDCHAR
STARTCHAR uni04CB
ENCODING 1227
SWIDTH 750 0
DWIDTH 6 0
BBX 5 8 0 -1
BITMAP
88
88
88
78
08
08
18
10
ENDCHAR
STARTCHAR uni04CC
ENCODING 1228
SWIDTH 625 0
DWIDTH 5 0
BBX 4 6 0 -1
BITMAP
90
90
70
10
30
20
ENDCHAR
STARTCHAR uni04CD
ENCODING 1229
SWIDTH 875 0
DWIDTH 7 0
BBX 6 9 0 -2
BITMAP
88
D8
A8
88
88
88
8C
04
08
ENDCHAR
STARTCHAR uni04CE
ENCODING 1230
SWIDTH 875 0
DWIDTH 7 0
BBX 6 7 0 -2
BITMAP
88
D8
A8
88
8C
04
08
ENDCHAR
STARTCHAR uni04CF
ENCODING 1231
SWIDTH 500 0
DWIDTH 4 0
BBX 3 7 0 0
BITMAP
C0
40
40
40
40
40
E0
ENDCHAR
STARTCHAR uni04D0
ENCODING 1232
SWIDTH 750 0
DWIDTH 6 0
BBX 5 10 0 0
BITMAP
50
20
00
70
88
88
F8
88
88
88
ENDCHAR
STARTCHAR uni04D1
ENCODING 1233
SWIDTH 625 0
DWIDTH 5 0
BBX 4 8 0 0
BITMAP
50
20
00
E0
10
70
90
70
ENDCHAR
STARTCHAR uni04D2
ENCODING 1234
SWIDTH 750 0
DWIDTH 6 0
BBX 5 9 0 0
BITMAP
50
00
70
88
88
F8
88
88
88
ENDCHAR
STARTCHAR uni04D3
ENCODING 1235
SWIDTH 625 0
DWIDTH 5 0
BBX 4 7 0 0
BITMAP
50
00
E0
10
70
90
70
ENDCHAR
STARTCHAR uni04D4
ENCODING 1236
SWIDTH 1000 0
DWIDTH 8 0
BBX 7 7 0 0
BITMAP
7E
90
90
FE
90
90
9E
ENDCHAR
STARTCHAR uni04D5
ENCODING 1237
SWIDTH 1000 0
DWIDTH 8 0
BBX 7 5 0 0
BITMAP
EC
12
7E
90
6E
ENDCHAR
STARTCHAR uni04D6
ENCODING 1238
SWIDTH 750 0
DWIDTH 6 0
BBX 5 10 0 0
BITMAP
50
20
00
F8
80
80
F8
80
80
F8
ENDCHAR
STARTCHAR uni04D7
ENCODING 1239
SWIDTH 625 0
DWIDTH 5 0
BBX 4 8 0 0
BITMAP
50
20
00
60
90
F0
80
70
ENDCHAR
STARTCHAR uni04D8
ENCODING 1240
SWIDTH 750 0
DWIDTH 6 0
BBX 5 7 0 0
BITMAP
70
88
08
F8
88
88
70
ENDCHAR
STARTCHAR uni04D9
ENCODING 1241
SWIDTH 625 0
DWIDTH 5 0
BBX 4 5 0 0
BITMAP
E0
10
F0
90
60
ENDCHAR
STARTCHAR uni04DA
ENCODING 1242
SWIDTH 750 0
DWIDTH 6 0
BBX 5 9 0 0
BITMAP
50
00
70
88
08
F8
88
88
70
ENDCHAR
STARTCHAR uni04DB
ENCODING 1243
SWIDTH 625 0
DWIDTH 5 0
BBX 4 7 0 0
BITMAP
50
00
E0
10
F0
90
60
ENDCHAR
STARTCHAR uni04DC
ENCODING 1244
SWIDTH 1000 0
DWIDTH 8 0
BBX 7 9 0 0
BITMAP
28
00
92
54
54
38
54
92
92
ENDCHAR
STARTCHAR uni04DD
ENCODING 1245
SWIDTH 750 0
DWIDTH 6 0
BBX 5 7 0 0
BITMAP
50
00
A8
A8
70
A8
A8
ENDCHAR
STARTCHAR uni04DE
ENCODING 1246
SWIDTH 750 0
DWIDTH 6 0
BBX 5 9 0 0
BITMAP
50
00
70
88
08
30
08
88
70
ENDCHAR
STARTCHAR uni04DF
ENCODING 1247
SWIDTH 625 0
DWIDTH 5 0
BBX 4 7 0 0
BITMAP
50
00
60
90
20
90
60
ENDCHAR
STARTCHAR uni04E0
ENCODING 1248
SWIDTH 750 0
DWIDTH 6 0
BBX 5 7 0 0
BITMAP
F8
10
20
70
08
88
70
ENDCHAR
STARTCHAR uni04E1
ENCODING 1249
SWIDTH 625 0
DWIDTH 5 0
BBX 4 7 0 -2
BITMAP
F0
10
10
60
10
90
60
ENDCHAR
STARTCHAR uni04E2
ENCODING 1250
SWIDTH 750 0
DWIDTH 6 0
BBX 5 9 0 0
BITMAP
70
00
88
88
88
98
A8
C8
88
ENDCHAR
STARTCHAR uni04E3
ENCODING 1251
SWIDTH 625 0
DWIDTH 5 0
BBX 4 7 0 0
BITMAP
70
00
90
90
B0
D0
90
ENDCHAR
STARTCHAR uni04E4
ENCODING 1252
SWIDTH 750 0
DWIDTH 6 0
BBX 5 9 0 0
BITMAP
50
00
88
88
88
98
A8
C8
88
ENDCHAR
STARTCHAR uni04E5
ENCODING 1253
SWIDTH 625 0
DWIDTH 5 0
BBX 4 7 0 0
BITMAP
50
00
90
90
B0
D0
90
ENDCHAR
STARTCHAR uni04E6
ENCODING 1254
SWIDTH 750 0
DWIDTH 6 0
BBX 5 9 0 0
BITMAP
50
00
70
88
88
88
88
88
70
ENDCHAR
STARTCHAR uni04E7
ENCODING 1255
SWIDTH 625 0
DWIDTH 5 0
BBX 4 7 0 0
BITMAP
90
00
60
90
90
90
60
ENDCHAR
STARTCHAR uni04E8
ENCODING 1256
SWIDTH 750 0
DWIDTH 6 0
BBX 5 7 0 0
BITMAP
70
88
88
F8
88
88
70
ENDCHAR
STARTCHAR uni04E9
ENCODING 1257
SWIDTH 625 0
DWIDTH 5 0
BBX 4 5 0 0
BITMAP
60
90
F0
90
60
ENDCHAR
STARTCHAR uni04EA
ENCODING 1258
SWIDTH 750 0
DWIDTH 6 0
BBX 5 9 0 0
BITMAP
50
00
70
88
88
F8
88
88
70
ENDCHAR
STARTCHAR uni04EB
ENCODING 1259
SWIDTH 625 0
DWIDTH 5 0
BBX 4 7 0 0
BITMAP
90
00
60
90
F0
90
60
ENDCHAR
STARTCHAR uni04EC
ENCODING 1260
SWIDTH 750 0
DWIDTH 6 0
BBX 5 9 0 0
BITMAP
50
00
70
88
08
38
08
88
70
ENDCHAR
STARTCHAR uni04ED
ENCODING 1261
SWIDTH 625 0
DWIDTH 5 0
BBX 4 7 0 0
BITMAP
50
00
60
90
30
90
60
ENDCHAR
STARTCHAR uni04EE
ENCODING 1262
SWIDTH 750 0
DWIDTH 6 0
BBX 5 9 0 0
BITMAP
70
00
88
88
88
78
08
08
F0
ENDCHAR
STARTCHAR uni04EF
ENCODING 1263
SWIDTH 625 0
DWIDTH 5 0
BBX 4 8 0 -2
BITMAP
70
00
90
90
90
70
10
E0
ENDCHAR
STARTCHAR uni04F0
ENCODING 1264
SWIDTH 750 0
DWIDTH 6 0
BBX 5 9 0 0
BITMAP
50
00
88
88
88
78
08
08
F0
ENDCHAR
STARTCHAR uni04F1
ENCODING 1265
SWIDTH 625 0
DWIDTH 5 0
BBX 4 8 0 -2
BITMAP
90
00
90
90
90
70
10
E0
ENDCHAR
STARTCHAR uni04F2
ENCODING 1266
SWIDTH 750 0
DWIDTH 6 0
BBX 5 10 0 0
BITMAP
48
90
00
88
88
88
78
08
08
F0
ENDCHAR
STARTCHAR uni04F3
ENCODING 1267
SWIDTH 625 0
DWIDTH 5 0
BBX 4 11 0 -2
BITMAP
40
90
20
00
90
90
90
90
70
10
E0
ENDCHAR
STARTCHAR uni04F4
ENCODING 1268
SWIDTH 750 0
DWIDTH 6 0
BBX 5 9 0 0
BITMAP
50
00
88
88
88
78
08
08
08
ENDCHAR
STARTCHAR uni04F5
ENCODING 1269
SWIDTH 625 0
DWIDTH 5 0
BBX 4 7 0 0
BITMAP
90
00
90
90
70
10
10
ENDCHAR
STARTCHAR uni04F6
ENCODING 1270
SWIDTH 750 0
DWIDTH 6 0
BBX 5 8 0 -1
BITMAP
F8
80
80
80
80
80
C0
40
ENDCHAR
STARTCHAR uni04F7
ENCODING 1271
SWIDTH 625 0
DWIDTH 5 0
BBX 4 6 0 -1
BITMAP
F0
80
80
80
C0
40
ENDCHAR
STARTCHAR uni04F8
ENCODING 1272
SWIDTH 875 0
DWIDTH 7 0
BBX 6 9 0 0
BITMAP
28
00
84
84
84
E4
94
94
E4
ENDCHAR
STARTCHAR uni04F9
ENCODING 1273
SWIDTH 875 0
DWIDTH 7 0
BBX 6 7 0 0
BITMAP
28
00
84
84
E4
94
E4
ENDCHAR
STARTCHAR uni04FA
ENCODING 1274
SWIDTH 875 0
DWIDTH 7 0
BBX 6 8 0 -1
BITMAP
7C
40
40
E0
40
40
60
20
ENDCHAR
STARTCHAR uni04FB
ENCODING 1275
SWIDTH 750 0
DWIDTH 6 0
BBX 5 6 0 -1
BITMAP
78
40
E0
40
60
20
ENDCHAR
STARTCHAR uni04FC
ENCODING 1276
SWIDTH 750 0
DWIDTH 6 0
BBX 5 9 0 -2
BITMAP
88
88
50
20
50
88
88
08
10
ENDCHAR
STARTCHAR uni04FD
ENCODING 1277
SWIDTH 750 0
DWIDTH 6 0
BBX 5 7 0 -2
BITMAP
88
50
20
50
88
08
10
ENDCHAR
STARTCHAR uni04FE
ENCODING 1278
SWIDTH 750 0
DWIDTH 6 0
BBX 5 7 0 0
BITMAP
88
50
20
70
20
50
88
ENDCHAR
STARTCHAR uni04FF
ENCODING 1279
SWIDTH 750 0
DWIDTH 6 0
BBX 5 5 0 0
BITMAP
D8
20
F8
20
D8
ENDCHAR
STARTCHAR uni0531
ENCODING 1329
SWIDTH 750 0
DWIDTH 6 0
BBX 5 7 0 0
BITMAP
88
88
88
88
A8
90
68
ENDCHAR
STARTCHAR uni0532
ENCODING 1330
SWIDTH 750 0
DWIDTH 6 0
BBX 5 7 0 0
BITMAP
70
88
80
80
F8
80
80
ENDCHAR
STARTCHAR uni0533
ENCODING 1331
SWIDTH 875 0
DWIDTH 7 0
BBX 6 7 0 0
BITMAP
70
88
88
88
7C
08
08
ENDCHAR
STARTCHAR uni0534
ENCODING 1332
SWIDTH 875 0
DWIDTH 7 0
BBX 6 7 0 0
BITMAP
70
88
88
08
0C
08
08
ENDCHAR
STARTCHAR uni0535
ENCODING 1333
SWIDTH 750 0
DWIDTH 6 0
BBX 5 7 0 0
BITMAP
80
80
F8
80
80
88
70
ENDCHAR
STARTCHAR uni0536
ENCODING 1334
SWIDTH 750 0
DWIDTH 6 0
BBX 5 8 0 -1
BITMAP
70
88
88
78
08
10
F8
88
ENDCHAR
STARTCHAR uni0537
ENCODING 1335
SWIDTH 750 0
DWIDTH 6 0
BBX 5 8 0 -1
BITMAP
80
80
F8
80
80
80
F0
10
ENDCHAR
STARTCHAR uni0538
ENCODING 1336
SWIDTH 750 0
DWIDTH 6 0
BBX 5 7 0 0
BITMAP
70
88
88
80
80
80
F8
ENDCHAR
STARTCHAR uni0539
ENCODING 1337
SWIDTH 875 0
DWIDTH 7 0
BBX 6 7 0 0
BITMAP
70
88
9C
A8
90
80
80
ENDCHAR
STARTCHAR uni053A
ENCODING 1338
SWIDTH 875 0
DWIDTH 7 0
BBX 6 7 0 0
BITMAP
08
08
7C
88
88
88
70
ENDCHAR
STARTCHAR uni053B
ENCODING 1339
SWIDTH 750 0
DWIDTH 6 0
BBX 5 7 0 0
BITMAP
80
80
F0
88
88
80
80
ENDCHAR
STARTCHAR uni053C
ENCODING 1340
SWIDTH 750 0
DWIDTH 6 0
BBX 5 7 0 0
BITMAP
80
80
80
80
80
80
F8
ENDCHAR
STARTCHAR uni053D
ENCODING 1341
SWIDTH 750 0
DWIDTH 6 0
BBX 5 7 0 0
BITMAP
80
80
80
E8
A8
90
80
ENDCHAR
STARTCHAR uni053E
ENCODING 1342
SWIDTH 750 0
DWIDTH 6 0
BBX 5 8 0 0
BITMAP
80
F8
70
88
88
88
88
70
ENDCHAR
STARTCHAR uni053F
ENCODING 1343
SWIDTH 750 0
DWIDTH 6 0
BBX 5 7 0 0
BITMAP
80
80
88
88
88
78
08
ENDCHAR
STARTCHAR uni0540
ENCODING 1344
SWIDTH 750 0
DWIDTH 6 0
BBX 5 7 0 0
BITMAP
70
08
08
F0
08
08
08
ENDCHAR
STARTCHAR uni0541
ENCODING 1345
SWIDTH 750 0
DWIDTH 6 0
BBX 5 7 0 0
BITMAP
70
88
08
08
68
90
68
ENDCHAR
STARTCHAR uni0542
ENCODING 1346
SWIDTH 875 0
DWIDTH 7 0
BBX 6 7 0 0
BITMAP
70
88
08
08
08
08
0C
ENDCHAR
STARTCHAR uni0543
ENCODING 1347
SWIDTH 750 0
DWIDTH 6 0
BBX 5 7 0 0
BITMAP
18
A0
40
A0
90
88
F8
ENDCHAR
STARTCHAR uni0544
ENCODING 1348
SWIDTH 875 0
DWIDTH 7 0
BBX 6 7 0 0
BITMAP
8C
88
88
88
88
88
70
ENDCHAR
STARTCHAR uni0545
ENCODING 1349
SWIDTH 750 0
DWIDTH 6 0
BBX 5 7 0 0
BITMAP
70
88
08
F0
08
88
70
ENDCHAR
STARTCHAR uni0546
ENCODING 1350
SWIDTH 875 0
DWIDTH 7 0
BBX 6 7 0 0
BITMAP
C0
40
40
40
44
44
38
ENDCHAR
STARTCHAR uni0547
ENCODING 1351
SWIDTH 750 0
DWIDTH 6 0
BBX 5 7 0 0
BITMAP
E0
18
60
80
80
88
70
ENDCHAR
STARTCHAR uni0548
ENCODING 1352
SWIDTH 750 0
DWIDTH 6 0
BBX 5 7 0 0
BITMAP
70
88
88
88
88
88
88
ENDCHAR
STARTCHAR uni0549
ENCODING 1353
SWIDTH 750 0
DWIDTH 6 0
BBX 5 7 0 0
BITMAP
70
88
08
08
30
C0
38
ENDCHAR
STARTCHAR uni054A
ENCODING 1354
SWIDTH 750 0
DWIDTH 6 0
BBX 5 7 0 0
BITMAP
70
A8
A8
28
28
08
08
ENDCHAR
STARTCHAR uni054B
ENCODING 1355
SWIDTH 750 0
DWIDTH 6 0
BBX 5 8 0 -1
BITMAP
70
88
88
48
10
20
F8
88
ENDCHAR
STARTCHAR uni054C
ENCODING 1356
SWIDTH 875 0
DWIDTH 7 0
BBX 6 7 0 0
BITMAP
70
88
88
88
8C
88
88
ENDCHAR
STARTCHAR uni054D
ENCODING 1357
SWIDTH 750 0
DWIDTH 6 0
BBX 5 7 0 0
BITMAP
88
88
88
88
88
88
70
ENDCHAR
STARTCHAR uni054E
ENCODING 1358
SWIDTH 875 0
DWIDTH 7 0
BBX 6 7 0 0
BITMAP
08
08
88
88
78
08
0C
ENDCHAR
STARTCHAR uni054F
ENCODING 1359
SWIDTH 750 0
DWIDTH 6 0
BBX 5 7 0 0
BITMAP
70
88
80
70
08
88
70
ENDCHAR
STARTCHAR uni0550
ENCODING 1360
SWIDTH 750 0
DWIDTH 6 0
BBX 5 7 0 0
BITMAP
70
88
88
80
80
80
80
ENDCHAR
STARTCHAR uni0551
ENCODING 1361
SWIDTH 750 0
DWIDTH 6 0
BBX 5 7 0 0
BITMAP
70
88
70
88
08
88
70
ENDCHAR
STARTCHAR uni0552
ENCODING 1362
SWIDTH 750 0
DWIDTH 6 0
BBX 5 7 0 0
BITMAP
80
80
80
F8
80
80
80
ENDCHAR
STARTCHAR uni0553
ENCODING 1363
SWIDTH 750 0
DWIDTH 6 0
BBX 5 7 0 0
BITMAP
20
70
A8
A8
A8
70
20
ENDCHAR
STARTCHAR uni0554
ENCODING 1364
SWIDTH 875 0
DWIDTH 7 0
BBX 6 8 0 -1
BITMAP
38
44
44
44
78
40
FC
40
ENDCHAR
STARTCHAR uni0555
ENCODING 1365
SWIDTH 750 0
DWIDTH 6 0
BBX 5 7 0 0
BITMAP
70
88
88
88
88
88
70
ENDCHAR
STARTCHAR uni0556
ENCODING 1366
SWIDTH 750 0
DWIDTH 6 0
BBX 5 7 0 0
BITMAP
40
A0
A0
70
28
A8
70
ENDCHAR
STARTCHAR uni0559
ENCODING 1369
SWIDTH 250 0
DWIDTH 2 0
BBX 1 2 0 5
BITMAP
80
80
ENDCHAR
STARTCHAR uni055A
ENCODING 1370
SWIDTH 250 0
DWIDTH 2 0
BBX 1 2 0 5
BITMAP
80
80
ENDCHAR
STARTCHAR uni055B
ENCODING 1371
SWIDTH 125 0
DWIDTH 1 0
BBX 2 2 0 7
BITMAP
40
80
ENDCHAR
STARTCHAR uni055C
ENCODING 1372
SWIDTH 375 0
DWIDTH 3 0
BBX 2 3 0 4
BITMAP
40
C0
80
ENDCHAR
STARTCHAR uni055D
ENCODING 1373
SWIDTH 375 0
DWIDTH 3 0
BBX 2 2 0 5
BITMAP
80
40
ENDCHAR
STARTCHAR uni055E
ENCODING 1374
SWIDTH 625 0
DWIDTH 5 0
BBX 4 3 0 4
BITMAP
60
90
A0
ENDCHAR
STARTCHAR uni055F
ENCODING 1375
SWIDTH 0 0
DWIDTH 0 0
BBX 4 2 -4 8
BITMAP
80
F0
ENDCHAR
STARTCHAR uni0560
ENCODING 1376
SWIDTH 750 0
DWIDTH 6 0
BBX 5 5 0 0
BITMAP
D0
A8
A8
A8
A8
ENDCHAR
STARTCHAR uni0561
ENCODING 1377
SWIDTH 750 0
DWIDTH 6 0
BBX 5 5 0 0
BITMAP
A8
A8
A8
A8
58
ENDCHAR
STARTCHAR uni0562
ENCODING 1378
SWIDTH 625 0
DWIDTH 5 0
BBX 4 7 0 -2
BITMAP
E0
90
80
80
F0
80
80
ENDCHAR
STARTCHAR uni0563
ENCODING 1379
SWIDTH 750 0
DWIDTH 6 0
BBX 5 7 0 -2
BITMAP
60
90
90
90
78
10
10
ENDCHAR
STARTCHAR uni0564
ENCODING 1380
SWIDTH 750 0
DWIDTH 6 0
BBX 5 7 0 -2
BITMAP
E0
90
90
90
98
10
10
ENDCHAR
STARTCHAR uni0565
ENCODING 1381
SWIDTH 625 0
DWIDTH 5 0
BBX 4 7 0 0
BITMAP
80
80
F0
80
80
90
70
ENDCHAR
STARTCHAR uni0566
ENCODING 1382
SWIDTH 625 0
DWIDTH 5 0
BBX 5 7 0 -2
BITMAP
70
90
90
90
70
10
18
ENDCHAR
STARTCHAR uni0567
ENCODING 1383
SWIDTH 625 0
DWIDTH 5 0
BBX 4 8 0 -1
BITMAP
80
80
F0
80
80
80
E0
20
ENDCHAR
STARTCHAR uni0568
ENCODING 1384
SWIDTH 625 0
DWIDTH 5 0
BBX 4 7 0 -2
BITMAP
E0
90
90
90
90
80
F0
ENDCHAR
STARTCHAR uni0569
ENCODING 1385
SWIDTH 875 0
DWIDTH 7 0
BBX 6 7 0 -2
BITMAP
F0
88
9C
A8
90
80
80
ENDCHAR
STARTCHAR uni056A
ENCODING 1386
SWIDTH 750 0
DWIDTH 6 0
BBX 5 7 0 0
BITMAP
10
10
78
90
90
90
60
ENDCHAR
STARTCHAR uni056B
ENCODING 1387
SWIDTH 625 0
DWIDTH 5 0
BBX 4 9 0 -2
BITMAP
80
80
E0
90
90
90
90
80
80
ENDCHAR
STARTCHAR uni056C
ENCODING 1388
SWIDTH 500 0
DWIDTH 4 0
BBX 3 7 0 -2
BITMAP
80
80
80
80
80
80
E0
ENDCHAR
STARTCHAR uni056D
ENCODING 1389
SWIDTH 750 0
DWIDTH 6 0
BBX 5 9 0 -2
BITMAP
80
80
80
E8
A8
A8
98
80
80
ENDCHAR
STARTCHAR uni056E
ENCODING 1390
SWIDTH 750 0
DWIDTH 6 0
BBX 5 7 0 0
BITMAP
F0
40
20
78
90
90
60
ENDCHAR
STARTCHAR uni056F
ENCODING 1391
SWIDTH 625 0
DWIDTH 5 0
BBX 4 9 0 -2
BITMAP
80
80
90
90
90
90
70
10
10
ENDCHAR
STARTCHAR uni0570
ENCODING 1392
SWIDTH 625 0
DWIDTH 5 0
BBX 4 7 0 0
BITMAP
80
80
E0
90
90
90
90
ENDCHAR
STARTCHAR uni0571
ENCODING 1393
SWIDTH 750 0
DWIDTH 6 0
BBX 5 8 0 0
BITMAP
40
78
08
10
20
50
88
78
ENDCHAR
STARTCHAR uni0572
ENCODING 1394
SWIDTH 625 0
DWIDTH 5 0
BBX 5 7 0 -2
BITMAP
E0
90
90
90
90
10
18
ENDCHAR
STARTCHAR uni0573
ENCODING 1395
SWIDTH 750 0
DWIDTH 6 0
BBX 5 7 0 0
BITMAP
08
50
20
50
88
88
78
ENDCHAR
STARTCHAR uni0574
ENCODING 1396
SWIDTH 625 0
DWIDTH 5 0
BBX 5 7 0 0
BITMAP
18
10
90
90
90
90
70
ENDCHAR
STARTCHAR uni0575
ENCODING 1397
SWIDTH 250 0
DWIDTH 2 0
BBX 2 7 -1 -2
BITMAP
40
40
40
40
40
40
80
ENDCHAR
STARTCHAR uni0576
ENCODING 1398
SWIDTH 625 0
DWIDTH 5 0
BBX 5 8 -1 0
BITMAP
80
C0
40
48
48
48
48
38
ENDCHAR
STARTCHAR uni0577
ENCODING 1399
SWIDTH 625 0
DWIDTH 5 0
BBX 4 8 0 -2
BITMAP
60
90
10
20
20
40
80
70
ENDCHAR
STARTCHAR uni0578
ENCODING 1400
SWIDTH 625 0
DWIDTH 5 0
BBX 4 5 0 0
BITMAP
E0
90
90
90
90
ENDCHAR
STARTCHAR uni0579
ENCODING 1401
SWIDTH 625 0
DWIDTH 5 0
BBX 4 7 0 -2
BITMAP
80
60
10
20
40
80
70
ENDCHAR
STARTCHAR uni057A
ENCODING 1402
SWIDTH 750 0
DWIDTH 6 0
BBX 5 7 0 -2
BITMAP
A8
A8
A8
A8
58
08
08
ENDCHAR
STARTCHAR uni057B
ENCODING 1403
SWIDTH 625 0
DWIDTH 5 0
BBX 4 8 0 -2
BITMAP
60
90
90
50
20
40
80
70
ENDCHAR
STARTCHAR uni057C
ENCODING 1404
SWIDTH 625 0
DWIDTH 5 0
BBX 4 5 0 0
BITMAP
E0
90
90
A0
B0
ENDCHAR
STARTCHAR uni057D
ENCODING 1405
SWIDTH 625 0
DWIDTH 5 0
BBX 4 5 0 0
BITMAP
90
90
90
90
70
ENDCHAR
STARTCHAR uni057E
ENCODING 1406
SWIDTH 625 0
DWIDTH 5 0
BBX 5 9 0 -2
BITMAP
10
10
90
90
90
90
70
10
18
ENDCHAR
STARTCHAR uni057F
ENCODING 1407
SWIDTH 750 0
DWIDTH 6 0
BBX 5 5 0 0
BITMAP
B0
A8
A8
A8
68
ENDCHAR
STARTCHAR uni0580
ENCODING 1408
SWIDTH 625 0
DWIDTH 5 0
BBX 4 7 0 -2
BITMAP
E0
90
90
80
80
80
80
ENDCHAR
STARTCHAR uni0581
ENCODING 1409
SWIDTH 625 0
DWIDTH 5 0
BBX 4 7 0 -2
BITMAP
70
90
90
90
70
10
E0
ENDCHAR
STARTCHAR uni0582
ENCODING 1410
SWIDTH 625 0
DWIDTH 5 0
BBX 4 5 0 0
BITMAP
80
80
80
80
F0
ENDCHAR
STARTCHAR uni0583
ENCODING 1411
SWIDTH 750 0
DWIDTH 6 0
BBX 5 9 0 -2
BITMAP
20
20
B0
A8
A8
A8
68
20
20
ENDCHAR
STARTCHAR uni0584
ENCODING 1412
SWIDTH 625 0
DWIDTH 5 0
BBX 5 8 -1 -3
BITMAP
70
48
48
48
70
40
F8
40
ENDCHAR
STARTCHAR uni0585
ENCODING 1413
SWIDTH 625 0
DWIDTH 5 0
BBX 4 5 0 0
BITMAP
60
90
90
90
60
ENDCHAR
STARTCHAR uni0586
ENCODING 1414
SWIDTH 625 0
DWIDTH 5 0
BBX 5 9 0 -2
BITMAP
40
A0
A0
70
28
A8
70
20
20
ENDCHAR
STARTCHAR uni0587
ENCODING 1415
SWIDTH 750 0
DWIDTH 6 0
BBX 5 7 0 0
BITMAP
80
80
A0
A0
A0
A0
58
ENDCHAR
STARTCHAR uni0588
ENCODING 1416
SWIDTH 500 0
DWIDTH 4 0
BBX 3 7 0 -2
BITMAP
40
40
40
40
E0
40
80
ENDCHAR
STARTCHAR uni0589
ENCODING 1417
SWIDTH 250 0
DWIDTH 2 0
BBX 1 4 0 0
BITMAP
80
00
00
80
ENDCHAR
STARTCHAR uni058A
ENCODING 1418
SWIDTH 500 0
DWIDTH 4 0
BBX 3 2 0 3
BITMAP
80
60
ENDCHAR
STARTCHAR uni058F
ENCODING 1423
SWIDTH 875 0
DWIDTH 7 0
BBX 6 7 0 0
BITMAP
70
88
88
3C
08
3C
08
ENDCHAR
STARTCHAR uni0591
ENCODING 1425
SWIDTH 0 0
DWIDTH 0 0
BBX 3 2 1 -3
BITMAP
40
A0
ENDCHAR
STARTCHAR uni0592
ENCODING 1426
SWIDTH 0 0
DWIDTH 0 0
BBX 5 2 0 7
BITMAP
20
88
ENDCHAR
STARTCHAR uni0593
ENCODING 1427
SWIDTH 0 0
DWIDTH 0 0
BBX 4 4 1 7
BITMAP
30
C0
30
C0
ENDCHAR
STARTCHAR uni0594
ENCODING 1428
SWIDTH 0 0
DWIDTH 0 0
BBX 1 3 2 7
BITMAP
80
00
80
ENDCHAR
STARTCHAR uni0595
ENCODING 1429
SWIDTH 0 0
DWIDTH 0 0
BBX 3 3 1 5
BITMAP
A0
80
A0
ENDCHAR
STARTCHAR uni0596
ENCODING 1430
SWIDTH 0 0
DWIDTH 0 0
BBX 2 2 1 -3
BITMAP
80
40
ENDCHAR
STARTCHAR uni0597
ENCODING 1431
SWIDTH 0 0
DWIDTH 0 0
BBX 3 3 1 7
BITMAP
40
E0
40
ENDCHAR
STARTCHAR uni0598
ENCODING 1432
SWIDTH 0 0
DWIDTH 0 0
BBX 5 3 1 7
BITMAP
48
A8
90
ENDCHAR
STARTCHAR uni0599
ENCODING 1433
SWIDTH 0 0
DWIDTH 0 0
BBX 2 2 -2 7
BITMAP
80
40
ENDCHAR
STARTCHAR uni059A
ENCODING 1434
SWIDTH 0 0
DWIDTH 0 0
BBX 2 3 1 -4
BITMAP
40
80
40
ENDCHAR
STARTCHAR uni059B
ENCODING 1435
SWIDTH 0 0
DWIDTH 0 0
BBX 4 2 1 -3
BITMAP
90
20
ENDCHAR
STARTCHAR uni059C
ENCODING 1436
SWIDTH 0 0
DWIDTH 0 0
BBX 2 2 1 7
BITMAP
40
80
ENDCHAR
STARTCHAR uni059D
ENCODING 1437
SWIDTH 0 0
DWIDTH 0 0
BBX 2 2 4 7
BITMAP
40
80
ENDCHAR
STARTCHAR uni059E
ENCODING 1438
SWIDTH 0 0
DWIDTH 0 0
BBX 5 2 1 7
BITMAP
48
90
ENDCHAR
STARTCHAR uni05A2
ENCODING 1442
SWIDTH 0 0
DWIDTH 0 0
BBX 3 2 1 -3
BITMAP
A0
40
ENDCHAR
STARTCHAR uni05A3
ENCODING 1443
SWIDTH 0 0
DWIDTH 0 0
BBX 2 2 1 -3
BITMAP
40
C0
ENDCHAR
STARTCHAR uni05A4
ENCODING 1444
SWIDTH 0 0
DWIDTH 0 0
BBX 2 3 1 -4
BITMAP
40
80
40
ENDCHAR
STARTCHAR uni05A5
ENCODING 1445
SWIDTH 0 0
DWIDTH 0 0
BBX 2 2 1 -3
BITMAP
40
80
ENDCHAR
STARTCHAR uni05A6
ENCODING 1446
SWIDTH 0 0
DWIDTH 0 0
BBX 5 2 1 -3
BITMAP
48
90
ENDCHAR
STARTCHAR uni05A8
ENCODING 1448
SWIDTH 0 0
DWIDTH 0 0
BBX 2 2 1 7
BITMAP
80
40
ENDCHAR
STARTCHAR uni05A9
ENCODING 1449
SWIDTH 0 0
DWIDTH 0 0
BBX 1 1 0 0
BITMAP
00
ENDCHAR
STARTCHAR uni05AA
ENCODING 1450
SWIDTH 0 0
DWIDTH 0 0
BBX 3 2 1 -3
BITMAP
A0
E0
ENDCHAR
STARTCHAR uni05AB
ENCODING 1451
SWIDTH 0 0
DWIDTH 0 0
BBX 2 3 1 7
BITMAP
40
80
40
ENDCHAR
STARTCHAR uni05AC
ENCODING 1452
SWIDTH 0 0
DWIDTH 0 0
BBX 2 2 1 7
BITMAP
40
C0
ENDCHAR
STARTCHAR uni05AD
ENCODING 1453
SWIDTH 0 0
DWIDTH 0 0
BBX 2 2 3 -3
BITMAP
80
40
ENDCHAR
STARTCHAR uni05AF
ENCODING 1455
SWIDTH 0 0
DWIDTH 0 0
BBX 3 3 1 7
BITMAP
40
A0
40
ENDCHAR
STARTCHAR uni05B0
ENCODING 1456
SWIDTH 0 0
DWIDTH 0 0
BBX 1 3 2 -4
BITMAP
80
00
80
ENDCHAR
STARTCHAR uni05B1
ENCODING 1457
SWIDTH 0 0
DWIDTH 0 0
BBX 5 3 1 -4
BITMAP
A8
00
48
ENDCHAR
STARTCHAR uni05B2
ENCODING 1458
SWIDTH 0 0
DWIDTH 0 0
BBX 5 3 1 -4
BITMAP
E8
00
08
ENDCHAR
STARTCHAR uni05B3
ENCODING 1459
SWIDTH 0 0
DWIDTH 0 0
BBX 5 3 1 -4
BITMAP
E8
40
08
ENDCHAR
STARTCHAR uni05B4
ENCODING 1460
SWIDTH 0 0
DWIDTH 0 0
BBX 1 1 2 -2
BITMAP
80
ENDCHAR
STARTCHAR uni05B5
ENCODING 1461
SWIDTH 0 0
DWIDTH 0 0
BBX 3 1 1 -2
BITMAP
A0
ENDCHAR
STARTCHAR uni05B6
ENCODING 1462
SWIDTH 0 0
DWIDTH 0 0
BBX 5 2 1 -3
BITMAP
88
20
ENDCHAR
STARTCHAR uni05B7
ENCODING 1463
SWIDTH 0 0
DWIDTH 0 0
BBX 3 1 1 -2
BITMAP
E0
ENDCHAR
STARTCHAR uni05B8
ENCODING 1464
SWIDTH 0 0
DWIDTH 0 0
BBX 3 2 1 -3
BITMAP
E0
40
ENDCHAR
STARTCHAR uni05B9
ENCODING 1465
SWIDTH 0 0
DWIDTH 0 0
BBX 1 1 0 7
BITMAP
80
ENDCHAR
STARTCHAR uni05BA
ENCODING 1466
SWIDTH 0 0
DWIDTH 0 0
BBX 2 2 -1 7
BITMAP
C0
C0
ENDCHAR
STARTCHAR uni05BB
ENCODING 1467
SWIDTH 0 0
DWIDTH 0 0
BBX 5 2 1 -3
BITMAP
A0
08
ENDCHAR
STARTCHAR uni05BC
ENCODING 1468
SWIDTH 0 0
DWIDTH 0 0
BBX 1 1 1 3
BITMAP
80
ENDCHAR
STARTCHAR uni05BD
ENCODING 1469
SWIDTH 0 0
DWIDTH 0 0
BBX 1 2 1 -3
BITMAP
80
80
ENDCHAR
STARTCHAR uni05BE
ENCODING 1470
SWIDTH 375 0
DWIDTH 3 0
BBX 2 1 1 5
BITMAP
C0
ENDCHAR
STARTCHAR uni05BF
ENCODING 1471
SWIDTH 0 0
DWIDTH 0 0
BBX 2 1 1 7
BITMAP
C0
ENDCHAR
STARTCHAR uni05C0
ENCODING 1472
SWIDTH 250 0
DWIDTH 2 0
BBX 1 6 1 0
BITMAP
80
80
80
80
80
80
ENDCHAR
STARTCHAR uni05C1
ENCODING 1473
SWIDTH 0 0
DWIDTH 0 0
BBX 1 1 4 7
BITMAP
80
ENDCHAR
STARTCHAR uni05C2
ENCODING 1474
SWIDTH 0 0
DWIDTH 0 0
BBX 1 1 0 7
BITMAP
80
ENDCHAR
STARTCHAR uni05C3
ENCODING 1475
SWIDTH 500 0
DWIDTH 4 0
BBX 3 7 1 0
BITMAP
40
E0
40
00
40
E0
40
ENDCHAR
STARTCHAR uni05C4
ENCODING 1476
SWIDTH 0 0
DWIDTH 0 0
BBX 1 1 2 7
BITMAP
80
ENDCHAR
STARTCHAR uni05C5
ENCODING 1477
SWIDTH 0 0
DWIDTH 0 0
BBX 2 2 1 -3
BITMAP
C0
C0
ENDCHAR
STARTCHAR uni05C6
ENCODING 1478
SWIDTH 500 0
DWIDTH 4 0
BBX 3 6 1 0
BITMAP
40
80
80
80
80
E0
ENDCHAR
STARTCHAR uni05C7
ENCODING 1479
SWIDTH 0 0
DWIDTH 0 0
BBX 3 2 1 -3
BITMAP
E0
40
ENDCHAR
STARTCHAR uni05D0
ENCODING 1488
SWIDTH 625 0
DWIDTH 5 0
BBX 4 6 1 0
BITMAP
90
90
50
A0
90
90
ENDCHAR
STARTCHAR uni05D1
ENCODING 1489
SWIDTH 750 0
DWIDTH 6 0
BBX 5 6 1 0
BITMAP
E0
10
10
10
10
F8
ENDCHAR
STARTCHAR uni05D2
ENCODING 1490
SWIDTH 625 0
DWIDTH 5 0
BBX 4 6 1 0
BITMAP
C0
20
20
20
50
90
ENDCHAR
STARTCHAR uni05D3
ENCODING 1491
SWIDTH 625 0
DWIDTH 5 0
BBX 4 6 1 0
BITMAP
F0
10
20
10
10
10
ENDCHAR
STARTCHAR uni05D4
ENCODING 1492
SWIDTH 625 0
DWIDTH 5 0
BBX 4 6 1 0
BITMAP
F0
10
20
10
90
90
ENDCHAR
STARTCHAR uni05D5
ENCODING 1493
SWIDTH 500 0
DWIDTH 4 0
BBX 3 6 1 0
BITMAP
C0
20
20
20
20
20
ENDCHAR
STARTCHAR uni05D6
ENCODING 1494
SWIDTH 500 0
DWIDTH 4 0
BBX 3 6 1 0
BITMAP
E0
40
40
40
40
40
ENDCHAR
STARTCHAR uni05D7
ENCODING 1495
SWIDTH 625 0
DWIDTH 5 0
BBX 4 6 1 0
BITMAP
F0
10
A0
90
90
90
ENDCHAR
STARTCHAR uni05D8
ENCODING 1496
SWIDTH 750 0
DWIDTH 6 0
BBX 5 6 1 0
BITMAP
90
A8
88
88
88
70
ENDCHAR
STARTCHAR uni05D9
ENCODING 1497
SWIDTH 250 0
DWIDTH 2 0
BBX 1 2 1 4
BITMAP
80
80
ENDCHAR
STARTCHAR uni05DA
ENCODING 1498
SWIDTH 625 0
DWIDTH 5 0
BBX 4 8 1 -2
BITMAP
F0
10
20
10
10
10
10
10
ENDCHAR
STARTCHAR uni05DB
ENCODING 1499
SWIDTH 625 0
DWIDTH 5 0
BBX 4 6 1 0
BITMAP
E0
10
10
10
10
E0
ENDCHAR
STARTCHAR uni05DC
ENCODING 1500
SWIDTH 750 0
DWIDTH 6 0
BBX 5 8 1 0
BITMAP
80
80
70
08
08
10
20
40
ENDCHAR
STARTCHAR uni05DD
ENCODING 1501
SWIDTH 750 0
DWIDTH 6 0
BBX 5 6 1 0
BITMAP
F0
08
48
88
88
F8
ENDCHAR
STARTCHAR uni05DE
ENCODING 1502
SWIDTH 750 0
DWIDTH 6 0
BBX 5 6 1 0
BITMAP
F0
48
48
88
88
B8
ENDCHAR
STARTCHAR uni05DF
ENCODING 1503
SWIDTH 375 0
DWIDTH 3 0
BBX 2 8 1 -2
BITMAP
80
40
40
40
40
40
40
40
ENDCHAR
STARTCHAR uni05E0
ENCODING 1504
SWIDTH 500 0
DWIDTH 4 0
BBX 3 6 1 0
BITMAP
40
20
20
20
20
E0
ENDCHAR
STARTCHAR uni05E1
ENCODING 1505
SWIDTH 750 0
DWIDTH 6 0
BBX 5 6 1 0
BITMAP
F0
08
88
88
88
70
ENDCHAR
STARTCHAR uni05E2
ENCODING 1506
SWIDTH 875 0
DWIDTH 7 0
BBX 6 6 1 0
BITMAP
44
44
28
28
08
F0
ENDCHAR
STARTCHAR uni05E3
ENCODING 1507
SWIDTH 625 0
DWIDTH 5 0
BBX 4 8 1 -2
BITMAP
E0
10
90
90
10
10
10
10
ENDCHAR
STARTCHAR uni05E4
ENCODING 1508
SWIDTH 625 0
DWIDTH 5 0
BBX 4 6 1 0
BITMAP
E0
10
90
90
10
E0
ENDCHAR
STARTCHAR uni05E5
ENCODING 1509
SWIDTH 750 0
DWIDTH 6 0
BBX 5 8 1 -2
BITMAP
88
88
88
40
20
20
20
20
ENDCHAR
STARTCHAR uni05E6
ENCODING 1510
SWIDTH 750 0
DWIDTH 6 0
BBX 5 6 1 0
BITMAP
88
88
40
30
08
F8
ENDCHAR
STARTCHAR uni05E7
ENCODING 1511
SWIDTH 750 0
DWIDTH 6 0
BBX 5 8 1 -2
BITMAP
F0
08
08
88
90
A0
80
80
ENDCHAR
STARTCHAR uni05E8
ENCODING 1512
SWIDTH 750 0
DWIDTH 6 0
BBX 5 6 1 0
BITMAP
F0
08
08
08
08
08
ENDCHAR
STARTCHAR uni05E9
ENCODING 1513
SWIDTH 1000 0
DWIDTH 8 0
BBX 7 6 1 0
BITMAP
92
92
94
E4
84
78
ENDCHAR
STARTCHAR uni05EA
ENCODING 1514
SWIDTH 750 0
DWIDTH 6 0
BBX 5 6 1 0
BITMAP
F0
48
48
48
48
88
ENDCHAR
STARTCHAR uni05F0
ENCODING 1520
SWIDTH 750 0
DWIDTH 6 0
BBX 5 6 1 0
BITMAP
90
48
48
48
48
48
ENDCHAR
STARTCHAR uni05F1
ENCODING 1521
SWIDTH 625 0
DWIDTH 5 0
BBX 4 6 1 0
BITMAP
A0
90
10
10
10
10
ENDCHAR
STARTCHAR uni05F2
ENCODING 1522
SWIDTH 500 0
DWIDTH 4 0
BBX 3 2 1 4
BITMAP
A0
A0
ENDCHAR
STARTCHAR uni05F3
ENCODING 1523
SWIDTH 375 0
DWIDTH 3 0
BBX 2 2 1 4
BITMAP
40
80
ENDCHAR
STARTCHAR uni05F4
ENCODING 1524
SWIDTH 750 0
DWIDTH 6 0
BBX 5 2 1 4
BITMAP
48
90
ENDCHAR
STARTCHAR uni060C
ENCODING 1548
SWIDTH 375 0
DWIDTH 3 0
BBX 1 2 1 0
BITMAP
80
80
ENDCHAR
STARTCHAR uni061B
ENCODING 1563
SWIDTH 375 0
DWIDTH 3 0
BBX 1 5 1 0
BITMAP
80
80
00
00
80
ENDCHAR
STARTCHAR uni061E
ENCODING 1566
SWIDTH 625 0
DWIDTH 5 0
BBX 3 3 1 0
BITMAP
40
00
A0
ENDCHAR
STARTCHAR uni061F
ENCODING 1567
SWIDTH 750 0
DWIDTH 6 0
BBX 5 7 1 0
BITMAP
70
88
80
60
20
00
20
ENDCHAR
STARTCHAR uni0621
ENCODING 1569
SWIDTH 500 0
DWIDTH 4 0
BBX 3 3 1 0
BITMAP
60
80
E0
ENDCHAR
STARTCHAR uni0622
ENCODING 1570
SWIDTH 250 0
DWIDTH 2 0
BBX 4 10 -1 0
BITMAP
50
A0
00
20
20
20
20
20
20
20
ENDCHAR
STARTCHAR uni0623
ENCODING 1571
SWIDTH 250 0
DWIDTH 2 0
BBX 3 11 0 0
BITMAP
60
80
E0
00
40
40
40
40
40
40
40
ENDCHAR
STARTCHAR uni0624
ENCODING 1572
SWIDTH 625 0
DWIDTH 5 0
BBX 4 11 1 -3
BITMAP
60
80
E0
00
60
90
90
70
10
20
C0
ENDCHAR
STARTCHAR uni0625
ENCODING 1573
SWIDTH 250 0
DWIDTH 2 0
BBX 3 11 0 -4
BITMAP
40
40
40
40
40
40
40
00
60
80
E0
ENDCHAR
STARTCHAR uni0626
ENCODING 1574
SWIDTH 1125 0
DWIDTH 9 0
BBX 8 7 1 0
BITMAP
60
80
E0
06
49
44
38
ENDCHAR
STARTCHAR uni0627
ENCODING 1575
SWIDTH 250 0
DWIDTH 2 0
BBX 1 7 1 0
BITMAP
80
80
80
80
80
80
80
ENDCHAR
STARTCHAR uni0628
ENCODING 1576
SWIDTH 1000 0
DWIDTH 8 0
BBX 7 5 1 -2
BITMAP
02
82
7C
00
10
ENDCHAR
STARTCHAR uni0629
ENCODING 1577
SWIDTH 750 0
DWIDTH 6 0
BBX 5 7 1 0
BITMAP
50
00
20
50
88
88
70
ENDCHAR
STARTCHAR uni062A
ENCODING 1578
SWIDTH 1000 0
DWIDTH 8 0
BBX 7 5 1 0
BITMAP
28
00
02
82
7C
ENDCHAR
STARTCHAR uni062B
ENCODING 1579
SWIDTH 1000 0
DWIDTH 8 0
BBX 7 7 1 0
BITMAP
10
00
28
00
02
82
7C
ENDCHAR
STARTCHAR uni062C
ENCODING 1580
SWIDTH 750 0
DWIDTH 6 0
BBX 5 7 1 -3
BITMAP
E0
18
60
80
A0
80
70
ENDCHAR
STARTCHAR uni062D
ENCODING 1581
SWIDTH 750 0
DWIDTH 6 0
BBX 5 7 1 -3
BITMAP
E0
18
60
80
80
80
70
ENDCHAR
STARTCHAR uni062E
ENCODING 1582
SWIDTH 750 0
DWIDTH 6 0
BBX 5 9 1 -3
BITMAP
20
00
E0
18
60
80
80
80
70
ENDCHAR
STARTCHAR uni062F
ENCODING 1583
SWIDTH 625 0
DWIDTH 5 0
BBX 4 5 1 0
BITMAP
40
20
10
10
E0
ENDCHAR
STARTCHAR uni0630
ENCODING 1584
SWIDTH 625 0
DWIDTH 5 0
BBX 4 7 1 0
BITMAP
40
00
40
20
10
10
E0
ENDCHAR
STARTCHAR uni0631
ENCODING 1585
SWIDTH 625 0
DWIDTH 5 0
BBX 4 5 1 -3
BITMAP
10
10
10
20
C0
ENDCHAR
STARTCHAR uni0632
ENCODING 1586
SWIDTH 625 0
DWIDTH 5 0
BBX 4 7 1 -3
BITMAP
10
00
10
10
10
20
C0
ENDCHAR
STARTCHAR uni0633
ENCODING 1587
SWIDTH 1375 0
DWIDTH 11 0
BBX 10 5 1 -2
BITMAP
0040
1240
9D80
9000
6000
ENDCHAR
STARTCHAR uni0634
ENCODING 1588
SWIDTH 1375 0
DWIDTH 11 0
BBX 10 8 1 -2
BITMAP
0200
0000
0500
0040
1240
9D80
9000
6000
ENDCHAR
STARTCHAR uni0635
ENCODING 1589
SWIDTH 1375 0
DWIDTH 11 0
BBX 10 6 1 -2
BITMAP
0180
0240
1440
9F80
9000
6000
ENDCHAR
STARTCHAR uni0636
ENCODING 1590
SWIDTH 1375 0
DWIDTH 11 0
BBX 10 7 1 -2
BITMAP
0400
0180
0240
1440
9F80
9000
6000
ENDCHAR
STARTCHAR uni0637
ENCODING 1591
SWIDTH 875 0
DWIDTH 7 0
BBX 6 7 1 0
BITMAP
40
40
40
58
64
44
F8
ENDCHAR
STARTCHAR uni0638
ENCODING 1592
SWIDTH 875 0
DWIDTH 7 0
BBX 6 7 1 0
BITMAP
40
50
40
58
64
44
F8
ENDCHAR
STARTCHAR uni0639
ENCODING 1593
SWIDTH 625 0
DWIDTH 5 0
BBX 4 7 1 -3
BITMAP
70
80
40
70
80
80
70
ENDCHAR
STARTCHAR uni063A
ENCODING 1594
SWIDTH 625 0
DWIDTH 5 0
BBX 4 9 1 -3
BITMAP
20
00
70
80
40
70
80
80
70
ENDCHAR
STARTCHAR uni0640
ENCODING 1600
SWIDTH 125 0
DWIDTH 1 0
BBX 1 1 0 0
BITMAP
80
ENDCHAR
STARTCHAR uni0641
ENCODING 1601
SWIDTH 1125 0
DWIDTH 9 0
BBX 8 6 1 0
BITMAP
04
00
06
09
89
7E
ENDCHAR
STARTCHAR uni0642
ENCODING 1602
SWIDTH 875 0
DWIDTH 7 0
BBX 6 9 1 -3
BITMAP
28
00
18
24
24
9C
84
84
78
ENDCHAR
STARTCHAR uni0643
ENCODING 1603
SWIDTH 875 0
DWIDTH 7 0
BBX 6 7 1 0
BITMAP
04
14
24
14
24
84
78
ENDCHAR
STARTCHAR uni0644
ENCODING 1604
SWIDTH 750 0
DWIDTH 6 0
BBX 5 9 1 -2
BITMAP
08
08
08
08
08
88
88
88
70
ENDCHAR
STARTCHAR uni0645
ENCODING 1605
SWIDTH 750 0
DWIDTH 6 0
BBX 5 7 1 -3
BITMAP
30
48
48
B0
80
80
80
ENDCHAR
STARTCHAR uni0646
ENCODING 1606
SWIDTH 750 0
DWIDTH 6 0
BBX 5 7 1 -2
BITMAP
20
00
08
88
88
88
70
ENDCHAR
STARTCHAR uni0647
ENCODING 1607
SWIDTH 750 0
DWIDTH 6 0
BBX 5 5 1 0
BITMAP
20
50
88
88
70
ENDCHAR
STARTCHAR uni0648
ENCODING 1608
SWIDTH 625 0
DWIDTH 5 0
BBX 4 7 1 -3
BITMAP
60
90
90
70
10
20
C0
ENDCHAR
STARTCHAR uni0649
ENCODING 1609
SWIDTH 1000 0
DWIDTH 8 0
BBX 7 4 1 0
BITMAP
0C
92
88
70
ENDCHAR
STARTCHAR uni064A
ENCODING 1610
SWIDTH 1000 0
DWIDTH 8 0
BBX 7 6 1 -2
BITMAP
0C
92
88
70
00
50
ENDCHAR
STARTCHAR uni064B
ENCODING 1611
SWIDTH 0 0
DWIDTH 0 0
BBX 3 3 1 8
BITMAP
E0
00
E0
ENDCHAR
STARTCHAR uni064C
ENCODING 1612
SWIDTH 0 0
DWIDTH 0 0
BBX 6 3 1 8
BITMAP
08
54
B8
ENDCHAR
STARTCHAR uni064D
ENCODING 1613
SWIDTH 0 0
DWIDTH 0 0
BBX 3 3 1 -4
BITMAP
E0
00
E0
ENDCHAR
STARTCHAR uni064E
ENCODING 1614
SWIDTH 0 0
DWIDTH 0 0
BBX 3 1 0 8
BITMAP
E0
ENDCHAR
STARTCHAR uni064F
ENCODING 1615
SWIDTH 0 0
DWIDTH 0 0
BBX 4 3 1 8
BITMAP
20
50
E0
ENDCHAR
STARTCHAR uni0650
ENCODING 1616
SWIDTH 0 0
DWIDTH 0 0
BBX 3 1 1 -2
BITMAP
E0
ENDCHAR
STARTCHAR uni0651
ENCODING 1617
SWIDTH 0 0
DWIDTH 0 0
BBX 5 2 1 8
BITMAP
A8
50
ENDCHAR
STARTCHAR uni0652
ENCODING 1618
SWIDTH 0 0
DWIDTH 0 0
BBX 3 3 1 8
BITMAP
40
A0
40
ENDCHAR
STARTCHAR uni0653
ENCODING 1619
SWIDTH 0 0
DWIDTH 0 0
BBX 4 2 0 8
BITMAP
50
A0
ENDCHAR
STARTCHAR uni0654
ENCODING 1620
SWIDTH 0 0
DWIDTH 0 0
BBX 3 3 0 8
BITMAP
60
80
E0
ENDCHAR
STARTCHAR uni0655
ENCODING 1621
SWIDTH 0 0
DWIDTH 0 0
BBX 3 3 0 -4
BITMAP
60
80
E0
ENDCHAR
STARTCHAR uni0656
ENCODING 1622
SWIDTH 0 0
DWIDTH 0 0
BBX 1 2 2 -3
BITMAP
80
80
ENDCHAR
STARTCHAR uni0657
ENCODING 1623
SWIDTH 0 0
DWIDTH 0 0
BBX 4 3 0 8
BITMAP
70
A0
40
ENDCHAR
STARTCHAR uni0658
ENCODING 1624
SWIDTH 0 0
DWIDTH 0 0
BBX 3 3 0 8
BITMAP
20
A0
40
ENDCHAR
STARTCHAR uni0659
ENCODING 1625
SWIDTH 0 0
DWIDTH 0 0
BBX 4 1 0 8
BITMAP
F0
ENDCHAR
STARTCHAR uni065A
ENCODING 1626
SWIDTH 0 0
DWIDTH 0 0
BBX 1 1 0 0
BITMAP
00
ENDCHAR
STARTCHAR uni065B
ENCODING 1627
SWIDTH 0 0
DWIDTH 0 0
BBX 1 1 0 0
BITMAP
00
ENDCHAR
STARTCHAR uni065C
ENCODING 1628
SWIDTH 0 0
DWIDTH 0 0
BBX 1 1 2 -2
BITMAP
80
ENDCHAR
STARTCHAR uni065D
ENCODING 1629
SWIDTH 0 0
DWIDTH 0 0
BBX 1 1 0 0
BITMAP
00
ENDCHAR
STARTCHAR uni065E
ENCODING 1630
SWIDTH 0 0
DWIDTH 0 0
BBX 1 1 0 0
BITMAP
00
ENDCHAR
STARTCHAR uni065F
ENCODING 1631
SWIDTH 0 0
DWIDTH 0 0
BBX 1 1 0 0
BITMAP
00
ENDCHAR
STARTCHAR uni0660
ENCODING 1632
SWIDTH 750 0
DWIDTH 6 0
BBX 2 2 2 3
BITMAP
C0
C0
ENDCHAR
STARTCHAR uni0661
ENCODING 1633
SWIDTH 750 0
DWIDTH 6 0
BBX 1 7 3 0
BITMAP
80
80
80
80
80
80
80
ENDCHAR
STARTCHAR uni0662
ENCODING 1634
SWIDTH 750 0
DWIDTH 6 0
BBX 4 7 1 0
BITMAP
90
90
E0
80
80
80
80
ENDCHAR
STARTCHAR uni0663
ENCODING 1635
SWIDTH 750 0
DWIDTH 6 0
BBX 5 7 1 0
BITMAP
A8
A8
D0
80
80
80
80
ENDCHAR
STARTCHAR uni0664
ENCODING 1636
SWIDTH 750 0
DWIDTH 6 0
BBX 4 7 1 0
BITMAP
70
80
80
70
80
80
70
ENDCHAR
STARTCHAR uni0665
ENCODING 1637
SWIDTH 750 0
DWIDTH 6 0
BBX 4 5 1 1
BITMAP
60
90
90
90
60
ENDCHAR
STARTCHAR uni0666
ENCODING 1638
SWIDTH 750 0
DWIDTH 6 0
BBX 4 7 1 0
BITMAP
F0
10
10
10
10
10
10
ENDCHAR
STARTCHAR uni0667
ENCODING 1639
SWIDTH 750 0
DWIDTH 6 0
BBX 5 7 1 0
BITMAP
88
88
50
50
50
20
20
ENDCHAR
STARTCHAR uni0668
ENCODING 1640
SWIDTH 750 0
DWIDTH 6 0
BBX 5 7 1 0
BITMAP
20
20
50
50
50
88
88
ENDCHAR
STARTCHAR uni0669
ENCODING 1641
SWIDTH 750 0
DWIDTH 6 0
BBX 4 7 1 0
BITMAP
60
90
90
70
10
10
10
ENDCHAR
STARTCHAR uni066E
ENCODING 1646
SWIDTH 1000 0
DWIDTH 8 0
BBX 7 3 1 0
BITMAP
02
82
7C
ENDCHAR
STARTCHAR uni066F
ENCODING 1647
SWIDTH 875 0
DWIDTH 7 0
BBX 6 7 1 -3
BITMAP
18
24
24
9C
84
84
78
ENDCHAR
STARTCHAR uni0670
ENCODING 1648
SWIDTH 0 0
DWIDTH 0 0
BBX 1 2 2 8
BITMAP
80
80
ENDCHAR
STARTCHAR uni0671
ENCODING 1649
SWIDTH 625 0
DWIDTH 5 0
BBX 4 11 1 0
BITMAP
20
D0
20
00
20
20
20
20
20
20
20
ENDCHAR
STARTCHAR uni0672
ENCODING 1650
SWIDTH 500 0
DWIDTH 4 0
BBX 3 11 1 0
BITMAP
60
80
E0
00
40
40
40
40
40
40
40
ENDCHAR
STARTCHAR uni0673
ENCODING 1651
SWIDTH 500 0
DWIDTH 4 0
BBX 3 11 1 -4
BITMAP
40
40
40
40
40
40
40
00
60
80
E0
ENDCHAR
STARTCHAR uni0675
ENCODING 1653
SWIDTH 625 0
DWIDTH 5 0
BBX 4 11 1 0
BITMAP
30
40
70
00
80
80
80
80
80
80
80
ENDCHAR
STARTCHAR uni0676
ENCODING 1654
SWIDTH 750 0
DWIDTH 6 0
BBX 5 11 1 -3
BITMAP
18
20
38
00
60
90
90
70
10
20
C0
ENDCHAR
STARTCHAR uni0677
ENCODING 1655
SWIDTH 1125 0
DWIDTH 9 0
BBX 8 11 1 -3
BITMAP
23
54
E7
00
0C
12
12
0E
02
04
18
ENDCHAR
STARTCHAR uni0678
ENCODING 1656
SWIDTH 1125 0
DWIDTH 9 0
BBX 8 8 1 0
BITMAP
03
04
07
00
0C
92
88
70
ENDCHAR
STARTCHAR uni0679
ENCODING 1657
SWIDTH 1000 0
DWIDTH 8 0
BBX 7 9 1 0
BITMAP
20
20
30
28
70
00
02
82
7C
ENDCHAR
STARTCHAR uni067A
ENCODING 1658
SWIDTH 1000 0
DWIDTH 8 0
BBX 7 7 1 0
BITMAP
10
00
10
00
02
82
7C
ENDCHAR
STARTCHAR uni067B
ENCODING 1659
SWIDTH 1000 0
DWIDTH 8 0
BBX 7 7 1 -4
BITMAP
02
82
7C
00
10
00
10
ENDCHAR
STARTCHAR uni067C
ENCODING 1660
SWIDTH 1000 0
DWIDTH 8 0
BBX 7 8 1 -3
BITMAP
28
00
02
82
7C
10
28
10
ENDCHAR
STARTCHAR uni067D
ENCODING 1661
SWIDTH 1000 0
DWIDTH 8 0
BBX 7 7 1 0
BITMAP
28
00
10
00
02
82
7C
ENDCHAR
STARTCHAR uni067E
ENCODING 1662
SWIDTH 1000 0
DWIDTH 8 0
BBX 7 7 1 -4
BITMAP
02
82
7C
00
28
00
10
ENDCHAR
STARTCHAR uni067F
ENCODING 1663
SWIDTH 1000 0
DWIDTH 8 0
BBX 7 7 1 0
BITMAP
28
00
28
00
02
82
7C
ENDCHAR
STARTCHAR uni0680
ENCODING 1664
SWIDTH 1000 0
DWIDTH 8 0
BBX 7 7 1 -4
BITMAP
02
82
7C
00
28
00
28
ENDCHAR
STARTCHAR uni0681
ENCODING 1665
SWIDTH 750 0
DWIDTH 6 0
BBX 5 11 1 -3
BITMAP
30
40
70
00
E0
18
60
80
80
80
70
ENDCHAR
STARTCHAR uni0682
ENCODING 1666
SWIDTH 750 0
DWIDTH 6 0
BBX 5 11 1 -3
BITMAP
20
00
20
00
E0
18
60
80
80
80
70
ENDCHAR
STARTCHAR uni0683
ENCODING 1667
SWIDTH 750 0
DWIDTH 6 0
BBX 5 7 1 -3
BITMAP
E0
18
60
80
A8
80
70
ENDCHAR
STARTCHAR uni0684
ENCODING 1668
SWIDTH 750 0
DWIDTH 6 0
BBX 5 7 1 -3
BITMAP
E0
18
60
80
90
80
50
ENDCHAR
STARTCHAR uni0685
ENCODING 1669
SWIDTH 750 0
DWIDTH 6 0
BBX 5 11 1 -3
BITMAP
20
00
50
00
E0
18
60
80
80
80
70
ENDCHAR
STARTCHAR uni0686
ENCODING 1670
SWIDTH 750 0
DWIDTH 6 0
BBX 5 7 1 -3
BITMAP
E0
18
60
80
A8
80
70
ENDCHAR
STARTCHAR uni0687
ENCODING 1671
SWIDTH 875 0
DWIDTH 7 0
BBX 6 7 1 -3
BITMAP
70
0C
70
80
94
80
54
ENDCHAR
STARTCHAR uni0688
ENCODING 1672
SWIDTH 625 0
DWIDTH 5 0
BBX 4 11 1 0
BITMAP
40
40
60
50
E0
00
40
20
10
10
E0
ENDCHAR
STARTCHAR uni0689
ENCODING 1673
SWIDTH 625 0
DWIDTH 5 0
BBX 4 8 1 -3
BITMAP
40
20
10
10
E0
40
A0
40
ENDCHAR
STARTCHAR uni068A
ENCODING 1674
SWIDTH 625 0
DWIDTH 5 0
BBX 4 9 1 0
BITMAP
40
00
40
00
40
20
10
10
E0
ENDCHAR
STARTCHAR uni068B
ENCODING 1675
SWIDTH 625 0
DWIDTH 5 0
BBX 4 11 1 0
BITMAP
40
40
60
50
E0
00
40
20
10
10
E0
ENDCHAR
STARTCHAR uni068C
ENCODING 1676
SWIDTH 625 0
DWIDTH 5 0
BBX 4 7 1 0
BITMAP
A0
00
40
20
10
10
E0
ENDCHAR
STARTCHAR uni068D
ENCODING 1677
SWIDTH 625 0
DWIDTH 5 0
BBX 4 7 1 -2
BITMAP
40
20
10
10
E0
00
A0
ENDCHAR
STARTCHAR uni068E
ENCODING 1678
SWIDTH 625 0
DWIDTH 5 0
BBX 4 9 1 0
BITMAP
40
00
A0
00
40
20
10
10
E0
ENDCHAR
STARTCHAR uni068F
ENCODING 1679
SWIDTH 625 0
DWIDTH 5 0
BBX 4 9 1 0
BITMAP
A0
00
40
00
40
20
10
10
E0
ENDCHAR
STARTCHAR uni0690
ENCODING 1680
SWIDTH 625 0
DWIDTH 5 0
BBX 4 9 1 0
BITMAP
A0
00
A0
00
40
20
10
10
E0
ENDCHAR
STARTCHAR uni0691
ENCODING 1681
SWIDTH 750 0
DWIDTH 6 0
BBX 5 11 1 -3
BITMAP
20
20
30
28
70
00
10
10
10
20
C0
ENDCHAR
STARTCHAR uni0692
ENCODING 1682
SWIDTH 750 0
DWIDTH 6 0
BBX 5 9 1 -3
BITMAP
28
00
10
00
10
10
10
20
C0
ENDCHAR
STARTCHAR uni0693
ENCODING 1683
SWIDTH 750 0
DWIDTH 6 0
BBX 5 5 1 -3
BITMAP
10
10
10
28
D0
ENDCHAR
STARTCHAR uni0694
ENCODING 1684
SWIDTH 750 0
DWIDTH 6 0
BBX 5 5 1 -3
BITMAP
10
10
10
20
C8
ENDCHAR
STARTCHAR uni0695
ENCODING 1685
SWIDTH 875 0
DWIDTH 7 0
BBX 6 7 1 -5
BITMAP
10
10
10
20
C0
14
08
ENDCHAR
STARTCHAR uni0696
ENCODING 1686
SWIDTH 625 0
DWIDTH 5 0
BBX 4 6 1 -4
BITMAP
10
50
10
20
C0
10
ENDCHAR
STARTCHAR uni0698
ENCODING 1688
SWIDTH 750 0
DWIDTH 6 0
BBX 5 9 1 -3
BITMAP
10
00
28
00
10
10
10
20
C0
ENDCHAR
STARTCHAR uni0699
ENCODING 1689
SWIDTH 750 0
DWIDTH 6 0
BBX 5 9 1 -3
BITMAP
28
00
28
00
10
10
10
20
C0
ENDCHAR
STARTCHAR uni069A
ENCODING 1690
SWIDTH 1375 0
DWIDTH 11 0
BBX 10 7 1 -2
BITMAP
0200
0000
0040
1240
9D80
9000
6200
ENDCHAR
STARTCHAR uni069B
ENCODING 1691
SWIDTH 1375 0
DWIDTH 11 0
BBX 10 7 1 -4
BITMAP
0040
1240
9D80
9000
6500
0000
0200
ENDCHAR
STARTCHAR uni069C
ENCODING 1692
SWIDTH 1375 0
DWIDTH 11 0
BBX 10 10 1 -4
BITMAP
0200
0000
0500
0040
1240
9D80
9000
6500
0000
0200
ENDCHAR
STARTCHAR uni069D
ENCODING 1693
SWIDTH 1375 0
DWIDTH 11 0
BBX 10 8 1 -4
BITMAP
0180
0240
1440
9F80
9000
6500
0000
0200
ENDCHAR
STARTCHAR uni06A0
ENCODING 1696
SWIDTH 625 0
DWIDTH 5 0
BBX 4 11 1 -3
BITMAP
20
00
50
00
70
80
40
70
80
80
70
ENDCHAR
STARTCHAR uni06A2
ENCODING 1698
SWIDTH 1125 0
DWIDTH 9 0
BBX 8 6 1 -2
BITMAP
06
09
89
7E
00
04
ENDCHAR
STARTCHAR uni06A3
ENCODING 1699
SWIDTH 1000 0
DWIDTH 8 0
BBX 1 1 0 0
BITMAP
00
ENDCHAR
STARTCHAR uni06A4
ENCODING 1700
SWIDTH 1125 0
DWIDTH 9 0
BBX 8 8 1 0
BITMAP
04
00
0A
00
06
09
89
7E
ENDCHAR
STARTCHAR uni06A5
ENCODING 1701
SWIDTH 1125 0
DWIDTH 9 0
BBX 8 8 1 -4
BITMAP
06
09
89
7E
00
0A
00
04
ENDCHAR
STARTCHAR uni06A6
ENCODING 1702
SWIDTH 1125 0
DWIDTH 9 0
BBX 8 8 1 0
BITMAP
0A
00
0A
00
06
09
89
7E
ENDCHAR
STARTCHAR uni06A7
ENCODING 1703
SWIDTH 875 0
DWIDTH 7 0
BBX 6 9 1 -3
BITMAP
10
00
18
24
24
9C
84
84
78
ENDCHAR
STARTCHAR uni06A8
ENCODING 1704
SWIDTH 875 0
DWIDTH 7 0
BBX 6 11 1 -3
BITMAP
10
00
28
00
18
24
24
9C
84
84
78
ENDCHAR
STARTCHAR uni06A9
ENCODING 1705
SWIDTH 875 0
DWIDTH 7 0
BBX 6 6 1 0
BITMAP
04
08
10
08
84
78
ENDCHAR
STARTCHAR uni06AA
ENCODING 1706
SWIDTH 1125 0
DWIDTH 9 0
BBX 8 5 1 0
BITMAP
20
40
3E
01
FE
ENDCHAR
STARTCHAR uni06AB
ENCODING 1707
SWIDTH 875 0
DWIDTH 7 0
BBX 6 6 1 0
BITMAP
04
08
14
08
84
78
ENDCHAR
STARTCHAR uni06AC
ENCODING 1708
SWIDTH 875 0
DWIDTH 7 0
BBX 6 7 1 0
BITMAP
44
14
24
14
24
84
78
ENDCHAR
STARTCHAR uni06AD
ENCODING 1709
SWIDTH 875 0
DWIDTH 7 0
BBX 6 10 1 0
BITMAP
20
00
50
04
14
24
14
24
84
78
ENDCHAR
STARTCHAR uni06AF
ENCODING 1711
SWIDTH 875 0
DWIDTH 7 0
BBX 6 7 1 0
BITMAP
10
24
48
10
08
84
78
ENDCHAR
STARTCHAR uni06B0
ENCODING 1712
SWIDTH 875 0
DWIDTH 7 0
BBX 6 7 1 0
BITMAP
10
24
48
14
08
84
78
ENDCHAR
STARTCHAR uni06B1
ENCODING 1713
SWIDTH 875 0
DWIDTH 7 0
BBX 6 8 1 0
BITMAP
28
00
24
48
10
08
84
78
ENDCHAR
STARTCHAR uni06B2
ENCODING 1714
SWIDTH 1000 0
DWIDTH 8 0
BBX 1 1 0 0
BITMAP
00
ENDCHAR
STARTCHAR uni06B3
ENCODING 1715
SWIDTH 875 0
DWIDTH 7 0
BBX 6 11 1 -4
BITMAP
10
24
48
10
08
84
78
00
10
00
10
ENDCHAR
STARTCHAR uni06B5
ENCODING 1717
SWIDTH 875 0
DWIDTH 7 0
BBX 6 12 1 -2
BITMAP
14
08
00
08
08
08
08
08
88
88
88
70
ENDCHAR
STARTCHAR uni06B6
ENCODING 1718
SWIDTH 750 0
DWIDTH 6 0
BBX 5 11 1 -2
BITMAP
08
00
08
08
08
08
08
88
88
88
70
ENDCHAR
STARTCHAR uni06B7
ENCODING 1719
SWIDTH 875 0
DWIDTH 7 0
BBX 6 13 1 -2
BITMAP
08
00
14
00
08
08
08
08
08
88
88
88
70
ENDCHAR
STARTCHAR uni06B8
ENCODING 1720
SWIDTH 1000 0
DWIDTH 8 0
BBX 1 1 0 0
BITMAP
00
ENDCHAR
STARTCHAR uni06BA
ENCODING 1722
SWIDTH 750 0
DWIDTH 6 0
BBX 5 5 1 -2
BITMAP
08
88
88
88
70
ENDCHAR
STARTCHAR uni06BB
ENCODING 1723
SWIDTH 750 0
DWIDTH 6 0
BBX 5 11 1 -2
BITMAP
40
40
60
50
E0
00
08
88
88
88
70
ENDCHAR
STARTCHAR uni06BC
ENCODING 1724
SWIDTH 750 0
DWIDTH 6 0
BBX 5 10 1 -5
BITMAP
20
00
08
88
88
88
70
20
50
20
ENDCHAR
STARTCHAR uni06BD
ENCODING 1725
SWIDTH 750 0
DWIDTH 6 0
BBX 5 9 1 -2
BITMAP
20
00
50
00
08
88
88
88
70
ENDCHAR
STARTCHAR uni06BE
ENCODING 1726
SWIDTH 750 0
DWIDTH 6 0
BBX 6 6 0 0
BITMAP
10
28
54
54
24
D8
ENDCHAR
STARTCHAR uni06C0
ENCODING 1728
SWIDTH 750 0
DWIDTH 6 0
BBX 5 9 1 0
BITMAP
30
40
70
00
20
50
88
88
70
ENDCHAR
STARTCHAR uni06C1
ENCODING 1729
SWIDTH 750 0
DWIDTH 6 0
BBX 5 5 1 0
BITMAP
20
50
88
88
70
ENDCHAR
STARTCHAR uni06C2
ENCODING 1730
SWIDTH 750 0
DWIDTH 6 0
BBX 5 9 1 0
BITMAP
30
40
70
00
20
50
88
88
70
ENDCHAR
STARTCHAR uni06C3
ENCODING 1731
SWIDTH 750 0
DWIDTH 6 0
BBX 5 7 1 0
BITMAP
50
00
20
50
88
88
70
ENDCHAR
STARTCHAR uni06C4
ENCODING 1732
SWIDTH 625 0
DWIDTH 5 0
BBX 4 8 1 -4
BITMAP
60
90
90
70
10
30
50
E0
ENDCHAR
STARTCHAR uni06C5
ENCODING 1733
SWIDTH 625 0
DWIDTH 5 0
BBX 4 8 1 -4
BITMAP
60
90
90
70
10
F0
10
E0
ENDCHAR
STARTCHAR uni06C6
ENCODING 1734
SWIDTH 625 0
DWIDTH 5 0
BBX 4 10 1 -3
BITMAP
A0
40
00
60
90
90
70
10
20
C0
ENDCHAR
STARTCHAR uni06C7
ENCODING 1735
SWIDTH 625 0
DWIDTH 5 0
BBX 4 11 1 -3
BITMAP
20
50
E0
00
60
90
90
70
10
20
C0
ENDCHAR
STARTCHAR uni06C8
ENCODING 1736
SWIDTH 625 0
DWIDTH 5 0
BBX 4 10 1 -3
BITMAP
40
40
00
60
90
90
70
10
20
C0
ENDCHAR
STARTCHAR uni06C9
ENCODING 1737
SWIDTH 625 0
DWIDTH 5 0
BBX 4 10 1 -3
BITMAP
40
A0
00
60
90
90
70
10
20
C0
ENDCHAR
STARTCHAR uni06CA
ENCODING 1738
SWIDTH 625 0
DWIDTH 5 0
BBX 4 9 1 -3
BITMAP
A0
00
60
90
90
70
10
20
C0
ENDCHAR
STARTCHAR uni06CB
ENCODING 1739
SWIDTH 625 0
DWIDTH 5 0
BBX 4 11 1 -3
BITMAP
40
00
A0
00
60
90
90
70
10
20
C0
ENDCHAR
STARTCHAR uni06CC
ENCODING 1740
SWIDTH 1000 0
DWIDTH 8 0
BBX 7 4 1 0
BITMAP
0C
92
88
70
ENDCHAR
STARTCHAR uni06CD
ENCODING 1741
SWIDTH 1125 0
DWIDTH 9 0
BBX 8 4 1 0
BITMAP
06
C9
44
38
ENDCHAR
STARTCHAR uni06CE
ENCODING 1742
SWIDTH 1000 0
DWIDTH 8 0
BBX 7 6 1 0
BITMAP
50
20
0C
92
88
70
ENDCHAR
STARTCHAR uni06D0
ENCODING 1744
SWIDTH 1000 0
DWIDTH 8 0
BBX 7 8 1 -4
BITMAP
0C
92
88
70
00
20
00
20
ENDCHAR
STARTCHAR uni06D2
ENCODING 1746
SWIDTH 875 0
DWIDTH 7 0
BBX 6 4 1 0
BITMAP
10
68
80
7C
ENDCHAR
STARTCHAR uni06D3
ENCODING 1747
SWIDTH 875 0
DWIDTH 7 0
BBX 6 8 1 0
BITMAP
30
40
70
00
10
68
80
7C
ENDCHAR
STARTCHAR uni06D4
ENCODING 1748
SWIDTH 500 0
DWIDTH 4 0
BBX 3 1 1 0
BITMAP
E0
ENDCHAR
STARTCHAR uni06D5
ENCODING 1749
SWIDTH 750 0
DWIDTH 6 0
BBX 5 5 1 0
BITMAP
20
50
88
88
70
ENDCHAR
STARTCHAR uni06D6
ENCODING 1750
SWIDTH 0 0
DWIDTH 0 0
BBX 1 1 0 0
BITMAP
00
ENDCHAR
STARTCHAR uni06D7
ENCODING 1751
SWIDTH 0 0
DWIDTH 0 0
BBX 1 1 0 0
BITMAP
00
ENDCHAR
STARTCHAR uni06D8
ENCODING 1752
SWIDTH 0 0
DWIDTH 0 0
BBX 1 1 0 0
BITMAP
00
ENDCHAR
STARTCHAR uni06D9
ENCODING 1753
SWIDTH 0 0
DWIDTH 0 0
BBX 1 1 0 0
BITMAP
00
ENDCHAR
STARTCHAR uni06DA
ENCODING 1754
SWIDTH 0 0
DWIDTH 0 0
BBX 1 1 0 0
BITMAP
00
ENDCHAR
STARTCHAR uni06DB
ENCODING 1755
SWIDTH 0 0
DWIDTH 0 0
BBX 1 1 0 0
BITMAP
00
ENDCHAR
STARTCHAR uni06DC
ENCODING 1756
SWIDTH 0 0
DWIDTH 0 0
BBX 1 1 0 0
BITMAP
00
ENDCHAR
STARTCHAR uni06DF
ENCODING 1759
SWIDTH 0 0
DWIDTH 0 0
BBX 3 3 0 8
BITMAP
40
A0
40
ENDCHAR
STARTCHAR uni06E0
ENCODING 1760
SWIDTH 0 0
DWIDTH 0 0
BBX 1 1 0 0
BITMAP
00
ENDCHAR
STARTCHAR uni06E1
ENCODING 1761
SWIDTH 0 0
DWIDTH 0 0
BBX 1 1 0 0
BITMAP
00
ENDCHAR
STARTCHAR uni06E2
ENCODING 1762
SWIDTH 0 0
DWIDTH 0 0
BBX 1 1 0 0
BITMAP
00
ENDCHAR
STARTCHAR uni06E3
ENCODING 1763
SWIDTH 0 0
DWIDTH 0 0
BBX 1 1 0 0
BITMAP
00
ENDCHAR
STARTCHAR uni06E4
ENCODING 1764
SWIDTH 0 0
DWIDTH 0 0
BBX 1 1 0 0
BITMAP
00
ENDCHAR
STARTCHAR uni06E7
ENCODING 1767
SWIDTH 0 0
DWIDTH 0 0
BBX 1 1 0 0
BITMAP
00
ENDCHAR
STARTCHAR uni06E8
ENCODING 1768
SWIDTH 0 0
DWIDTH 0 0
BBX 1 1 0 0
BITMAP
00
ENDCHAR
STARTCHAR uni06EA
ENCODING 1770
SWIDTH 0 0
DWIDTH 0 0
BBX 1 1 0 0
BITMAP
00
ENDCHAR
STARTCHAR uni06EB
ENCODING 1771
SWIDTH 0 0
DWIDTH 0 0
BBX 1 1 0 0
BITMAP
00
ENDCHAR
STARTCHAR uni06EC
ENCODING 1772
SWIDTH 0 0
DWIDTH 0 0
BBX 1 1 0 0
BITMAP
00
ENDCHAR
STARTCHAR uni06ED
ENCODING 1773
SWIDTH 0 0
DWIDTH 0 0
BBX 1 1 0 0
BITMAP
00
ENDCHAR
STARTCHAR uni06F0
ENCODING 1776
SWIDTH 750 0
DWIDTH 6 0
BBX 2 2 2 3
BITMAP
C0
C0
ENDCHAR
STARTCHAR uni06F1
ENCODING 1777
SWIDTH 750 0
DWIDTH 6 0
BBX 1 7 3 0
BITMAP
80
80
80
80
80
80
80
ENDCHAR
STARTCHAR uni06F2
ENCODING 1778
SWIDTH 750 0
DWIDTH 6 0
BBX 4 7 1 0
BITMAP
90
90
E0
80
80
80
80
ENDCHAR
STARTCHAR uni06F3
ENCODING 1779
SWIDTH 750 0
DWIDTH 6 0
BBX 5 7 1 0
BITMAP
A8
A8
D0
80
80
80
80
ENDCHAR
STARTCHAR uni06F4
ENCODING 1780
SWIDTH 750 0
DWIDTH 6 0
BBX 3 7 1 0
BITMAP
80
E0
80
E0
80
80
80
ENDCHAR
STARTCHAR uni06F5
ENCODING 1781
SWIDTH 750 0
DWIDTH 6 0
BBX 5 7 1 0
BITMAP
20
20
50
50
88
A8
50
ENDCHAR
STARTCHAR uni06F6
ENCODING 1782
SWIDTH 750 0
DWIDTH 6 0
BBX 4 7 1 0
BITMAP
70
80
80
70
20
40
80
ENDCHAR
STARTCHAR uni06F7
ENCODING 1783
SWIDTH 750 0
DWIDTH 6 0
BBX 5 7 1 0
BITMAP
88
88
50
50
50
20
20
ENDCHAR
STARTCHAR uni06F8
ENCODING 1784
SWIDTH 750 0
DWIDTH 6 0
BBX 5 7 1 0
BITMAP
20
20
50
50
50
88
88
ENDCHAR
STARTCHAR uni06F9
ENCODING 1785
SWIDTH 750 0
DWIDTH 6 0
BBX 4 7 1 0
BITMAP
60
90
90
70
10
10
10
ENDCHAR
STARTCHAR uni06FD
ENCODING 1789
SWIDTH 500 0
DWIDTH 4 0
BBX 3 6 1 -3
BITMAP
60
80
E0
00
A0
A0
ENDCHAR
STARTCHAR uni06FE
ENCODING 1790
SWIDTH 750 0
DWIDTH 6 0
BBX 5 7 1 -3
BITMAP
30
48
48
B0
80
A8
A8
ENDCHAR
STARTCHAR uni0762
ENCODING 1890
SWIDTH 750 0
DWIDTH 6 0
BBX 6 7 0 0
BITMAP
40
04
08
10
08
04
F8
ENDCHAR
STARTCHAR uni0763
ENCODING 1891
SWIDTH 750 0
DWIDTH 6 0
BBX 6 9 0 0
BITMAP
20
00
50
04
08
10
08
04
F8
ENDCHAR
STARTCHAR uni0780
ENCODING 1920
SWIDTH 1125 0
DWIDTH 9 0
BBX 8 6 1 0
BITMAP
01
01
02
04
18
E0
ENDCHAR
STARTCHAR uni0781
ENCODING 1921
SWIDTH 1125 0
DWIDTH 9 0
BBX 8 6 1 0
BITMAP
01
05
0A
08
10
E0
ENDCHAR
STARTCHAR uni0782
ENCODING 1922
SWIDTH 1125 0
DWIDTH 9 0
BBX 8 6 1 0
BITMAP
01
15
2A
20
40
80
ENDCHAR
STARTCHAR uni0783
ENCODING 1923
SWIDTH 1125 0
DWIDTH 9 0
BBX 8 6 1 0
BITMAP
01
05
02
05
18
E0
ENDCHAR
STARTCHAR uni0784
ENCODING 1924
SWIDTH 1125 0
DWIDTH 9 0
BBX 8 6 1 0
BITMAP
36
49
89
91
92
7C
ENDCHAR
STARTCHAR uni0785
ENCODING 1925
SWIDTH 1125 0
DWIDTH 9 0
BBX 8 6 1 0
BITMAP
04
09
06
04
18
E0
ENDCHAR
STARTCHAR uni0786
ENCODING 1926
SWIDTH 1125 0
DWIDTH 9 0
BBX 8 6 1 0
BITMAP
81
41
42
84
98
60
ENDCHAR
STARTCHAR uni0787
ENCODING 1927
SWIDTH 1125 0
DWIDTH 9 0
BBX 8 6 1 0
BITMAP
04
0A
09
11
21
C2
ENDCHAR
STARTCHAR uni0788
ENCODING 1928
SWIDTH 1125 0
DWIDTH 9 0
BBX 8 6 1 0
BITMAP
06
09
09
06
18
E0
ENDCHAR
STARTCHAR uni0789
ENCODING 1929
SWIDTH 1125 0
DWIDTH 9 0
BBX 8 6 1 0
BITMAP
0E
11
02
04
18
E0
ENDCHAR
STARTCHAR uni078A
ENCODING 1930
SWIDTH 1125 0
DWIDTH 9 0
BBX 8 6 1 0
BITMAP
01
02
01
06
18
E0
ENDCHAR
STARTCHAR uni078B
ENCODING 1931
SWIDTH 1125 0
DWIDTH 9 0
BBX 8 6 1 0
BITMAP
01
02
01
05
1A
E0
ENDCHAR
STARTCHAR uni078C
ENCODING 1932
SWIDTH 1125 0
DWIDTH 9 0
BBX 8 6 1 0
BITMAP
06
19
29
46
20
C0
ENDCHAR
STARTCHAR uni078D
ENCODING 1933
SWIDTH 1125 0
DWIDTH 9 0
BBX 8 6 1 0
BITMAP
02
04
0F
02
0C
F0
ENDCHAR
STARTCHAR uni078E
ENCODING 1934
SWIDTH 1125 0
DWIDTH 9 0
BBX 8 6 1 0
BITMAP
0E
11
08
04
88
70
ENDCHAR
STARTCHAR uni078F
ENCODING 1935
SWIDTH 1125 0
DWIDTH 9 0
BBX 8 6 1 0
BITMAP
15
0A
70
80
82
7C
ENDCHAR
STARTCHAR uni0790
ENCODING 1936
SWIDTH 1125 0
DWIDTH 9 0
BBX 8 4 1 1
BITMAP
61
7E
20
C0
ENDCHAR
STARTCHAR uni0791
ENCODING 1937
SWIDTH 1125 0
DWIDTH 9 0
BBX 6 6 2 0
BITMAP
38
40
30
40
80
7C
ENDCHAR
STARTCHAR uni0792
ENCODING 1938
SWIDTH 1125 0
DWIDTH 9 0
BBX 6 6 2 0
BITMAP
4C
30
48
80
84
78
ENDCHAR
STARTCHAR uni0793
ENCODING 1939
SWIDTH 1125 0
DWIDTH 9 0
BBX 8 6 1 0
BITMAP
68
94
A4
78
21
1E
ENDCHAR
STARTCHAR uni0794
ENCODING 1940
SWIDTH 1125 0
DWIDTH 9 0
BBX 8 6 1 0
BITMAP
1A
1D
09
08
10
E0
ENDCHAR
STARTCHAR uni0795
ENCODING 1941
SWIDTH 1125 0
DWIDTH 9 0
BBX 8 6 1 0
BITMAP
01
02
01
06
18
E2
ENDCHAR
STARTCHAR uni0796
ENCODING 1942
SWIDTH 1125 0
DWIDTH 9 0
BBX 8 6 1 0
BITMAP
01
02
09
76
80
7C
ENDCHAR
STARTCHAR uni0797
ENCODING 1943
SWIDTH 1125 0
DWIDTH 9 0
BBX 8 7 1 0
BITMAP
02
04
08
3E
49
29
C6
ENDCHAR
STARTCHAR uni0798
ENCODING 1944
SWIDTH 1125 0
DWIDTH 9 0
BBX 8 10 1 0
BITMAP
04
00
0A
00
06
19
29
46
20
C0
ENDCHAR
STARTCHAR uni0799
ENCODING 1945
SWIDTH 1125 0
DWIDTH 9 0
BBX 8 6 1 0
BITMAP
01
01
02
04
19
E0
ENDCHAR
STARTCHAR uni079A
ENCODING 1946
SWIDTH 1125 0
DWIDTH 9 0
BBX 8 6 1 0
BITMAP
01
09
02
04
18
E0
ENDCHAR
STARTCHAR uni079B
ENCODING 1947
SWIDTH 1125 0
DWIDTH 9 0
BBX 8 7 1 0
BITMAP
04
01
02
01
05
1A
E0
ENDCHAR
STARTCHAR uni079C
ENCODING 1948
SWIDTH 1125 0
DWIDTH 9 0
BBX 8 7 1 0
BITMAP
04
01
05
02
05
18
E0
ENDCHAR
STARTCHAR uni079D
ENCODING 1949
SWIDTH 1125 0
DWIDTH 9 0
BBX 8 7 1 1
BITMAP
08
00
14
C1
FE
40
80
ENDCHAR
STARTCHAR uni079E
ENCODING 1950
SWIDTH 1125 0
DWIDTH 9 0
BBX 8 4 1 1
BITMAP
61
7E
20
C8
ENDCHAR
STARTCHAR uni079F
ENCODING 1951
SWIDTH 1125 0
DWIDTH 9 0
BBX 8 5 1 1
BITMAP
08
61
7E
20
C0
ENDCHAR
STARTCHAR uni07A0
ENCODING 1952
SWIDTH 1125 0
DWIDTH 9 0
BBX 8 6 1 0
BITMAP
06
19
29
46
20
C4
ENDCHAR
STARTCHAR uni07A1
ENCODING 1953
SWIDTH 1125 0
DWIDTH 9 0
BBX 8 8 1 0
BITMAP
04
00
06
19
29
46
20
C0
ENDCHAR
STARTCHAR uni07A2
ENCODING 1954
SWIDTH 1125 0
DWIDTH 9 0
BBX 8 6 1 0
BITMAP
04
0A
09
11
21
CA
ENDCHAR
STARTCHAR uni07A3
ENCODING 1955
SWIDTH 1125 0
DWIDTH 9 0
BBX 8 6 1 0
BITMAP
24
0A
09
11
21
C2
ENDCHAR
STARTCHAR uni07A4
ENCODING 1956
SWIDTH 1125 0
DWIDTH 9 0
BBX 8 8 1 0
BITMAP
14
00
0E
11
08
04
88
70
ENDCHAR
STARTCHAR uni07A5
ENCODING 1957
SWIDTH 1125 0
DWIDTH 9 0
BBX 8 8 1 0
BITMAP
04
00
06
09
09
06
18
E0
ENDCHAR
STARTCHAR uni07A6
ENCODING 1958
SWIDTH 0 0
DWIDTH 0 0
BBX 4 2 3 7
BITMAP
30
C0
ENDCHAR
STARTCHAR uni07A7
ENCODING 1959
SWIDTH 0 0
DWIDTH 0 0
BBX 5 4 2 7
BITMAP
30
C0
18
60
ENDCHAR
STARTCHAR uni07A8
ENCODING 1960
SWIDTH 0 0
DWIDTH 0 0
BBX 4 2 3 -3
BITMAP
30
C0
ENDCHAR
STARTCHAR uni07A9
ENCODING 1961
SWIDTH 0 0
DWIDTH 0 0
BBX 5 4 3 -5
BITMAP
30
C0
18
60
ENDCHAR
STARTCHAR uni07AA
ENCODING 1962
SWIDTH 0 0
DWIDTH 0 0
BBX 3 3 3 7
BITMAP
40
20
C0
ENDCHAR
STARTCHAR uni07AB
ENCODING 1963
SWIDTH 0 0
DWIDTH 0 0
BBX 7 3 2 7
BITMAP
44
22
CC
ENDCHAR
STARTCHAR uni07AC
ENCODING 1964
SWIDTH 0 0
DWIDTH 0 0
BBX 3 3 3 7
BITMAP
60
80
40
ENDCHAR
STARTCHAR uni07AD
ENCODING 1965
SWIDTH 0 0
DWIDTH 0 0
BBX 7 3 2 7
BITMAP
66
88
44
ENDCHAR
STARTCHAR uni07AE
ENCODING 1966
SWIDTH 0 0
DWIDTH 0 0
BBX 5 3 3 7
BITMAP
58
20
D0
ENDCHAR
STARTCHAR uni07AF
ENCODING 1967
SWIDTH 0 0
DWIDTH 0 0
BBX 7 4 2 7
BITMAP
1C
62
84
40
ENDCHAR
STARTCHAR uni07B0
ENCODING 1968
SWIDTH 0 0
DWIDTH 0 0
BBX 4 3 3 7
BITMAP
60
90
60
ENDCHAR
STARTCHAR uni07B1
ENCODING 1969
SWIDTH 1125 0
DWIDTH 9 0
BBX 7 6 1 0
BITMAP
0C
12
0C
70
84
78
ENDCHAR
STARTCHAR uni0901
ENCODING 2305
SWIDTH 0 0
DWIDTH 0 0
BBX 5 3 -2 8
BITMAP
20
88
70
ENDCHAR
STARTCHAR uni0902
ENCODING 2306
SWIDTH 0 0
DWIDTH 0 0
BBX 1 1 0 8
BITMAP
80
ENDCHAR
STARTCHAR uni0903
ENCODING 2307
SWIDTH 250 0
DWIDTH 2 0
BBX 1 4 0 1
BITMAP
80
00
00
80
ENDCHAR
STARTCHAR uni0904
ENCODING 2308
SWIDTH 875 0
DWIDTH 7 0
BBX 7 10 0 0
BITMAP
20
18
04
66
14
14
3C
14
94
64
ENDCHAR
STARTCHAR uni0905
ENCODING 2309
SWIDTH 875 0
DWIDTH 7 0
BBX 7 7 0 0
BITMAP
66
14
14
3C
14
94
64
ENDCHAR
STARTCHAR uni0906
ENCODING 2310
SWIDTH 1125 0
DWIDTH 9 0
BBX 9 7 0 0
BITMAP
6780
1500
1500
3D00
1500
9500
6500
ENDCHAR
STARTCHAR uni0907
ENCODING 2311
SWIDTH 875 0
DWIDTH 7 0
BBX 7 9 0 -2
BITMAP
FE
08
38
40
38
84
78
20
10
ENDCHAR
STARTCHAR uni0908
ENCODING 2312
SWIDTH 875 0
DWIDTH 7 0
BBX 7 12 0 -2
BITMAP
08
10
08
FE
08
38
40
38
84
78
20
10
ENDCHAR
STARTCHAR uni0909
ENCODING 2313
SWIDTH 875 0
DWIDTH 7 0
BBX 7 7 0 0
BITMAP
FE
18
04
18
84
44
38
ENDCHAR
STARTCHAR uni090A
ENCODING 2314
SWIDTH 1250 0
DWIDTH 10 0
BBX 10 7 0 0
BITMAP
FFC0
1800
0400
1900
8680
4480
3800
ENDCHAR
STARTCHAR uni090B
ENCODING 2315
SWIDTH 1250 0
DWIDTH 10 0
BBX 10 7 0 0
BITMAP
FFC0
0800
6B00
9F00
2900
4A00
0980
ENDCHAR
STARTCHAR uni090C
ENCODING 2316
SWIDTH 1125 0
DWIDTH 9 0
BBX 9 8 0 -1
BITMAP
FF80
0800
6C00
9200
9200
8400
4500
0200
ENDCHAR
STARTCHAR uni090D
ENCODING 2317
SWIDTH 875 0
DWIDTH 7 0
BBX 7 11 0 -1
BITMAP
44
38
00
FE
44
44
44
44
28
10
08
ENDCHAR
STARTCHAR uni090E
ENCODING 2318
SWIDTH 875 0
DWIDTH 7 0
BBX 7 11 0 -1
BITMAP
20
18
04
FE
44
44
44
44
28
10
08
ENDCHAR
STARTCHAR uni090F
ENCODING 2319
SWIDTH 875 0
DWIDTH 7 0
BBX 7 8 0 -1
BITMAP
FE
44
44
44
44
28
10
08
ENDCHAR
STARTCHAR uni0910
ENCODING 2320
SWIDTH 875 0
DWIDTH 7 0
BBX 7 11 0 -1
BITMAP
30
08
04
FE
44
44
44
44
28
10
08
ENDCHAR
STARTCHAR uni0911
ENCODING 2321
SWIDTH 1125 0
DWIDTH 9 0
BBX 9 10 0 0
BITMAP
0480
0300
0000
6780
1500
1500
3D00
1500
9500
6500
ENDCHAR
STARTCHAR uni0912
ENCODING 2322
SWIDTH 1125 0
DWIDTH 9 0
BBX 9 10 0 0
BITMAP
0800
0600
0100
6780
1500
1500
3D00
1500
9500
6500
ENDCHAR
STARTCHAR uni0913
ENCODING 2323
SWIDTH 1125 0
DWIDTH 9 0
BBX 9 10 0 0
BITMAP
0C00
0200
0100
6780
1500
1500
3D00
1500
9500
6500
ENDCHAR
STARTCHAR uni0914
ENCODING 2324
SWIDTH 1125 0
DWIDTH 9 0
BBX 9 11 0 0
BITMAP
0C00
0200
0D00
0300
6780
1500
1500
3D00
1500
9500
6500
ENDCHAR
STARTCHAR uni0915
ENCODING 2325
SWIDTH 1125 0
DWIDTH 9 0
BBX 9 7 0 0
BITMAP
FF80
0800
6A00
8D00
9900
6800
0800
ENDCHAR
STARTCHAR uni0916
ENCODING 2326
SWIDTH 1125 0
DWIDTH 9 0
BBX 9 7 0 0
BITMAP
FF80
2100
2500
A900
4B00
2500
1100
ENDCHAR
STARTCHAR uni0917
ENCODING 2327
SWIDTH 750 0
DWIDTH 6 0
BBX 6 7 0 0
BITMAP
FC
48
48
48
C8
C8
08
ENDCHAR
STARTCHAR uni0918
ENCODING 2328
SWIDTH 875 0
DWIDTH 7 0
BBX 7 7 0 0
BITMAP
FE
44
24
44
4C
34
04
ENDCHAR
STARTCHAR uni0919
ENCODING 2329
SWIDTH 1000 0
DWIDTH 8 0
BBX 8 7 0 0
BITMAP
FF
08
38
42
38
84
78
ENDCHAR
STARTCHAR uni091A
ENCODING 2330
SWIDTH 875 0
DWIDTH 7 0
BBX 7 7 0 0
BITMAP
FE
04
F4
24
4C
34
04
ENDCHAR
STARTCHAR uni091B
ENCODING 2331
SWIDTH 875 0
DWIDTH 7 0
BBX 7 7 0 0
BITMAP
FE
08
48
94
4C
84
78
ENDCHAR
STARTCHAR uni091C
ENCODING 2332
SWIDTH 1000 0
DWIDTH 8 0
BBX 8 7 0 0
BITMAP
FF
02
9E
8A
4A
32
02
ENDCHAR
STARTCHAR uni091D
ENCODING 2333
SWIDTH 1125 0
DWIDTH 9 0
BBX 9 9 0 -2
BITMAP
FF80
0900
3900
4100
3F00
8500
7900
2000
1000
ENDCHAR
STARTCHAR uni091E
ENCODING 2334
SWIDTH 875 0
DWIDTH 7 0
BBX 7 7 0 0
BITMAP
FE
04
64
1C
94
64
04
ENDCHAR
STARTCHAR uni091F
ENCODING 2335
SWIDTH 750 0
DWIDTH 6 0
BBX 6 7 0 0
BITMAP
FC
10
70
80
80
88
70
ENDCHAR
STARTCHAR uni0920
ENCODING 2336
SWIDTH 750 0
DWIDTH 6 0
BBX 6 7 0 0
BITMAP
FC
10
70
88
88
88
70
ENDCHAR
STARTCHAR uni0921
ENCODING 2337
SWIDTH 875 0
DWIDTH 7 0
BBX 7 7 0 0
BITMAP
FE
08
38
40
38
84
78
ENDCHAR
STARTCHAR uni0922
ENCODING 2338
SWIDTH 750 0
DWIDTH 6 0
BBX 6 7 0 0
BITMAP
FC
10
70
80
90
A8
70
ENDCHAR
STARTCHAR uni0923
ENCODING 2339
SWIDTH 1000 0
DWIDTH 8 0
BBX 8 7 0 0
BITMAP
FF
4A
4A
4A
32
02
02
ENDCHAR
STARTCHAR uni0924
ENCODING 2340
SWIDTH 750 0
DWIDTH 6 0
BBX 6 8 0 -1
BITMAP
FC
08
08
78
88
88
48
20
ENDCHAR
STARTCHAR uni0925
ENCODING 2341
SWIDTH 875 0
DWIDTH 7 0
BBX 7 7 0 0
BITMAP
46
A4
24
C4
4C
34
04
ENDCHAR
STARTCHAR uni0926
ENCODING 2342
SWIDTH 875 0
DWIDTH 7 0
BBX 7 8 0 -1
BITMAP
FE
10
70
80
80
98
78
04
ENDCHAR
STARTCHAR uni0927
ENCODING 2343
SWIDTH 750 0
DWIDTH 6 0
BBX 6 7 0 0
BITMAP
4C
A8
88
48
98
68
08
ENDCHAR
STARTCHAR uni0928
ENCODING 2344
SWIDTH 750 0
DWIDTH 6 0
BBX 6 7 0 0
BITMAP
FC
08
08
08
F8
C8
08
ENDCHAR
STARTCHAR uni0929
ENCODING 2345
SWIDTH 750 0
DWIDTH 6 0
BBX 6 8 0 -1
BITMAP
FC
08
08
08
F8
C8
08
20
ENDCHAR
STARTCHAR uni092A
ENCODING 2346
SWIDTH 875 0
DWIDTH 7 0
BBX 7 7 0 0
BITMAP
FE
44
44
44
3C
04
04
ENDCHAR
STARTCHAR uni092B
ENCODING 2347
SWIDTH 1250 0
DWIDTH 10 0
BBX 10 7 0 0
BITMAP
FFC0
4400
4500
4680
3C80
0400
0400
ENDCHAR
STARTCHAR uni092C
ENCODING 2348
SWIDTH 750 0
DWIDTH 6 0
BBX 6 7 0 0
BITMAP
FC
08
68
D8
B8
68
08
ENDCHAR
STARTCHAR uni092D
ENCODING 2349
SWIDTH 875 0
DWIDTH 7 0
BBX 7 7 0 0
BITMAP
46
A4
64
24
7C
64
04
ENDCHAR
STARTCHAR uni092E
ENCODING 2350
SWIDTH 750 0
DWIDTH 6 0
BBX 6 7 0 0
BITMAP
FC
48
48
48
F8
C8
08
ENDCHAR
STARTCHAR uni092F
ENCODING 2351
SWIDTH 875 0
DWIDTH 7 0
BBX 7 7 0 0
BITMAP
FE
24
24
C4
4C
34
04
ENDCHAR
STARTCHAR uni0930
ENCODING 2352
SWIDTH 750 0
DWIDTH 6 0
BBX 6 7 0 0
BITMAP
FC
10
10
A0
40
20
18
ENDCHAR
STARTCHAR uni0931
ENCODING 2353
SWIDTH 750 0
DWIDTH 6 0
BBX 6 7 0 0
BITMAP
FC
10
10
A0
40
20
98
ENDCHAR
STARTCHAR uni0932
ENCODING 2354
SWIDTH 1000 0
DWIDTH 8 0
BBX 8 7 0 0
BITMAP
FF
02
6E
92
92
82
42
ENDCHAR
STARTCHAR uni0933
ENCODING 2355
SWIDTH 1000 0
DWIDTH 8 0
BBX 8 7 0 0
BITMAP
FF
04
6C
92
92
92
6C
ENDCHAR
STARTCHAR uni0934
ENCODING 2356
SWIDTH 1000 0
DWIDTH 8 0
BBX 8 9 0 -2
BITMAP
FF
04
6C
92
92
92
6C
00
10
ENDCHAR
STARTCHAR uni0935
ENCODING 2357
SWIDTH 750 0
DWIDTH 6 0
BBX 6 7 0 0
BITMAP
FC
08
68
98
98
68
08
ENDCHAR
STARTCHAR uni0936
ENCODING 2358
SWIDTH 875 0
DWIDTH 7 0
BBX 7 7 0 0
BITMAP
66
94
54
14
A4
44
34
ENDCHAR
STARTCHAR uni0937
ENCODING 2359
SWIDTH 875 0
DWIDTH 7 0
BBX 7 7 0 0
BITMAP
FE
64
54
4C
3C
04
04
ENDCHAR
STARTCHAR uni0938
ENCODING 2360
SWIDTH 1000 0
DWIDTH 8 0
BBX 8 7 0 0
BITMAP
FF
22
22
BE
42
22
12
ENDCHAR
STARTCHAR uni0939
ENCODING 2361
SWIDTH 750 0
DWIDTH 6 0
BBX 6 9 0 -2
BITMAP
FC
10
70
80
70
88
88
80
40
ENDCHAR
STARTCHAR uni093A
ENCODING 2362
SWIDTH 0 0
DWIDTH 0 0
BBX 1 2 -2 7
BITMAP
80
80
ENDCHAR
STARTCHAR uni093B
ENCODING 2363
SWIDTH 375 0
DWIDTH 3 0
BBX 3 9 0 0
BITMAP
40
40
E0
40
40
40
40
40
40
ENDCHAR
STARTCHAR uni093C
ENCODING 2364
SWIDTH 0 0
DWIDTH 0 0
BBX 1 1 0 -2
BITMAP
80
ENDCHAR
STARTCHAR uni093D
ENCODING 2365
SWIDTH 625 0
DWIDTH 5 0
BBX 4 7 0 0
BITMAP
60
90
80
60
10
90
60
ENDCHAR
STARTCHAR uni093E
ENCODING 2366
SWIDTH 375 0
DWIDTH 3 0
BBX 3 7 0 0
BITMAP
E0
40
40
40
40
40
40
ENDCHAR
STARTCHAR uni093F
ENCODING 2367
SWIDTH 375 0
DWIDTH 3 0
BBX 8 9 0 0
BITMAP
7E
41
E0
40
40
40
40
40
40
ENDCHAR
STARTCHAR uni0940
ENCODING 2368
SWIDTH 375 0
DWIDTH 3 0
BBX 5 9 -2 0
BITMAP
E0
90
38
10
10
10
10
10
10
ENDCHAR
STARTCHAR uni0941
ENCODING 2369
SWIDTH 0 0
DWIDTH 0 0
BBX 4 3 -4 -3
BITMAP
20
90
60
ENDCHAR
STARTCHAR uni0942
ENCODING 2370
SWIDTH 0 0
DWIDTH 0 0
BBX 4 3 -4 -3
BITMAP
60
90
40
ENDCHAR
STARTCHAR uni0943
ENCODING 2371
SWIDTH 0 0
DWIDTH 0 0
BBX 3 3 -4 -3
BITMAP
40
80
60
ENDCHAR
STARTCHAR uni0944
ENCODING 2372
SWIDTH 0 0
DWIDTH 0 0
BBX 3 5 -4 -5
BITMAP
40
80
60
80
60
ENDCHAR
STARTCHAR uni0945
ENCODING 2373
SWIDTH 0 0
DWIDTH 0 0
BBX 5 2 -4 8
BITMAP
88
70
ENDCHAR
STARTCHAR uni0946
ENCODING 2374
SWIDTH 0 0
DWIDTH 0 0
BBX 4 3 -5 7
BITMAP
80
60
10
ENDCHAR
STARTCHAR uni0947
ENCODING 2375
SWIDTH 0 0
DWIDTH 0 0
BBX 4 3 -5 7
BITMAP
C0
20
10
ENDCHAR
STARTCHAR uni0948
ENCODING 2376
SWIDTH 0 0
DWIDTH 0 0
BBX 4 4 -5 7
BITMAP
C0
20
D0
30
ENDCHAR
STARTCHAR uni0949
ENCODING 2377
SWIDTH 375 0
DWIDTH 3 0
BBX 5 10 -1 0
BITMAP
88
70
00
70
20
20
20
20
20
20
ENDCHAR
STARTCHAR uni094A
ENCODING 2378
SWIDTH 375 0
DWIDTH 3 0
BBX 5 10 -2 0
BITMAP
80
60
10
38
10
10
10
10
10
10
ENDCHAR
STARTCHAR uni094B
ENCODING 2379
SWIDTH 375 0
DWIDTH 3 0
BBX 5 10 -2 0
BITMAP
C0
20
10
38
10
10
10
10
10
10
ENDCHAR
STARTCHAR uni094C
ENCODING 2380
SWIDTH 375 0
DWIDTH 3 0
BBX 5 11 -2 0
BITMAP
C0
20
D0
30
38
10
10
10
10
10
10
ENDCHAR
STARTCHAR uni094D
ENCODING 2381
SWIDTH 0 0
DWIDTH 0 0
BBX 4 2 -5 -3
BITMAP
C0
30
ENDCHAR
STARTCHAR uni094E
ENCODING 2382
SWIDTH 250 0
DWIDTH 2 0
BBX 2 7 0 0
BITMAP
C0
80
80
80
80
80
80
ENDCHAR
STARTCHAR uni094F
ENCODING 2383
SWIDTH 375 0
DWIDTH 3 0
BBX 5 11 -2 0
BITMAP
80
60
90
70
38
10
10
10
10
10
10
ENDCHAR
STARTCHAR uni0950
ENCODING 2384
SWIDTH 1375 0
DWIDTH 11 0
BBX 10 10 0 0
BITMAP
0400
1100
0E00
6000
9180
1240
2240
1C80
9000
6000
ENDCHAR
STARTCHAR uni0951
ENCODING 2385
SWIDTH 0 0
DWIDTH 0 0
BBX 1 2 -2 8
BITMAP
80
80
ENDCHAR
STARTCHAR uni0952
ENCODING 2386
SWIDTH 0 0
DWIDTH 0 0
BBX 3 1 -4 -2
BITMAP
E0
ENDCHAR
STARTCHAR uni0953
ENCODING 2387
SWIDTH 0 0
DWIDTH 0 0
BBX 2 2 -3 8
BITMAP
80
40
ENDCHAR
STARTCHAR uni0954
ENCODING 2388
SWIDTH 0 0
DWIDTH 0 0
BBX 2 2 -2 8
BITMAP
40
80
ENDCHAR
STARTCHAR uni0955
ENCODING 2389
SWIDTH 0 0
DWIDTH 0 0
BBX 5 4 -4 8
BITMAP
88
70
00
F8
ENDCHAR
STARTCHAR uni0956
ENCODING 2390
SWIDTH 0 0
DWIDTH 0 0
BBX 5 2 -4 -3
BITMAP
88
70
ENDCHAR
STARTCHAR uni0957
ENCODING 2391
SWIDTH 0 0
DWIDTH 0 0
BBX 7 4 -5 -5
BITMAP
44
38
82
7C
ENDCHAR
STARTCHAR uni0958
ENCODING 2392
SWIDTH 1125 0
DWIDTH 9 0
BBX 9 8 0 -1
BITMAP
FF80
0800
6A00
8D00
9900
6800
0800
4000
ENDCHAR
STARTCHAR uni0959
ENCODING 2393
SWIDTH 1125 0
DWIDTH 9 0
BBX 9 7 0 0
BITMAP
FF80
2100
2500
A900
4B00
2500
9100
ENDCHAR
STARTCHAR uni095A
ENCODING 2394
SWIDTH 750 0
DWIDTH 6 0
BBX 6 8 0 -1
BITMAP
FC
48
48
48
C8
C8
08
20
ENDCHAR
STARTCHAR uni095B
ENCODING 2395
SWIDTH 875 0
DWIDTH 7 0
BBX 7 7 0 0
BITMAP
FE
04
F4
24
4C
34
84
ENDCHAR
STARTCHAR uni095C
ENCODING 2396
SWIDTH 875 0
DWIDTH 7 0
BBX 7 9 0 -2
BITMAP
FE
08
38
40
38
84
78
00
10
ENDCHAR
STARTCHAR uni095D
ENCODING 2397
SWIDTH 750 0
DWIDTH 6 0
BBX 6 9 0 -2
BITMAP
FC
10
70
80
90
A8
70
00
20
ENDCHAR
STARTCHAR uni095E
ENCODING 2398
SWIDTH 1250 0
DWIDTH 10 0
BBX 10 7 0 0
BITMAP
FFC0
4400
4500
4680
3C80
0400
4400
ENDCHAR
STARTCHAR uni095F
ENCODING 2399
SWIDTH 875 0
DWIDTH 7 0
BBX 7 7 0 0
BITMAP
FE
24
24
C4
4C
34
84
ENDCHAR
STARTCHAR uni0960
ENCODING 2400
SWIDTH 1250 0
DWIDTH 10 0
BBX 10 9 0 -2
BITMAP
FFC0
0800
6B00
9F00
2900
4A00
0900
0200
0180
ENDCHAR
STARTCHAR uni0961
ENCODING 2401
SWIDTH 1125 0
DWIDTH 9 0
BBX 9 8 0 -1
BITMAP
FF80
0800
6C00
9200
9400
8500
4200
0100
ENDCHAR
STARTCHAR uni0962
ENCODING 2402
SWIDTH 0 0
DWIDTH 0 0
BBX 7 4 -4 -5
BITMAP
50
A8
8A
44
ENDCHAR
STARTCHAR uni0963
ENCODING 2403
SWIDTH 0 0
DWIDTH 0 0
BBX 7 5 -4 -6
BITMAP
50
A8
8A
44
02
ENDCHAR
STARTCHAR uni0964
ENCODING 2404
SWIDTH 500 0
DWIDTH 4 0
BBX 1 7 1 0
BITMAP
80
80
80
80
80
80
80
ENDCHAR
STARTCHAR uni0965
ENCODING 2405
SWIDTH 750 0
DWIDTH 6 0
BBX 3 7 1 0
BITMAP
A0
A0
A0
A0
A0
A0
A0
ENDCHAR
STARTCHAR uni0966
ENCODING 2406
SWIDTH 750 0
DWIDTH 6 0
BBX 4 4 1 2
BITMAP
60
90
90
60
ENDCHAR
STARTCHAR uni0967
ENCODING 2407
SWIDTH 750 0
DWIDTH 6 0
BBX 3 7 1 0
BITMAP
40
A0
40
80
40
20
20
ENDCHAR
STARTCHAR uni0968
ENCODING 2408
SWIDTH 750 0
DWIDTH 6 0
BBX 4 7 1 0
BITMAP
C0
20
20
C0
40
20
10
ENDCHAR
STARTCHAR uni0969
ENCODING 2409
SWIDTH 750 0
DWIDTH 6 0
BBX 4 8 1 -1
BITMAP
60
10
60
10
90
60
20
10
ENDCHAR
STARTCHAR uni096A
ENCODING 2410
SWIDTH 750 0
DWIDTH 6 0
BBX 4 7 1 0
BITMAP
90
90
90
90
60
90
60
ENDCHAR
STARTCHAR uni096B
ENCODING 2411
SWIDTH 750 0
DWIDTH 6 0
BBX 5 7 0 0
BITMAP
40
80
90
A8
70
20
40
ENDCHAR
STARTCHAR uni096C
ENCODING 2412
SWIDTH 750 0
DWIDTH 6 0
BBX 4 8 1 -1
BITMAP
60
80
60
80
A0
60
20
10
ENDCHAR
STARTCHAR uni096D
ENCODING 2413
SWIDTH 750 0
DWIDTH 6 0
BBX 5 7 0 0
BITMAP
80
90
A8
A8
98
48
30
ENDCHAR
STARTCHAR uni096E
ENCODING 2414
SWIDTH 750 0
DWIDTH 6 0
BBX 4 7 1 0
BITMAP
20
20
40
40
80
90
60
ENDCHAR
STARTCHAR uni096F
ENCODING 2415
SWIDTH 750 0
DWIDTH 6 0
BBX 4 7 1 0
BITMAP
60
90
90
40
20
10
10
ENDCHAR
STARTCHAR uni0970
ENCODING 2416
SWIDTH 500 0
DWIDTH 4 0
BBX 3 3 0 2
BITMAP
40
A0
40
ENDCHAR
STARTCHAR uni0971
ENCODING 2417
SWIDTH 375 0
DWIDTH 3 0
BBX 1 1 1 6
BITMAP
80
ENDCHAR
STARTCHAR uni0E01
ENCODING 3585
SWIDTH 750 0
DWIDTH 6 0
BBX 5 7 0 0
BITMAP
70
88
48
88
88
88
88
ENDCHAR
STARTCHAR uni0E02
ENCODING 3586
SWIDTH 875 0
DWIDTH 7 0
BBX 6 7 0 0
BITMAP
64
D4
D4
14
24
24
7C
ENDCHAR
STARTCHAR uni0E03
ENCODING 3587
SWIDTH 875 0
DWIDTH 7 0
BBX 6 7 0 0
BITMAP
54
F4
D4
14
24
24
7C
ENDCHAR
STARTCHAR uni0E04
ENCODING 3588
SWIDTH 875 0
DWIDTH 7 0
BBX 6 7 0 0
BITMAP
78
84
84
B4
B4
44
44
ENDCHAR
STARTCHAR uni0E05
ENCODING 3589
SWIDTH 875 0
DWIDTH 7 0
BBX 6 7 0 0
BITMAP
68
94
84
B4
B4
44
44
ENDCHAR
STARTCHAR uni0E06
ENCODING 3590
SWIDTH 1000 0
DWIDTH 8 0
BBX 7 7 0 0
BITMAP
52
F2
D2
12
22
7E
62
ENDCHAR
STARTCHAR uni0E07
ENCODING 3591
SWIDTH 625 0
DWIDTH 5 0
BBX 4 7 0 0
BITMAP
30
30
10
10
90
50
20
ENDCHAR
STARTCHAR uni0E08
ENCODING 3592
SWIDTH 750 0
DWIDTH 6 0
BBX 5 7 0 0
BITMAP
70
88
08
68
68
18
08
ENDCHAR
STARTCHAR uni0E09
ENCODING 3593
SWIDTH 875 0
DWIDTH 7 0
BBX 6 7 0 0
BITMAP
70
88
08
C8
C8
7C
4C
ENDCHAR
STARTCHAR uni0E0A
ENCODING 3594
SWIDTH 875 0
DWIDTH 7 0
BBX 6 7 0 0
BITMAP
64
D8
D4
14
24
24
7C
ENDCHAR
STARTCHAR uni0E0B
ENCODING 3595
SWIDTH 875 0
DWIDTH 7 0
BBX 6 7 0 0
BITMAP
54
F8
D4
14
24
24
7C
ENDCHAR
STARTCHAR uni0E0C
ENCODING 3596
SWIDTH 1125 0
DWIDTH 9 0
BBX 8 7 0 0
BITMAP
71
89
49
89
89
DF
D9
ENDCHAR
STARTCHAR uni0E0D
ENCODING 3597
SWIDTH 1000 0
DWIDTH 8 0
BBX 8 10 0 -3
BITMAP
71
89
49
89
89
C9
CF
00
0D
0E
ENDCHAR
STARTCHAR uni0E0E
ENCODING 3598
SWIDTH 750 0
DWIDTH 6 0
BBX 6 11 -1 -4
BITMAP
38
44
24
44
44
64
64
04
54
A4
5C
ENDCHAR
STARTCHAR uni0E0F
ENCODING 3599
SWIDTH 750 0
DWIDTH 6 0
BBX 7 11 -2 -4
BITMAP
1C
22
12
22
22
32
32
02
52
A6
5A
ENDCHAR
STARTCHAR uni0E10
ENCODING 3600
SWIDTH 750 0
DWIDTH 6 0
BBX 8 11 -2 -4
BITMAP
1E
20
3C
02
3A
36
02
00
51
B5
4A
ENDCHAR
STARTCHAR uni0E11
ENCODING 3601
SWIDTH 1125 0
DWIDTH 9 0
BBX 8 7 0 0
BITMAP
52
F5
D5
19
29
29
31
ENDCHAR
STARTCHAR uni0E12
ENCODING 3602
SWIDTH 1375 0
DWIDTH 11 0
BBX 10 7 0 0
BITMAP
6C40
9240
8240
B240
B240
47C0
4640
ENDCHAR
STARTCHAR uni0E13
ENCODING 3603
SWIDTH 1250 0
DWIDTH 10 0
BBX 9 7 0 0
BITMAP
7100
8900
4900
8900
8900
CF80
C980
ENDCHAR
STARTCHAR uni0E14
ENCODING 3604
SWIDTH 875 0
DWIDTH 7 0
BBX 6 7 0 0
BITMAP
78
84
84
B4
B4
94
E4
ENDCHAR
STARTCHAR uni0E15
ENCODING 3605
SWIDTH 875 0
DWIDTH 7 0
BBX 6 7 0 0
BITMAP
68
94
84
B4
B4
94
E4
ENDCHAR
STARTCHAR uni0E16
ENCODING 3606
SWIDTH 750 0
DWIDTH 6 0
BBX 5 7 0 0
BITMAP
70
88
48
88
88
C8
C8
ENDCHAR
STARTCHAR uni0E17
ENCODING 3607
SWIDTH 875 0
DWIDTH 7 0
BBX 6 7 0 0
BITMAP
C8
D4
54
64
64
64
44
ENDCHAR
STARTCHAR uni0E18
ENCODING 3608
SWIDTH 750 0
DWIDTH 6 0
BBX 5 7 0 0
BITMAP
78
80
F0
48
48
48
F8
ENDCHAR
STARTCHAR uni0E19
ENCODING 3609
SWIDTH 875 0
DWIDTH 7 0
BBX 6 7 0 0
BITMAP
C8
C8
48
48
48
7C
4C
ENDCHAR
STARTCHAR uni0E1A
ENCODING 3610
SWIDTH 875 0
DWIDTH 7 0
BBX 6 7 0 0
BITMAP
C4
C4
44
44
44
44
FC
ENDCHAR
STARTCHAR uni0E1B
ENCODING 3611
SWIDTH 875 0
DWIDTH 7 0
BBX 6 9 0 0
BITMAP
04
04
C4
C4
44
44
44
44
FC
ENDCHAR
STARTCHAR uni0E1C
ENCODING 3612
SWIDTH 750 0
DWIDTH 6 0
BBX 5 7 0 0
BITMAP
C8
C8
88
88
A8
D8
88
ENDCHAR
STARTCHAR uni0E1D
ENCODING 3613
SWIDTH 750 0
DWIDTH 6 0
BBX 5 9 0 0
BITMAP
08
08
C8
C8
88
88
A8
D8
88
ENDCHAR
STARTCHAR uni0E1E
ENCODING 3614
SWIDTH 875 0
DWIDTH 7 0
BBX 6 7 0 0
BITMAP
C4
C4
54
54
6C
6C
44
ENDCHAR
STARTCHAR uni0E1F
ENCODING 3615
SWIDTH 875 0
DWIDTH 7 0
BBX 6 9 0 0
BITMAP
04
04
C4
C4
54
54
6C
6C
44
ENDCHAR
STARTCHAR uni0E20
ENCODING 3616
SWIDTH 875 0
DWIDTH 7 0
BBX 6 7 0 0
BITMAP
38
44
24
44
44
C4
C4
ENDCHAR
STARTCHAR uni0E21
ENCODING 3617
SWIDTH 875 0
DWIDTH 7 0
BBX 6 7 0 0
BITMAP
C4
C4
44
44
44
FC
C4
ENDCHAR
STARTCHAR uni0E22
ENCODING 3618
SWIDTH 750 0
DWIDTH 6 0
BBX 5 7 0 0
BITMAP
C8
C8
88
88
48
88
F8
ENDCHAR
STARTCHAR uni0E23
ENCODING 3619
SWIDTH 750 0
DWIDTH 6 0
BBX 5 7 0 0
BITMAP
78
80
F0
08
08
18
18
ENDCHAR
STARTCHAR uni0E24
ENCODING 3620
SWIDTH 750 0
DWIDTH 6 0
BBX 5 9 0 -2
BITMAP
70
88
48
88
88
C8
C8
08
08
ENDCHAR
STARTCHAR uni0E25
ENCODING 3621
SWIDTH 750 0
DWIDTH 6 0
BBX 5 7 0 0
BITMAP
70
88
08
68
98
C8
C8
ENDCHAR
STARTCHAR uni0E26
ENCODING 3622
SWIDTH 875 0
DWIDTH 7 0
BBX 6 9 0 -2
BITMAP
38
44
24
44
44
C4
C4
04
04
ENDCHAR
STARTCHAR uni0E27
ENCODING 3623
SWIDTH 750 0
DWIDTH 6 0
BBX 5 7 0 0
BITMAP
70
88
08
08
08
18
18
ENDCHAR
STARTCHAR uni0E28
ENCODING 3624
SWIDTH 875 0
DWIDTH 7 0
BBX 6 7 0 0
BITMAP
74
88
84
B4
B4
44
44
ENDCHAR
STARTCHAR uni0E29
ENCODING 3625
SWIDTH 1125 0
DWIDTH 9 0
BBX 8 7 0 0
BITMAP
C4
C4
5D
5E
44
44
FC
ENDCHAR
STARTCHAR uni0E2A
ENCODING 3626
SWIDTH 750 0
DWIDTH 6 0
BBX 5 7 0 0
BITMAP
68
90
08
68
98
C8
C8
ENDCHAR
STARTCHAR uni0E2B
ENCODING 3627
SWIDTH 875 0
DWIDTH 7 0
BBX 6 7 0 0
BITMAP
C8
D4
48
54
64
64
44
ENDCHAR
STARTCHAR uni0E2C
ENCODING 3628
SWIDTH 875 0
DWIDTH 7 0
BBX 7 9 0 0
BITMAP
0C
0E
C4
C4
54
54
6C
6C
44
ENDCHAR
STARTCHAR uni0E2D
ENCODING 3629
SWIDTH 750 0
DWIDTH 6 0
BBX 5 7 0 0
BITMAP
70
88
08
C8
C8
88
F8
ENDCHAR
STARTCHAR uni0E2E
ENCODING 3630
SWIDTH 750 0
DWIDTH 6 0
BBX 5 8 0 0
BITMAP
68
90
68
08
C8
C8
88
F8
ENDCHAR
STARTCHAR uni0E2F
ENCODING 3631
SWIDTH 625 0
DWIDTH 5 0
BBX 4 7 0 0
BITMAP
D0
F0
10
10
10
10
10
ENDCHAR
STARTCHAR uni0E30
ENCODING 3632
SWIDTH 625 0
DWIDTH 5 0
BBX 4 5 0 1
BITMAP
D0
E0
00
D0
E0
ENDCHAR
STARTCHAR uni0E31
ENCODING 3633
SWIDTH 0 0
DWIDTH 0 0
BBX 4 2 -5 9
BITMAP
D0
E0
ENDCHAR
STARTCHAR uni0E32
ENCODING 3634
SWIDTH 750 0
DWIDTH 6 0
BBX 5 7 0 0
BITMAP
70
88
08
08
08
08
08
ENDCHAR
STARTCHAR uni0E33
ENCODING 3635
SWIDTH 750 0
DWIDTH 6 0
BBX 7 11 -2 0
BITMAP
40
A0
40
00
1C
22
02
02
02
02
02
ENDCHAR
STARTCHAR uni0E34
ENCODING 3636
SWIDTH 0 0
DWIDTH 0 0
BBX 4 3 -5 8
BITMAP
60
90
F0
ENDCHAR
STARTCHAR uni0E35
ENCODING 3637
SWIDTH 0 0
DWIDTH 0 0
BBX 5 4 -5 8
BITMAP
08
68
98
F8
ENDCHAR
STARTCHAR uni0E36
ENCODING 3638
SWIDTH 0 0
DWIDTH 0 0
BBX 5 4 -5 8
BITMAP
10
68
90
F0
ENDCHAR
STARTCHAR uni0E37
ENCODING 3639
SWIDTH 0 0
DWIDTH 0 0
BBX 5 4 -5 8
BITMAP
28
68
98
F8
ENDCHAR
STARTCHAR uni0E38
ENCODING 3640
SWIDTH 0 0
DWIDTH 0 0
BBX 2 3 -5 -4
BITMAP
C0
C0
40
ENDCHAR
STARTCHAR uni0E39
ENCODING 3641
SWIDTH 0 0
DWIDTH 0 0
BBX 4 3 -7 -4
BITMAP
D0
D0
60
ENDCHAR
STARTCHAR uni0E3A
ENCODING 3642
SWIDTH 0 0
DWIDTH 0 0
BBX 1 1 -4 -2
BITMAP
80
ENDCHAR
STARTCHAR uni0E3F
ENCODING 3647
SWIDTH 750 0
DWIDTH 6 0
BBX 5 9 0 -1
BITMAP
20
F0
A8
A8
F0
A8
A8
F0
20
ENDCHAR
STARTCHAR uni0E40
ENCODING 3648
SWIDTH 375 0
DWIDTH 3 0
BBX 2 7 0 0
BITMAP
80
80
80
80
80
C0
C0
ENDCHAR
STARTCHAR uni0E41
ENCODING 3649
SWIDTH 750 0
DWIDTH 6 0
BBX 5 7 0 0
BITMAP
90
90
90
90
90
D8
D8
ENDCHAR
STARTCHAR uni0E42
ENCODING 3650
SWIDTH 625 0
DWIDTH 5 0
BBX 4 9 0 0
BITMAP
70
80
C0
20
20
20
20
30
30
ENDCHAR
STARTCHAR uni0E43
ENCODING 3651
SWIDTH 625 0
DWIDTH 5 0
BBX 4 9 0 0
BITMAP
60
D0
D0
10
20
20
20
30
30
ENDCHAR
STARTCHAR uni0E44
ENCODING 3652
SWIDTH 750 0
DWIDTH 6 0
BBX 5 9 0 0
BITMAP
A0
50
10
10
10
10
10
18
18
ENDCHAR
STARTCHAR uni0E45
ENCODING 3653
SWIDTH 750 0
DWIDTH 6 0
BBX 5 9 0 -2
BITMAP
70
88
08
08
08
08
08
08
08
ENDCHAR
STARTCHAR uni0E46
ENCODING 3654
SWIDTH 750 0
DWIDTH 6 0
BBX 5 9 0 -2
BITMAP
50
E8
C8
08
08
08
08
08
08
ENDCHAR
STARTCHAR uni0E47
ENCODING 3655
SWIDTH 0 0
DWIDTH 0 0
BBX 5 5 -6 8
BITMAP
08
70
80
B8
58
ENDCHAR
STARTCHAR uni0E48
ENCODING 3656
SWIDTH 0 0
DWIDTH 0 0
BBX 1 2 -3 8
BITMAP
80
80
ENDCHAR
STARTCHAR uni0E49
ENCODING 3657
SWIDTH 0 0
DWIDTH 0 0
BBX 6 3 -7 8
BITMAP
E4
D4
18
ENDCHAR
STARTCHAR uni0E4A
ENCODING 3658
SWIDTH 0 0
DWIDTH 0 0
BBX 8 3 -9 8
BITMAP
E9
D5
06
ENDCHAR
STARTCHAR uni0E4B
ENCODING 3659
SWIDTH 0 0
DWIDTH 0 0
BBX 3 3 -5 8
BITMAP
40
E0
40
ENDCHAR
STARTCHAR uni0E4C
ENCODING 3660
SWIDTH 0 0
DWIDTH 0 0
BBX 4 3 -5 8
BITMAP
10
E0
C0
ENDCHAR
STARTCHAR uni0E4D
ENCODING 3661
SWIDTH 0 0
DWIDTH 0 0
BBX 2 2 -4 8
BITMAP
C0
C0
ENDCHAR
STARTCHAR uni0E4E
ENCODING 3662
SWIDTH 0 0
DWIDTH 0 0
BBX 3 5 -4 8
BITMAP
60
80
60
80
60
ENDCHAR
STARTCHAR uni0E4F
ENCODING 3663
SWIDTH 1000 0
DWIDTH 8 0
BBX 7 7 0 0
BITMAP
38
44
82
92
82
44
38
ENDCHAR
STARTCHAR uni0E50
ENCODING 3664
SWIDTH 1000 0
DWIDTH 8 0
BBX 7 7 0 0
BITMAP
38
44
82
82
82
44
38
ENDCHAR
STARTCHAR uni0E51
ENCODING 3665
SWIDTH 1125 0
DWIDTH 9 0
BBX 8 7 0 0
BITMAP
3C
42
81
99
99
49
32
ENDCHAR
STARTCHAR uni0E52
ENCODING 3666
SWIDTH 1000 0
DWIDTH 8 0
BBX 7 7 0 0
BITMAP
80
94
BA
B2
82
82
FE
ENDCHAR
STARTCHAR uni0E53
ENCODING 3667
SWIDTH 1000 0
DWIDTH 8 0
BBX 7 7 0 0
BITMAP
6C
92
92
82
82
C2
C4
ENDCHAR
STARTCHAR uni0E54
ENCODING 3668
SWIDTH 1125 0
DWIDTH 9 0
BBX 8 8 0 0
BITMAP
01
06
78
80
80
8C
8C
72
ENDCHAR
STARTCHAR uni0E55
ENCODING 3669
SWIDTH 1125 0
DWIDTH 9 0
BBX 8 8 0 0
BITMAP
01
36
78
80
80
8C
8C
72
ENDCHAR
STARTCHAR uni0E56
ENCODING 3670
SWIDTH 750 0
DWIDTH 6 0
BBX 5 8 0 0
BITMAP
80
40
70
08
68
68
48
30
ENDCHAR
STARTCHAR uni0E57
ENCODING 3671
SWIDTH 1250 0
DWIDTH 10 0
BBX 9 8 0 0
BITMAP
0080
6C80
9280
9280
8280
8280
C480
CF80
ENDCHAR
STARTCHAR uni0E58
ENCODING 3672
SWIDTH 1250 0
DWIDTH 10 0
BBX 9 8 0 0
BITMAP
0100
0600
7800
8000
8180
8980
9480
7300
ENDCHAR
STARTCHAR uni0E59
ENCODING 3673
SWIDTH 875 0
DWIDTH 7 0
BBX 6 8 0 0
BITMAP
04
54
A8
A0
90
90
C8
C8
ENDCHAR
STARTCHAR uni0E5A
ENCODING 3674
SWIDTH 875 0
DWIDTH 7 0
BBX 6 7 0 0
BITMAP
D4
F4
14
14
14
14
14
ENDCHAR
STARTCHAR uni0E5B
ENCODING 3675
SWIDTH 1875 0
DWIDTH 15 0
BBX 14 7 0 0
BITMAP
3800
4400
8000
8000
82A4
4558
3800
ENDCHAR
STARTCHAR uni10D0
ENCODING 4304
SWIDTH 750 0
DWIDTH 6 0
BBX 5 6 0 0
BITMAP
20
20
10
08
88
70
ENDCHAR
STARTCHAR uni10D1
ENCODING 4305
SWIDTH 750 0
DWIDTH 6 0
BBX 5 7 0 0
BITMAP
80
E0
20
70
88
88
70
ENDCHAR
STARTCHAR uni10D2
ENCODING 4306
SWIDTH 750 0
DWIDTH 6 0
BBX 5 8 0 -3
BITMAP
40
A0
20
70
88
88
88
70
ENDCHAR
STARTCHAR uni10D3
ENCODING 4307
SWIDTH 1000 0
DWIDTH 8 0
BBX 7 7 0 -3
BITMAP
6C
92
92
8C
80
40
FC
ENDCHAR
STARTCHAR uni10D4
ENCODING 4308
SWIDTH 625 0
DWIDTH 5 0
BBX 4 7 0 -3
BITMAP
60
90
10
10
90
90
60
ENDCHAR
STARTCHAR uni10D5
ENCODING 4309
SWIDTH 625 0
DWIDTH 5 0
BBX 4 7 0 -3
BITMAP
60
90
20
10
90
90
60
ENDCHAR
STARTCHAR uni10D6
ENCODING 4310
SWIDTH 875 0
DWIDTH 7 0
BBX 6 7 0 0
BITMAP
40
A0
60
38
24
24
18
ENDCHAR
STARTCHAR uni10D7
ENCODING 4311
SWIDTH 1000 0
DWIDTH 8 0
BBX 7 4 0 0
BITMAP
6C
92
92
64
ENDCHAR
STARTCHAR uni10D8
ENCODING 4312
SWIDTH 750 0
DWIDTH 6 0
BBX 5 4 0 0
BITMAP
70
88
88
50
ENDCHAR
STARTCHAR uni10D9
ENCODING 4313
SWIDTH 625 0
DWIDTH 5 0
BBX 4 7 0 -3
BITMAP
20
10
20
10
90
90
60
ENDCHAR
STARTCHAR uni10DA
ENCODING 4314
SWIDTH 1000 0
DWIDTH 8 0
BBX 7 7 0 -3
BITMAP
54
AA
82
84
80
40
FC
ENDCHAR
STARTCHAR uni10DB
ENCODING 4315
SWIDTH 625 0
DWIDTH 5 0
BBX 4 7 0 0
BITMAP
60
90
10
70
90
90
60
ENDCHAR
STARTCHAR uni10DC
ENCODING 4316
SWIDTH 625 0
DWIDTH 5 0
BBX 4 7 0 0
BITMAP
70
80
80
E0
90
90
60
ENDCHAR
STARTCHAR uni10DD
ENCODING 4317
SWIDTH 1000 0
DWIDTH 8 0
BBX 7 4 0 0
BITMAP
6C
92
82
44
ENDCHAR
STARTCHAR uni10DE
ENCODING 4318
SWIDTH 625 0
DWIDTH 5 0
BBX 4 8 0 -3
BITMAP
80
60
10
20
10
90
90
60
ENDCHAR
STARTCHAR uni10DF
ENCODING 4319
SWIDTH 625 0
DWIDTH 5 0
BBX 4 7 0 -3
BITMAP
B0
50
10
10
90
90
60
ENDCHAR
STARTCHAR uni10E0
ENCODING 4320
SWIDTH 1000 0
DWIDTH 8 0
BBX 7 7 0 0
BITMAP
06
78
80
EC
92
82
44
ENDCHAR
STARTCHAR uni10E1
ENCODING 4321
SWIDTH 625 0
DWIDTH 5 0
BBX 4 7 0 0
BITMAP
80
80
80
90
A0
90
60
ENDCHAR
STARTCHAR uni10E2
ENCODING 4322
SWIDTH 1125 0
DWIDTH 9 0
BBX 8 7 0 -3
BITMAP
0C
12
4C
92
89
41
3E
ENDCHAR
STARTCHAR uni10E3
ENCODING 4323
SWIDTH 875 0
DWIDTH 7 0
BBX 6 7 0 -3
BITMAP
A8
54
04
04
24
24
18
ENDCHAR
STARTCHAR uni10E4
ENCODING 4324
SWIDTH 1125 0
DWIDTH 9 0
BBX 8 7 0 -3
BITMAP
6E
91
92
61
09
09
06
ENDCHAR
STARTCHAR uni10E5
ENCODING 4325
SWIDTH 625 0
DWIDTH 5 0
BBX 4 10 0 -3
BITMAP
10
30
10
70
90
10
10
90
90
60
ENDCHAR
STARTCHAR uni10E6
ENCODING 4326
SWIDTH 1000 0
DWIDTH 8 0
BBX 7 7 0 -3
BITMAP
6C
92
82
84
80
40
FC
ENDCHAR
STARTCHAR uni10E7
ENCODING 4327
SWIDTH 625 0
DWIDTH 5 0
BBX 4 7 0 -3
BITMAP
90
90
70
10
90
90
60
ENDCHAR
STARTCHAR uni10E8
ENCODING 4328
SWIDTH 750 0
DWIDTH 6 0
BBX 5 7 0 0
BITMAP
50
A8
08
38
48
48
30
ENDCHAR
STARTCHAR uni10E9
ENCODING 4329
SWIDTH 625 0
DWIDTH 5 0
BBX 4 7 0 0
BITMAP
40
A0
80
E0
90
90
A0
ENDCHAR
STARTCHAR uni10EA
ENCODING 4330
SWIDTH 875 0
DWIDTH 7 0
BBX 6 8 0 -3
BITMAP
20
98
84
88
84
84
44
38
ENDCHAR
STARTCHAR uni10EB
ENCODING 4331
SWIDTH 625 0
DWIDTH 5 0
BBX 4 7 0 0
BITMAP
20
10
10
70
90
90
60
ENDCHAR
STARTCHAR uni10EC
ENCODING 4332
SWIDTH 750 0
DWIDTH 6 0
BBX 5 10 0 -3
BITMAP
50
A8
80
F8
88
88
50
50
20
20
ENDCHAR
STARTCHAR uni10ED
ENCODING 4333
SWIDTH 750 0
DWIDTH 6 0
BBX 5 10 0 -3
BITMAP
80
E0
20
70
A0
70
20
10
88
70
ENDCHAR
STARTCHAR uni10EE
ENCODING 4334
SWIDTH 625 0
DWIDTH 5 0
BBX 4 7 0 0
BITMAP
80
A0
C0
E0
90
90
60
ENDCHAR
STARTCHAR uni10EF
ENCODING 4335
SWIDTH 750 0
DWIDTH 6 0
BBX 5 8 0 -3
BITMAP
A0
70
28
20
10
08
88
70
ENDCHAR
STARTCHAR uni10F0
ENCODING 4336
SWIDTH 625 0
DWIDTH 5 0
BBX 4 10 0 -3
BITMAP
80
60
10
20
10
20
10
90
90
60
ENDCHAR
STARTCHAR uni10F1
ENCODING 4337
SWIDTH 1000 0
DWIDTH 8 0
BBX 7 7 0 0
BITMAP
4C
A2
A4
C2
84
42
3C
ENDCHAR
STARTCHAR uni10F2
ENCODING 4338
SWIDTH 1000 0
DWIDTH 8 0
BBX 7 7 0 -3
BITMAP
38
44
44
44
28
10
EE
ENDCHAR
STARTCHAR uni10F3
ENCODING 4339
SWIDTH 625 0
DWIDTH 5 0
BBX 4 7 0 -3
BITMAP
F0
10
20
10
90
90
60
ENDCHAR
STARTCHAR uni10F4
ENCODING 4340
SWIDTH 625 0
DWIDTH 5 0
BBX 4 10 0 -3
BITMAP
60
90
80
60
10
20
10
90
90
60
ENDCHAR
STARTCHAR uni10F5
ENCODING 4341
SWIDTH 625 0
DWIDTH 5 0
BBX 4 7 0 0
BITMAP
40
A0
70
20
70
A0
40
ENDCHAR
STARTCHAR uni10F6
ENCODING 4342
SWIDTH 1000 0
DWIDTH 8 0
BBX 7 10 0 -3
BITMAP
20
10
10
7C
92
92
7C
10
10
08
ENDCHAR
STARTCHAR uni10F7
ENCODING 4343
SWIDTH 625 0
DWIDTH 5 0
BBX 4 7 0 -3
BITMAP
60
90
10
60
80
90
60
ENDCHAR
STARTCHAR uni10F8
ENCODING 4344
SWIDTH 625 0
DWIDTH 5 0
BBX 4 7 0 -3
BITMAP
90
90
E0
80
90
90
60
ENDCHAR
STARTCHAR uni10F9
ENCODING 4345
SWIDTH 750 0
DWIDTH 6 0
BBX 5 7 0 0
BITMAP
70
88
88
70
20
28
10
ENDCHAR
STARTCHAR uni10FA
ENCODING 4346
SWIDTH 750 0
DWIDTH 6 0
BBX 5 7 0 -3
BITMAP
70
88
88
90
80
40
F8
ENDCHAR
STARTCHAR uni10FB
ENCODING 4347
SWIDTH 500 0
DWIDTH 4 0
BBX 3 3 0 1
BITMAP
80
20
80
ENDCHAR
STARTCHAR uni10FC
ENCODING 4348
SWIDTH 500 0
DWIDTH 4 0
BBX 3 5 0 3
BITMAP
60
80
C0
A0
40
ENDCHAR
STARTCHAR uni10FD
ENCODING 4349
SWIDTH 625 0
DWIDTH 5 0
BBX 4 7 0 0
BITMAP
60
90
80
60
10
90
60
ENDCHAR
STARTCHAR uni10FE
ENCODING 4350
SWIDTH 1000 0
DWIDTH 8 0
BBX 7 6 0 0
BITMAP
EE
10
28
44
44
38
ENDCHAR
STARTCHAR uni10FF
ENCODING 4351
SWIDTH 625 0
DWIDTH 5 0
BBX 4 4 0 0
BITMAP
60
90
90
60
ENDCHAR
STARTCHAR uni1100
ENCODING 4352
SWIDTH 750 0
DWIDTH 6 0
BBX 5 5 0 2
BITMAP
F8
08
08
08
08
ENDCHAR
STARTCHAR uni1101
ENCODING 4353
SWIDTH 1000 0
DWIDTH 8 0
BBX 7 5 0 2
BITMAP
EE
22
22
22
22
ENDCHAR
STARTCHAR uni1102
ENCODING 4354
SWIDTH 750 0
DWIDTH 6 0
BBX 5 5 0 2
BITMAP
80
80
80
80
F8
ENDCHAR
STARTCHAR uni1103
ENCODING 4355
SWIDTH 750 0
DWIDTH 6 0
BBX 5 5 0 2
BITMAP
F8
80
80
80
F8
ENDCHAR
STARTCHAR uni1104
ENCODING 4356
SWIDTH 1000 0
DWIDTH 8 0
BBX 7 5 0 2
BITMAP
EE
88
88
88
EE
ENDCHAR
STARTCHAR uni1105
ENCODING 4357
SWIDTH 750 0
DWIDTH 6 0
BBX 5 5 0 2
BITMAP
F8
08
F8
80
F8
ENDCHAR
STARTCHAR uni1106
ENCODING 4358
SWIDTH 750 0
DWIDTH 6 0
BBX 5 5 0 2
BITMAP
F8
88
88
88
F8
ENDCHAR
STARTCHAR uni1107
ENCODING 4359
SWIDTH 750 0
DWIDTH 6 0
BBX 5 5 0 2
BITMAP
88
88
F8
88
F8
ENDCHAR
STARTCHAR uni1108
ENCODING 4360
SWIDTH 1000 0
DWIDTH 8 0
BBX 7 5 0 2
BITMAP
AA
AA
EE
AA
EE
ENDCHAR
STARTCHAR uni1109
ENCODING 4361
SWIDTH 750 0
DWIDTH 6 0
BBX 5 5 0 2
BITMAP
20
20
50
50
88
ENDCHAR
STARTCHAR uni110A
ENCODING 4362
SWIDTH 1000 0
DWIDTH 8 0
BBX 7 5 0 2
BITMAP
44
44
44
AA
AA
ENDCHAR
STARTCHAR uni110B
ENCODING 4363
SWIDTH 750 0
DWIDTH 6 0
BBX 5 5 0 2
BITMAP
70
88
88
88
70
ENDCHAR
STARTCHAR uni110C
ENCODING 4364
SWIDTH 750 0
DWIDTH 6 0
BBX 5 5 0 2
BITMAP
F8
20
20
50
88
ENDCHAR
STARTCHAR uni110D
ENCODING 4365
SWIDTH 1000 0
DWIDTH 8 0
BBX 7 5 0 2
BITMAP
EE
44
44
AA
AA
ENDCHAR
STARTCHAR uni110E
ENCODING 4366
SWIDTH 750 0
DWIDTH 6 0
BBX 5 5 0 2
BITMAP
20
F8
20
50
88
ENDCHAR
STARTCHAR uni110F
ENCODING 4367
SWIDTH 750 0
DWIDTH 6 0
BBX 5 5 0 2
BITMAP
F8
08
F8
08
08
ENDCHAR
STARTCHAR uni1110
ENCODING 4368
SWIDTH 750 0
DWIDTH 6 0
BBX 5 5 0 2
BITMAP
F8
80
F8
80
F8
ENDCHAR
STARTCHAR uni1111
ENCODING 4369
SWIDTH 750 0
DWIDTH 6 0
BBX 5 5 0 2
BITMAP
F8
00
50
50
F8
ENDCHAR
STARTCHAR uni1112
ENCODING 4370
SWIDTH 750 0
DWIDTH 6 0
BBX 5 5 0 2
BITMAP
20
F8
70
88
70
ENDCHAR
STARTCHAR uni1161
ENCODING 4449
SWIDTH 375 0
DWIDTH 3 0
BBX 2 7 0 0
BITMAP
80
80
80
C0
80
80
80
ENDCHAR
STARTCHAR uni1162
ENCODING 4450
SWIDTH 500 0
DWIDTH 4 0
BBX 3 7 0 0
BITMAP
A0
A0
A0
E0
A0
A0
A0
ENDCHAR
STARTCHAR uni1163
ENCODING 4451
SWIDTH 375 0
DWIDTH 3 0
BBX 2 7 0 0
BITMAP
80
80
C0
80
C0
80
80
ENDCHAR
STARTCHAR uni1164
ENCODING 4452
SWIDTH 500 0
DWIDTH 4 0
BBX 3 7 0 0
BITMAP
A0
A0
E0
A0
E0
A0
A0
ENDCHAR
STARTCHAR uni1165
ENCODING 4453
SWIDTH 375 0
DWIDTH 3 0
BBX 2 7 0 0
BITMAP
40
40
40
C0
40
40
40
ENDCHAR
STARTCHAR uni1166
ENCODING 4454
SWIDTH 750 0
DWIDTH 6 0
BBX 4 7 0 0
BITMAP
50
50
50
D0
50
50
50
ENDCHAR
STARTCHAR uni1167
ENCODING 4455
SWIDTH 375 0
DWIDTH 3 0
BBX 2 7 0 0
BITMAP
40
40
C0
40
C0
40
40
ENDCHAR
STARTCHAR uni1168
ENCODING 4456
SWIDTH 625 0
DWIDTH 5 0
BBX 4 7 0 0
BITMAP
50
50
D0
50
D0
50
50
ENDCHAR
STARTCHAR uni1169
ENCODING 4457
SWIDTH 750 0
DWIDTH 6 0
BBX 5 2 0 3
BITMAP
20
F8
ENDCHAR
STARTCHAR uni116A
ENCODING 4458
SWIDTH 875 0
DWIDTH 7 0
BBX 6 7 0 0
BITMAP
08
08
48
EC
08
08
08
ENDCHAR
STARTCHAR uni116B
ENCODING 4459
SWIDTH 1000 0
DWIDTH 8 0
BBX 7 7 0 0
BITMAP
0A
0A
4A
EE
0A
0A
0A
ENDCHAR
STARTCHAR uni116C
ENCODING 4460
SWIDTH 750 0
DWIDTH 6 0
BBX 5 7 0 0
BITMAP
08
08
48
E8
08
08
08
ENDCHAR
STARTCHAR uni116D
ENCODING 4461
SWIDTH 750 0
DWIDTH 6 0
BBX 5 2 0 3
BITMAP
50
F8
ENDCHAR
STARTCHAR uni116E
ENCODING 4462
SWIDTH 750 0
DWIDTH 6 0
BBX 5 2 0 2
BITMAP
F8
20
ENDCHAR
STARTCHAR uni116F
ENCODING 4463
SWIDTH 750 0
DWIDTH 6 0
BBX 5 7 0 0
BITMAP
08
18
08
E8
48
08
08
ENDCHAR
STARTCHAR uni1170
ENCODING 4464
SWIDTH 1000 0
DWIDTH 8 0
BBX 7 7 0 0
BITMAP
0A
1A
0A
EA
4A
0A
0A
ENDCHAR
STARTCHAR uni1171
ENCODING 4465
SWIDTH 750 0
DWIDTH 6 0
BBX 5 7 0 0
BITMAP
08
08
08
E8
48
08
08
ENDCHAR
STARTCHAR uni1172
ENCODING 4466
SWIDTH 750 0
DWIDTH 6 0
BBX 5 2 0 2
BITMAP
F8
50
ENDCHAR
STARTCHAR uni1173
ENCODING 4467
SWIDTH 750 0
DWIDTH 6 0
BBX 5 1 0 3
BITMAP
F8
ENDCHAR
STARTCHAR uni1174
ENCODING 4468
SWIDTH 750 0
DWIDTH 6 0
BBX 5 7 0 0
BITMAP
08
08
08
E8
08
08
08
ENDCHAR
STARTCHAR uni1175
ENCODING 4469
SWIDTH 250 0
DWIDTH 2 0
BBX 1 7 0 0
BITMAP
80
80
80
80
80
80
80
ENDCHAR
STARTCHAR uni11A8
ENCODING 4520
SWIDTH 750 0
DWIDTH 6 0
BBX 5 5 0 0
BITMAP
F8
08
08
08
08
ENDCHAR
STARTCHAR uni11A9
ENCODING 4521
SWIDTH 1000 0
DWIDTH 8 0
BBX 7 5 0 0
BITMAP
EE
22
22
22
22
ENDCHAR
STARTCHAR uni11AA
ENCODING 4522
SWIDTH 1000 0
DWIDTH 8 0
BBX 7 5 0 0
BITMAP
E4
24
24
2A
2A
ENDCHAR
STARTCHAR uni11AB
ENCODING 4523
SWIDTH 750 0
DWIDTH 6 0
BBX 5 5 0 0
BITMAP
80
80
80
80
F8
ENDCHAR
STARTCHAR uni11AC
ENCODING 4524
SWIDTH 1000 0
DWIDTH 8 0
BBX 7 5 0 0
BITMAP
8E
84
84
8A
EA
ENDCHAR
STARTCHAR uni11AD
ENCODING 4525
SWIDTH 1000 0
DWIDTH 8 0
BBX 7 5 0 0
BITMAP
84
8E
84
8A
E4
ENDCHAR
STARTCHAR uni11AE
ENCODING 4526
SWIDTH 750 0
DWIDTH 6 0
BBX 5 5 0 0
BITMAP
F8
80
80
80
F8
ENDCHAR
STARTCHAR uni11AF
ENCODING 4527
SWIDTH 750 0
DWIDTH 6 0
BBX 5 5 0 0
BITMAP
F8
08
F8
80
F8
ENDCHAR
STARTCHAR uni11B0
ENCODING 4528
SWIDTH 1000 0
DWIDTH 8 0
BBX 7 5 0 0
BITMAP
EE
22
E2
82
E2
ENDCHAR
STARTCHAR uni11B1
ENCODING 4529
SWIDTH 1000 0
DWIDTH 8 0
BBX 7 5 0 0
BITMAP
EE
2A
EA
8A
EE
ENDCHAR
STARTCHAR uni11B2
ENCODING 4530
SWIDTH 1000 0
DWIDTH 8 0
BBX 7 5 0 0
BITMAP
EA
2A
EE
8A
EE
ENDCHAR
STARTCHAR uni11B3
ENCODING 4531
SWIDTH 1000 0
DWIDTH 8 0
BBX 7 5 0 0
BITMAP
E4
24
E4
8A
EA
ENDCHAR
STARTCHAR uni11B4
ENCODING 4532
SWIDTH 1000 0
DWIDTH 8 0
BBX 7 5 0 0
BITMAP
EE
28
EE
88
EE
ENDCHAR
STARTCHAR uni11B5
ENCODING 4533
SWIDTH 1000 0
DWIDTH 8 0
BBX 7 5 0 0
BITMAP
EE
20
EA
8A
EE
ENDCHAR
STARTCHAR uni11B6
ENCODING 4534
SWIDTH 1000 0
DWIDTH 8 0
BBX 7 5 0 0
BITMAP
E4
2E
E4
8A
E4
ENDCHAR
STARTCHAR uni11B7
ENCODING 4535
SWIDTH 750 0
DWIDTH 6 0
BBX 5 5 0 0
BITMAP
F8
88
88
88
F8
ENDCHAR
STARTCHAR uni11B8
ENCODING 4536
SWIDTH 750 0
DWIDTH 6 0
BBX 5 5 0 0
BITMAP
88
88
F8
88
F8
ENDCHAR
STARTCHAR uni11B9
ENCODING 4537
SWIDTH 1000 0
DWIDTH 8 0
BBX 7 5 0 0
BITMAP
A4
A4
E4
AA
EA
ENDCHAR
STARTCHAR uni11BA
ENCODING 4538
SWIDTH 750 0
DWIDTH 6 0
BBX 5 5 0 0
BITMAP
20
20
50
50
88
ENDCHAR
STARTCHAR uni11BB
ENCODING 4539
SWIDTH 1000 0
DWIDTH 8 0
BBX 7 5 0 0
BITMAP
44
44
44
AA
AA
ENDCHAR
STARTCHAR uni11BC
ENCODING 4540
SWIDTH 750 0
DWIDTH 6 0
BBX 5 5 0 0
BITMAP
70
88
88
88
70
ENDCHAR
STARTCHAR uni11BD
ENCODING 4541
SWIDTH 750 0
DWIDTH 6 0
BBX 5 5 0 0
BITMAP
F8
20
20
50
88
ENDCHAR
STARTCHAR uni11BE
ENCODING 4542
SWIDTH 750 0
DWIDTH 6 0
BBX 5 5 0 0
BITMAP
20
F8
20
50
88
ENDCHAR
STARTCHAR uni11BF
ENCODING 4543
SWIDTH 750 0
DWIDTH 6 0
BBX 5 5 0 0
BITMAP
F8
08
F8
08
08
ENDCHAR
STARTCHAR uni11C0
ENCODING 4544
SWIDTH 750 0
DWIDTH 6 0
BBX 5 5 0 0
BITMAP
F8
80
F8
80
F8
ENDCHAR
STARTCHAR uni11C1
ENCODING 4545
SWIDTH 750 0
DWIDTH 6 0
BBX 5 5 0 0
BITMAP
F8
00
50
50
F8
ENDCHAR
STARTCHAR uni11C2
ENCODING 4546
SWIDTH 750 0
DWIDTH 6 0
BBX 5 5 0 0
BITMAP
20
F8
70
88
70
ENDCHAR
STARTCHAR uni1200
ENCODING 4608
SWIDTH 625 0
DWIDTH 5 0
BBX 4 7 0 0
BITMAP
90
90
90
90
90
90
60
ENDCHAR
STARTCHAR uni1201
ENCODING 4609
SWIDTH 875 0
DWIDTH 7 0
BBX 6 7 0 0
BITMAP
90
90
9C
94
90
90
60
ENDCHAR
STARTCHAR uni1202
ENCODING 4610
SWIDTH 875 0
DWIDTH 7 0
BBX 6 8 0 -1
BITMAP
90
90
70
10
10
10
1C
04
ENDCHAR
STARTCHAR uni1203
ENCODING 4611
SWIDTH 750 0
DWIDTH 6 0
BBX 4 7 0 0
BITMAP
90
90
70
10
10
10
10
ENDCHAR
STARTCHAR uni1204
ENCODING 4612
SWIDTH 875 0
DWIDTH 7 0
BBX 6 7 0 0
BITMAP
90
90
70
10
18
14
18
ENDCHAR
STARTCHAR uni1205
ENCODING 4613
SWIDTH 625 0
DWIDTH 5 0
BBX 4 7 0 0
BITMAP
90
D0
50
90
90
90
60
ENDCHAR
STARTCHAR uni1206
ENCODING 4614
SWIDTH 875 0
DWIDTH 7 0
BBX 6 7 0 0
BITMAP
98
94
98
90
90
90
60
ENDCHAR
STARTCHAR uni1207
ENCODING 4615
SWIDTH 1125 0
DWIDTH 9 0
BBX 8 7 0 0
BITMAP
26
25
E6
A4
24
24
18
ENDCHAR
STARTCHAR uni1208
ENCODING 4616
SWIDTH 750 0
DWIDTH 6 0
BBX 5 7 0 0
BITMAP
08
08
38
48
88
88
88
ENDCHAR
STARTCHAR uni1209
ENCODING 4617
SWIDTH 1000 0
DWIDTH 8 0
BBX 7 7 0 0
BITMAP
08
08
3E
4A
88
88
88
ENDCHAR
STARTCHAR uni120A
ENCODING 4618
SWIDTH 1000 0
DWIDTH 8 0
BBX 7 8 0 -1
BITMAP
08
08
38
48
88
88
8E
02
ENDCHAR
STARTCHAR uni120B
ENCODING 4619
SWIDTH 750 0
DWIDTH 6 0
BBX 5 7 0 0
BITMAP
08
08
38
48
88
08
08
ENDCHAR
STARTCHAR uni120C
ENCODING 4620
SWIDTH 1000 0
DWIDTH 8 0
BBX 7 7 0 0
BITMAP
08
08
38
48
8C
8A
8C
ENDCHAR
STARTCHAR uni120D
ENCODING 4621
SWIDTH 750 0
DWIDTH 6 0
BBX 5 7 0 0
BITMAP
08
08
78
88
C8
A8
C8
ENDCHAR
STARTCHAR uni120E
ENCODING 4622
SWIDTH 1250 0
DWIDTH 10 0
BBX 9 7 0 0
BITMAP
0800
0800
3F00
4A80
8900
8800
8800
ENDCHAR
STARTCHAR uni120F
ENCODING 4623
SWIDTH 1000 0
DWIDTH 8 0
BBX 7 9 0 -2
BITMAP
08
08
38
48
88
08
08
3E
22
ENDCHAR
STARTCHAR uni1210
ENCODING 4624
SWIDTH 750 0
DWIDTH 6 0
BBX 5 7 0 0
BITMAP
20
20
20
78
A8
A8
A8
ENDCHAR
STARTCHAR uni1211
ENCODING 4625
SWIDTH 1125 0
DWIDTH 9 0
BBX 8 7 0 0
BITMAP
20
20
20
78
AF
A9
A8
ENDCHAR
STARTCHAR uni1212
ENCODING 4626
SWIDTH 1125 0
DWIDTH 9 0
BBX 8 8 0 -1
BITMAP
20
20
20
78
A8
A8
AF
01
ENDCHAR
STARTCHAR uni1213
ENCODING 4627
SWIDTH 750 0
DWIDTH 6 0
BBX 5 7 0 0
BITMAP
20
20
20
78
A8
08
08
ENDCHAR
STARTCHAR uni1214
ENCODING 4628
SWIDTH 1000 0
DWIDTH 8 0
BBX 7 7 0 0
BITMAP
20
20
20
78
AC
AA
AC
ENDCHAR
STARTCHAR uni1215
ENCODING 4629
SWIDTH 750 0
DWIDTH 6 0
BBX 5 8 0 0
BITMAP
80
E0
20
20
78
A8
A8
A8
ENDCHAR
STARTCHAR uni1216
ENCODING 4630
SWIDTH 750 0
DWIDTH 6 0
BBX 5 7 0 0
BITMAP
20
20
20
78
A8
80
80
ENDCHAR
STARTCHAR uni1217
ENCODING 4631
SWIDTH 1000 0
DWIDTH 8 0
BBX 7 9 0 -2
BITMAP
20
20
20
78
A8
08
08
3E
22
ENDCHAR
STARTCHAR uni1218
ENCODING 4632
SWIDTH 1000 0
DWIDTH 8 0
BBX 7 4 0 3
BITMAP
7C
AA
AE
E0
ENDCHAR
STARTCHAR uni1219
ENCODING 4633
SWIDTH 1250 0
DWIDTH 10 0
BBX 9 4 0 3
BITMAP
7C00
AB80
AE80
E000
ENDCHAR
STARTCHAR uni121A
ENCODING 4634
SWIDTH 1250 0
DWIDTH 10 0
BBX 9 8 0 -1
BITMAP
7C00
AA00
AE00
E200
0200
0200
0380
0080
ENDCHAR
STARTCHAR uni121B
ENCODING 4635
SWIDTH 1250 0
DWIDTH 10 0
BBX 7 7 0 0
BITMAP
7C
AA
AE
E2
02
02
02
ENDCHAR
STARTCHAR uni121C
ENCODING 4636
SWIDTH 1250 0
DWIDTH 10 0
BBX 9 7 0 0
BITMAP
7C00
AA00
AE00
E200
0300
0280
0300
ENDCHAR
STARTCHAR uni121D
ENCODING 4637
SWIDTH 1250 0
DWIDTH 10 0
BBX 7 7 0 0
BITMAP
7C
AA
AE
E0
20
40
80
ENDCHAR
STARTCHAR uni121E
ENCODING 4638
SWIDTH 1250 0
DWIDTH 10 0
BBX 7 7 0 0
BITMAP
7C
AA
AE
E0
20
20
20
ENDCHAR
STARTCHAR uni121F
ENCODING 4639
SWIDTH 1250 0
DWIDTH 10 0
BBX 9 9 0 -2
BITMAP
7C00
AA00
AE00
E200
0200
0200
0200
0F80
0880
ENDCHAR
STARTCHAR uni1220
ENCODING 4640
SWIDTH 750 0
DWIDTH 6 0
BBX 5 4 0 3
BITMAP
A8
A8
A8
50
ENDCHAR
STARTCHAR uni1221
ENCODING 4641
SWIDTH 1125 0
DWIDTH 9 0
BBX 8 4 0 3
BITMAP
A8
AF
A9
50
ENDCHAR
STARTCHAR uni1222
ENCODING 4642
SWIDTH 1000 0
DWIDTH 8 0
BBX 7 8 0 -1
BITMAP
A8
A8
A8
58
08
08
0E
02
ENDCHAR
STARTCHAR uni1223
ENCODING 4643
SWIDTH 750 0
DWIDTH 6 0
BBX 5 7 0 0
BITMAP
A8
A8
A8
58
08
08
08
ENDCHAR
STARTCHAR uni1224
ENCODING 4644
SWIDTH 1000 0
DWIDTH 8 0
BBX 7 7 0 0
BITMAP
A8
A8
A8
58
0C
0A
0C
ENDCHAR
STARTCHAR uni1225
ENCODING 4645
SWIDTH 1000 0
DWIDTH 8 0
BBX 7 7 0 0
BITMAP
2A
2A
6A
54
80
80
80
ENDCHAR
STARTCHAR uni1226
ENCODING 4646
SWIDTH 875 0
DWIDTH 7 0
BBX 6 7 0 0
BITMAP
54
54
54
28
20
40
80
ENDCHAR
STARTCHAR uni1227
ENCODING 4647
SWIDTH 1000 0
DWIDTH 8 0
BBX 7 9 0 -2
BITMAP
A8
A8
A8
58
08
08
08
3E
22
ENDCHAR
STARTCHAR uni1228
ENCODING 4648
SWIDTH 750 0
DWIDTH 6 0
BBX 5 8 0 -1
BITMAP
10
10
20
40
80
80
F8
08
ENDCHAR
STARTCHAR uni1229
ENCODING 4649
SWIDTH 750 0
DWIDTH 6 0
BBX 5 7 0 0
BITMAP
20
20
40
80
F8
28
20
ENDCHAR
STARTCHAR uni122A
ENCODING 4650
SWIDTH 750 0
DWIDTH 6 0
BBX 5 7 0 0
BITMAP
10
10
20
40
80
88
F0
ENDCHAR
STARTCHAR uni122B
ENCODING 4651
SWIDTH 750 0
DWIDTH 6 0
BBX 5 7 0 0
BITMAP
10
10
20
40
98
A8
C0
ENDCHAR
STARTCHAR uni122C
ENCODING 4652
SWIDTH 750 0
DWIDTH 6 0
BBX 5 7 0 0
BITMAP
10
10
20
40
90
A8
F0
ENDCHAR
STARTCHAR uni122D
ENCODING 4653
SWIDTH 750 0
DWIDTH 6 0
BBX 5 8 0 -1
BITMAP
38
48
80
80
80
80
F8
08
ENDCHAR
STARTCHAR uni122E
ENCODING 4654
SWIDTH 875 0
DWIDTH 7 0
BBX 6 8 0 -1
BITMAP
38
54
88
80
80
80
F8
08
ENDCHAR
STARTCHAR uni122F
ENCODING 4655
SWIDTH 875 0
DWIDTH 7 0
BBX 6 8 0 0
BITMAP
44
7C
10
20
40
98
A8
C0
ENDCHAR
STARTCHAR uni1230
ENCODING 4656
SWIDTH 750 0
DWIDTH 6 0
BBX 5 7 0 0
BITMAP
20
20
70
88
88
88
88
ENDCHAR
STARTCHAR uni1231
ENCODING 4657
SWIDTH 1000 0
DWIDTH 8 0
BBX 7 7 0 0
BITMAP
20
20
70
88
8E
8A
88
ENDCHAR
STARTCHAR uni1232
ENCODING 4658
SWIDTH 1000 0
DWIDTH 8 0
BBX 7 8 0 -1
BITMAP
20
20
70
88
88
88
8E
02
ENDCHAR
STARTCHAR uni1233
ENCODING 4659
SWIDTH 750 0
DWIDTH 6 0
BBX 5 7 0 0
BITMAP
20
20
70
88
88
08
08
ENDCHAR
STARTCHAR uni1234
ENCODING 4660
SWIDTH 1000 0
DWIDTH 8 0
BBX 7 7 0 0
BITMAP
20
20
70
88
8C
8A
8C
ENDCHAR
STARTCHAR uni1235
ENCODING 4661
SWIDTH 750 0
DWIDTH 6 0
BBX 5 7 0 0
BITMAP
40
20
70
88
88
88
88
ENDCHAR
STARTCHAR uni1236
ENCODING 4662
SWIDTH 750 0
DWIDTH 6 0
BBX 5 7 0 0
BITMAP
20
70
88
88
88
80
80
ENDCHAR
STARTCHAR uni1237
ENCODING 4663
SWIDTH 1000 0
DWIDTH 8 0
BBX 7 9 0 -2
BITMAP
20
20
70
88
88
08
08
3E
22
ENDCHAR
STARTCHAR uni1238
ENCODING 4664
SWIDTH 750 0
DWIDTH 6 0
BBX 5 8 0 0
BITMAP
88
F8
20
70
88
88
88
88
ENDCHAR
STARTCHAR uni1239
ENCODING 4665
SWIDTH 1000 0
DWIDTH 8 0
BBX 7 8 0 0
BITMAP
88
F8
20
70
88
8E
8A
88
ENDCHAR
STARTCHAR uni123A
ENCODING 4666
SWIDTH 1000 0
DWIDTH 8 0
BBX 7 9 0 -1
BITMAP
88
F8
20
70
88
88
88
8E
02
ENDCHAR
STARTCHAR uni123B
ENCODING 4667
SWIDTH 750 0
DWIDTH 6 0
BBX 5 8 0 0
BITMAP
88
F8
20
70
88
88
08
08
ENDCHAR
STARTCHAR uni123C
ENCODING 4668
SWIDTH 1000 0
DWIDTH 8 0
BBX 7 8 0 0
BITMAP
88
F8
20
70
88
8C
8A
8C
ENDCHAR
STARTCHAR uni123D
ENCODING 4669
SWIDTH 875 0
DWIDTH 7 0
BBX 6 8 0 0
BITMAP
88
F8
20
38
44
44
44
44
ENDCHAR
STARTCHAR uni123E
ENCODING 4670
SWIDTH 750 0
DWIDTH 6 0
BBX 5 8 0 0
BITMAP
88
F8
20
70
88
88
80
80
ENDCHAR
STARTCHAR uni123F
ENCODING 4671
SWIDTH 1000 0
DWIDTH 8 0
BBX 7 10 0 -2
BITMAP
88
F8
20
70
88
88
88
88
3E
22
ENDCHAR
STARTCHAR uni1240
ENCODING 4672
SWIDTH 750 0
DWIDTH 6 0
BBX 5 7 0 0
BITMAP
20
20
70
A8
70
20
20
ENDCHAR
STARTCHAR uni1241
ENCODING 4673
SWIDTH 750 0
DWIDTH 6 0
BBX 5 7 0 0
BITMAP
20
70
A8
70
20
38
28
ENDCHAR
STARTCHAR uni1242
ENCODING 4674
SWIDTH 750 0
DWIDTH 6 0
BBX 5 8 0 -1
BITMAP
20
20
70
A8
70
20
38
08
ENDCHAR
STARTCHAR uni1243
ENCODING 4675
SWIDTH 750 0
DWIDTH 6 0
BBX 5 8 0 -1
BITMAP
20
20
70
A8
70
20
C0
80
ENDCHAR
STARTCHAR uni1244
ENCODING 4676
SWIDTH 875 0
DWIDTH 7 0
BBX 6 8 0 -1
BITMAP
20
70
A8
70
20
38
24
38
ENDCHAR
STARTCHAR uni1245
ENCODING 4677
SWIDTH 750 0
DWIDTH 6 0
BBX 5 8 0 0
BITMAP
80
E0
20
70
A8
70
20
20
ENDCHAR
STARTCHAR uni1246
ENCODING 4678
SWIDTH 750 0
DWIDTH 6 0
BBX 5 8 0 0
BITMAP
20
50
20
70
A8
70
20
20
ENDCHAR
STARTCHAR uni1247
ENCODING 4679
SWIDTH 750 0
DWIDTH 6 0
BBX 5 9 0 -1
BITMAP
20
50
20
70
A8
70
20
E0
80
ENDCHAR
STARTCHAR uni1248
ENCODING 4680
SWIDTH 1000 0
DWIDTH 8 0
BBX 7 8 0 -1
BITMAP
20
70
A8
70
20
3C
2A
04
ENDCHAR
STARTCHAR uni1249
ENCODING 4681
SWIDTH 750 0
DWIDTH 6 0
BBX 1 1 0 0
BITMAP
00
ENDCHAR
STARTCHAR uni124A
ENCODING 4682
SWIDTH 1000 0
DWIDTH 8 0
BBX 7 7 0 0
BITMAP
20
20
74
AC
76
22
20
ENDCHAR
STARTCHAR uni124B
ENCODING 4683
SWIDTH 750 0
DWIDTH 6 0
BBX 5 8 0 -1
BITMAP
20
70
A8
70
20
F8
88
08
ENDCHAR
STARTCHAR uni124C
ENCODING 4684
SWIDTH 875 0
DWIDTH 7 0
BBX 6 9 0 -1
BITMAP
20
70
A8
70
20
38
24
F8
80
ENDCHAR
STARTCHAR uni124D
ENCODING 4685
SWIDTH 1000 0
DWIDTH 8 0
BBX 7 7 0 0
BITMAP
20
20
74
AE
72
20
20
ENDCHAR
STARTCHAR uni124E
ENCODING 4686
SWIDTH 1250 0
DWIDTH 10 0
BBX 1 1 0 0
BITMAP
00
ENDCHAR
STARTCHAR uni124F
ENCODING 4687
SWIDTH 1250 0
DWIDTH 10 0
BBX 1 1 0 0
BITMAP
00
ENDCHAR
STARTCHAR uni1250
ENCODING 4688
SWIDTH 750 0
DWIDTH 6 0
BBX 5 8 0 0
BITMAP
88
F8
20
70
A8
70
20
20
ENDCHAR
STARTCHAR uni1251
ENCODING 4689
SWIDTH 750 0
DWIDTH 6 0
BBX 5 9 0 -1
BITMAP
88
F8
20
70
A8
70
20
38
28
ENDCHAR
STARTCHAR uni1252
ENCODING 4690
SWIDTH 750 0
DWIDTH 6 0
BBX 5 9 0 -1
BITMAP
88
F8
20
70
A8
70
20
38
08
ENDCHAR
STARTCHAR uni1253
ENCODING 4691
SWIDTH 750 0
DWIDTH 6 0
BBX 5 9 0 -1
BITMAP
88
F8
20
70
A8
70
20
C0
80
ENDCHAR
STARTCHAR uni1254
ENCODING 4692
SWIDTH 875 0
DWIDTH 7 0
BBX 6 10 0 -1
BITMAP
88
F8
20
70
A8
70
20
38
24
38
ENDCHAR
STARTCHAR uni1255
ENCODING 4693
SWIDTH 1000 0
DWIDTH 8 0
BBX 7 9 0 -1
BITMAP
88
F8
20
38
08
1C
2A
1C
08
ENDCHAR
STARTCHAR uni1256
ENCODING 4694
SWIDTH 750 0
DWIDTH 6 0
BBX 5 8 0 0
BITMAP
88
F8
50
20
70
A8
70
20
ENDCHAR
STARTCHAR uni1257
ENCODING 4695
SWIDTH 750 0
DWIDTH 6 0
BBX 1 1 0 0
BITMAP
00
ENDCHAR
STARTCHAR uni1258
ENCODING 4696
SWIDTH 1000 0
DWIDTH 8 0
BBX 7 10 0 -2
BITMAP
88
F8
20
70
A8
70
20
3C
0A
04
ENDCHAR
STARTCHAR uni1259
ENCODING 4697
SWIDTH 750 0
DWIDTH 6 0
BBX 1 1 0 0
BITMAP
00
ENDCHAR
STARTCHAR uni125A
ENCODING 4698
SWIDTH 1000 0
DWIDTH 8 0
BBX 7 8 0 0
BITMAP
88
F8
20
74
AC
76
22
20
ENDCHAR
STARTCHAR uni125B
ENCODING 4699
SWIDTH 750 0
DWIDTH 6 0
BBX 5 10 0 -2
BITMAP
88
F8
20
70
A8
70
20
F8
88
08
ENDCHAR
STARTCHAR uni125C
ENCODING 4700
SWIDTH 875 0
DWIDTH 7 0
BBX 6 10 0 -2
BITMAP
88
F8
70
A8
70
20
38
24
F8
80
ENDCHAR
STARTCHAR uni125D
ENCODING 4701
SWIDTH 1000 0
DWIDTH 8 0
BBX 7 8 0 0
BITMAP
88
F8
20
74
AE
72
20
20
ENDCHAR
STARTCHAR uni125E
ENCODING 4702
SWIDTH 1250 0
DWIDTH 10 0
BBX 1 1 0 0
BITMAP
00
ENDCHAR
STARTCHAR uni125F
ENCODING 4703
SWIDTH 1250 0
DWIDTH 10 0
BBX 1 1 0 0
BITMAP
00
ENDCHAR
STARTCHAR uni1260
ENCODING 4704
SWIDTH 625 0
DWIDTH 5 0
BBX 4 7 0 0
BITMAP
60
90
90
90
90
90
90
ENDCHAR
STARTCHAR uni1261
ENCODING 4705
SWIDTH 875 0
DWIDTH 7 0
BBX 6 7 0 0
BITMAP
60
90
9C
94
90
90
90
ENDCHAR
STARTCHAR uni1262
ENCODING 4706
SWIDTH 875 0
DWIDTH 7 0
BBX 6 8 0 -1
BITMAP
60
90
90
90
90
90
9C
04
ENDCHAR
STARTCHAR uni1263
ENCODING 4707
SWIDTH 625 0
DWIDTH 5 0
BBX 4 7 0 0
BITMAP
60
90
90
90
90
10
10
ENDCHAR
STARTCHAR uni1264
ENCODING 4708
SWIDTH 875 0
DWIDTH 7 0
BBX 6 7 0 0
BITMAP
60
90
90
90
98
94
98
ENDCHAR
STARTCHAR uni1265
ENCODING 4709
SWIDTH 875 0
DWIDTH 7 0
BBX 6 7 0 0
BITMAP
18
24
E4
A4
24
24
24
ENDCHAR
STARTCHAR uni1266
ENCODING 4710
SWIDTH 625 0
DWIDTH 5 0
BBX 4 7 0 0
BITMAP
60
90
90
90
90
80
80
ENDCHAR
STARTCHAR uni1267
ENCODING 4711
SWIDTH 875 0
DWIDTH 7 0
BBX 6 9 0 -2
BITMAP
60
90
90
90
90
10
10
7C
44
ENDCHAR
STARTCHAR uni1268
ENCODING 4712
SWIDTH 625 0
DWIDTH 5 0
BBX 4 8 0 0
BITMAP
90
F0
00
60
90
90
90
90
ENDCHAR
STARTCHAR uni1269
ENCODING 4713
SWIDTH 875 0
DWIDTH 7 0
BBX 6 8 0 0
BITMAP
90
F0
00
60
90
9C
94
90
ENDCHAR
STARTCHAR uni126A
ENCODING 4714
SWIDTH 875 0
DWIDTH 7 0
BBX 6 9 0 -1
BITMAP
90
F0
00
60
90
90
90
9C
04
ENDCHAR
STARTCHAR uni126B
ENCODING 4715
SWIDTH 625 0
DWIDTH 5 0
BBX 4 8 0 0
BITMAP
90
F0
00
60
90
90
10
10
ENDCHAR
STARTCHAR uni126C
ENCODING 4716
SWIDTH 875 0
DWIDTH 7 0
BBX 6 8 0 0
BITMAP
90
F0
00
60
90
98
94
98
ENDCHAR
STARTCHAR uni126D
ENCODING 4717
SWIDTH 875 0
DWIDTH 7 0
BBX 6 8 0 0
BITMAP
24
3C
00
18
24
E4
A4
24
ENDCHAR
STARTCHAR uni126E
ENCODING 4718
SWIDTH 625 0
DWIDTH 5 0
BBX 4 8 0 0
BITMAP
90
F0
00
60
90
90
80
80
ENDCHAR
STARTCHAR uni126F
ENCODING 4719
SWIDTH 875 0
DWIDTH 7 0
BBX 6 10 0 -2
BITMAP
90
F0
00
60
90
90
10
10
7C
44
ENDCHAR
STARTCHAR uni1270
ENCODING 4720
SWIDTH 750 0
DWIDTH 6 0
BBX 5 7 0 0
BITMAP
20
20
F8
A8
20
20
20
ENDCHAR
STARTCHAR uni1271
ENCODING 4721
SWIDTH 750 0
DWIDTH 6 0
BBX 5 7 0 0
BITMAP
20
F8
A8
20
38
28
20
ENDCHAR
STARTCHAR uni1272
ENCODING 4722
SWIDTH 750 0
DWIDTH 6 0
BBX 5 8 0 -1
BITMAP
20
20
F8
A8
20
20
38
08
ENDCHAR
STARTCHAR uni1273
ENCODING 4723
SWIDTH 750 0
DWIDTH 6 0
BBX 5 8 0 -1
BITMAP
20
20
F8
A8
20
20
C0
80
ENDCHAR
STARTCHAR uni1274
ENCODING 4724
SWIDTH 875 0
DWIDTH 7 0
BBX 6 7 0 0
BITMAP
20
F8
A8
20
38
24
38
ENDCHAR
STARTCHAR uni1275
ENCODING 4725
SWIDTH 750 0
DWIDTH 6 0
BBX 5 8 0 0
BITMAP
80
E0
20
F8
A8
20
20
20
ENDCHAR
STARTCHAR uni1276
ENCODING 4726
SWIDTH 750 0
DWIDTH 6 0
BBX 5 8 0 0
BITMAP
20
50
20
F8
A8
20
20
20
ENDCHAR
STARTCHAR uni1277
ENCODING 4727
SWIDTH 750 0
DWIDTH 6 0
BBX 5 9 0 -2
BITMAP
20
20
F8
A8
20
20
20
F8
88
ENDCHAR
STARTCHAR uni1278
ENCODING 4728
SWIDTH 750 0
DWIDTH 6 0
BBX 5 8 0 0
BITMAP
88
F8
20
F8
A8
20
20
20
ENDCHAR
STARTCHAR uni1279
ENCODING 4729
SWIDTH 750 0
DWIDTH 6 0
BBX 5 8 0 0
BITMAP
88
F8
20
F8
A8
20
38
28
ENDCHAR
STARTCHAR uni127A
ENCODING 4730
SWIDTH 750 0
DWIDTH 6 0
BBX 5 9 0 -1
BITMAP
88
F8
20
F8
A8
20
20
38
08
ENDCHAR
STARTCHAR uni127B
ENCODING 4731
SWIDTH 750 0
DWIDTH 6 0
BBX 5 9 0 -1
BITMAP
88
F8
20
F8
A8
20
20
C0
80
ENDCHAR
STARTCHAR uni127C
ENCODING 4732
SWIDTH 875 0
DWIDTH 7 0
BBX 6 9 0 -1
BITMAP
88
F8
20
F8
A8
20
38
24
38
ENDCHAR
STARTCHAR uni127D
ENCODING 4733
SWIDTH 1000 0
DWIDTH 8 0
BBX 7 8 0 0
BITMAP
88
F8
20
38
08
3E
2A
08
ENDCHAR
STARTCHAR uni127E
ENCODING 4734
SWIDTH 750 0
DWIDTH 6 0
BBX 5 8 0 0
BITMAP
88
F8
50
20
F8
A8
20
20
ENDCHAR
STARTCHAR uni127F
ENCODING 4735
SWIDTH 750 0
DWIDTH 6 0
BBX 5 10 0 -2
BITMAP
88
F8
20
20
F8
A8
20
20
F8
88
ENDCHAR
STARTCHAR uni1280
ENCODING 4736
SWIDTH 625 0
DWIDTH 5 0
BBX 4 7 0 0
BITMAP
20
E0
B0
10
10
10
10
ENDCHAR
STARTCHAR uni1281
ENCODING 4737
SWIDTH 750 0
DWIDTH 6 0
BBX 6 7 0 0
BITMAP
20
E0
B0
10
1C
14
10
ENDCHAR
STARTCHAR uni1282
ENCODING 4738
SWIDTH 875 0
DWIDTH 7 0
BBX 6 8 0 -1
BITMAP
20
E0
B0
10
10
10
1C
04
ENDCHAR
STARTCHAR uni1283
ENCODING 4739
SWIDTH 625 0
DWIDTH 5 0
BBX 4 8 0 -1
BITMAP
20
E0
B0
10
10
20
C0
80
ENDCHAR
STARTCHAR uni1284
ENCODING 4740
SWIDTH 875 0
DWIDTH 7 0
BBX 6 7 0 0
BITMAP
20
E0
B0
10
18
14
18
ENDCHAR
STARTCHAR uni1285
ENCODING 4741
SWIDTH 750 0
DWIDTH 6 0
BBX 5 7 0 0
BITMAP
10
70
98
88
08
08
08
ENDCHAR
STARTCHAR uni1286
ENCODING 4742
SWIDTH 875 0
DWIDTH 7 0
BBX 6 8 0 0
BITMAP
08
14
28
E0
B0
10
10
10
ENDCHAR
STARTCHAR uni1287
ENCODING 4743
SWIDTH 875 0
DWIDTH 7 0
BBX 6 9 0 -1
BITMAP
08
14
28
E0
B0
10
10
70
40
ENDCHAR
STARTCHAR uni1288
ENCODING 4744
SWIDTH 1125 0
DWIDTH 9 0
BBX 8 7 0 0
BITMAP
20
E0
B0
1E
15
12
10
ENDCHAR
STARTCHAR uni1289
ENCODING 4745
SWIDTH 750 0
DWIDTH 6 0
BBX 1 1 0 0
BITMAP
00
ENDCHAR
STARTCHAR uni128A
ENCODING 4746
SWIDTH 1000 0
DWIDTH 8 0
BBX 7 7 0 0
BITMAP
20
E0
B4
1C
16
12
10
ENDCHAR
STARTCHAR uni128B
ENCODING 4747
SWIDTH 750 0
DWIDTH 6 0
BBX 5 8 0 -1
BITMAP
20
E0
B0
10
10
78
48
08
ENDCHAR
STARTCHAR uni128C
ENCODING 4748
SWIDTH 1000 0
DWIDTH 8 0
BBX 7 8 0 -1
BITMAP
20
E0
B0
10
1C
12
7C
40
ENDCHAR
STARTCHAR uni128D
ENCODING 4749
SWIDTH 1000 0
DWIDTH 8 0
BBX 7 7 0 0
BITMAP
20
E0
B4
1E
12
10
10
ENDCHAR
STARTCHAR uni128E
ENCODING 4750
SWIDTH 1250 0
DWIDTH 10 0
BBX 1 1 0 0
BITMAP
00
ENDCHAR
STARTCHAR uni128F
ENCODING 4751
SWIDTH 1250 0
DWIDTH 10 0
BBX 1 1 0 0
BITMAP
00
ENDCHAR
STARTCHAR uni1290
ENCODING 4752
SWIDTH 500 0
DWIDTH 4 0
BBX 3 7 0 0
BITMAP
80
E0
20
20
20
20
20
ENDCHAR
STARTCHAR uni1291
ENCODING 4753
SWIDTH 750 0
DWIDTH 6 0
BBX 5 7 0 0
BITMAP
80
E0
20
38
28
20
20
ENDCHAR
STARTCHAR uni1292
ENCODING 4754
SWIDTH 750 0
DWIDTH 6 0
BBX 5 8 0 -1
BITMAP
80
E0
20
20
20
20
38
08
ENDCHAR
STARTCHAR uni1293
ENCODING 4755
SWIDTH 750 0
DWIDTH 6 0
BBX 5 7 0 0
BITMAP
78
88
80
E0
20
20
20
ENDCHAR
STARTCHAR uni1294
ENCODING 4756
SWIDTH 750 0
DWIDTH 6 0
BBX 5 7 0 0
BITMAP
80
E0
20
20
30
28
30
ENDCHAR
STARTCHAR uni1295
ENCODING 4757
SWIDTH 750 0
DWIDTH 6 0
BBX 5 7 0 0
BITMAP
40
A0
38
08
08
08
08
ENDCHAR
STARTCHAR uni1296
ENCODING 4758
SWIDTH 750 0
DWIDTH 6 0
BBX 5 8 0 0
BITMAP
10
68
90
80
E0
20
20
20
ENDCHAR
STARTCHAR uni1297
ENCODING 4759
SWIDTH 750 0
DWIDTH 6 0
BBX 5 9 0 -2
BITMAP
78
88
80
E0
20
20
20
F8
88
ENDCHAR
STARTCHAR uni1298
ENCODING 4760
SWIDTH 750 0
DWIDTH 6 0
BBX 5 8 0 0
BITMAP
88
F8
20
38
08
08
08
08
ENDCHAR
STARTCHAR uni1299
ENCODING 4761
SWIDTH 1000 0
DWIDTH 8 0
BBX 7 8 0 0
BITMAP
88
F8
20
38
08
0E
0A
08
ENDCHAR
STARTCHAR uni129A
ENCODING 4762
SWIDTH 1000 0
DWIDTH 8 0
BBX 7 9 0 -1
BITMAP
88
F8
20
38
08
08
08
0E
02
ENDCHAR
STARTCHAR uni129B
ENCODING 4763
SWIDTH 750 0
DWIDTH 6 0
BBX 5 8 0 0
BITMAP
88
F8
20
78
88
E0
20
20
ENDCHAR
STARTCHAR uni129C
ENCODING 4764
SWIDTH 1000 0
DWIDTH 8 0
BBX 7 8 0 0
BITMAP
88
F8
20
38
08
0C
0A
0C
ENDCHAR
STARTCHAR uni129D
ENCODING 4765
SWIDTH 875 0
DWIDTH 7 0
BBX 6 8 0 0
BITMAP
88
F8
20
50
1C
04
04
04
ENDCHAR
STARTCHAR uni129E
ENCODING 4766
SWIDTH 875 0
DWIDTH 7 0
BBX 6 8 0 0
BITMAP
88
F8
28
74
88
E0
20
20
ENDCHAR
STARTCHAR uni129F
ENCODING 4767
SWIDTH 750 0
DWIDTH 6 0
BBX 5 10 0 -2
BITMAP
88
F8
20
78
88
E0
20
20
F8
88
ENDCHAR
STARTCHAR uni12A0
ENCODING 4768
SWIDTH 625 0
DWIDTH 5 0
BBX 4 7 0 0
BITMAP
80
C0
40
60
90
90
90
ENDCHAR
STARTCHAR uni12A1
ENCODING 4769
SWIDTH 875 0
DWIDTH 7 0
BBX 6 7 0 0
BITMAP
80
C0
40
60
9C
94
90
ENDCHAR
STARTCHAR uni12A2
ENCODING 4770
SWIDTH 875 0
DWIDTH 7 0
BBX 6 8 0 -1
BITMAP
80
C0
40
60
90
90
9C
04
ENDCHAR
STARTCHAR uni12A3
ENCODING 4771
SWIDTH 625 0
DWIDTH 5 0
BBX 4 7 0 0
BITMAP
80
C0
40
60
90
10
10
ENDCHAR
STARTCHAR uni12A4
ENCODING 4772
SWIDTH 875 0
DWIDTH 7 0
BBX 6 7 0 0
BITMAP
80
C0
40
60
98
94
98
ENDCHAR
STARTCHAR uni12A5
ENCODING 4773
SWIDTH 625 0
DWIDTH 5 0
BBX 4 7 0 0
BITMAP
80
40
80
40
60
90
90
ENDCHAR
STARTCHAR uni12A6
ENCODING 4774
SWIDTH 625 0
DWIDTH 5 0
BBX 4 7 0 0
BITMAP
80
C0
40
60
90
80
80
ENDCHAR
STARTCHAR uni12A7
ENCODING 4775
SWIDTH 875 0
DWIDTH 7 0
BBX 6 8 0 0
BITMAP
88
F8
20
30
10
18
24
24
ENDCHAR
STARTCHAR uni12A8
ENCODING 4776
SWIDTH 625 0
DWIDTH 5 0
BBX 4 8 0 0
BITMAP
80
80
60
90
90
90
90
90
ENDCHAR
STARTCHAR uni12A9
ENCODING 4777
SWIDTH 875 0
DWIDTH 7 0
BBX 6 8 0 0
BITMAP
80
80
60
90
9C
94
90
90
ENDCHAR
STARTCHAR uni12AA
ENCODING 4778
SWIDTH 875 0
DWIDTH 7 0
BBX 6 9 0 -1
BITMAP
80
80
60
90
90
90
90
9C
04
ENDCHAR
STARTCHAR uni12AB
ENCODING 4779
SWIDTH 625 0
DWIDTH 5 0
BBX 4 8 0 0
BITMAP
80
80
60
90
90
90
10
10
ENDCHAR
STARTCHAR uni12AC
ENCODING 4780
SWIDTH 875 0
DWIDTH 7 0
BBX 6 8 0 0
BITMAP
80
80
60
90
90
98
94
98
ENDCHAR
STARTCHAR uni12AD
ENCODING 4781
SWIDTH 625 0
DWIDTH 5 0
BBX 4 8 0 0
BITMAP
80
80
60
90
50
90
90
90
ENDCHAR
STARTCHAR uni12AE
ENCODING 4782
SWIDTH 625 0
DWIDTH 5 0
BBX 4 8 0 0
BITMAP
80
80
60
90
90
90
80
80
ENDCHAR
STARTCHAR uni12AF
ENCODING 4783
SWIDTH 875 0
DWIDTH 7 0
BBX 6 8 0 0
BITMAP
20
20
18
24
E4
A4
24
24
ENDCHAR
STARTCHAR uni12B0
ENCODING 4784
SWIDTH 1125 0
DWIDTH 9 0
BBX 8 8 0 0
BITMAP
80
80
60
90
9E
95
92
90
ENDCHAR
STARTCHAR uni12B1
ENCODING 4785
SWIDTH 1250 0
DWIDTH 10 0
BBX 1 1 0 0
BITMAP
00
ENDCHAR
STARTCHAR uni12B2
ENCODING 4786
SWIDTH 1000 0
DWIDTH 8 0
BBX 7 8 0 0
BITMAP
80
80
60
94
9C
96
92
90
ENDCHAR
STARTCHAR uni12B3
ENCODING 4787
SWIDTH 875 0
DWIDTH 7 0
BBX 6 9 0 -1
BITMAP
80
80
60
90
90
90
10
7C
44
ENDCHAR
STARTCHAR uni12B4
ENCODING 4788
SWIDTH 1000 0
DWIDTH 8 0
BBX 7 9 0 -1
BITMAP
80
80
60
90
90
9C
12
7C
40
ENDCHAR
STARTCHAR uni12B5
ENCODING 4789
SWIDTH 1000 0
DWIDTH 8 0
BBX 7 8 0 0
BITMAP
80
80
60
94
9E
92
90
90
ENDCHAR
STARTCHAR uni12B8
ENCODING 4792
SWIDTH 875 0
DWIDTH 7 0
BBX 6 8 0 0
BITMAP
88
F8
20
18
24
24
24
24
ENDCHAR
STARTCHAR uni12B9
ENCODING 4793
SWIDTH 1125 0
DWIDTH 9 0
BBX 8 8 0 0
BITMAP
88
F8
20
18
24
27
25
24
ENDCHAR
STARTCHAR uni12BA
ENCODING 4794
SWIDTH 1125 0
DWIDTH 9 0
BBX 8 9 0 -1
BITMAP
88
F8
20
18
24
24
24
27
01
ENDCHAR
STARTCHAR uni12BB
ENCODING 4795
SWIDTH 875 0
DWIDTH 7 0
BBX 6 8 0 0
BITMAP
88
F8
20
18
24
24
04
04
ENDCHAR
STARTCHAR uni12BC
ENCODING 4796
SWIDTH 1125 0
DWIDTH 9 0
BBX 8 8 0 0
BITMAP
88
F8
20
18
24
26
25
26
ENDCHAR
STARTCHAR uni12BD
ENCODING 4797
SWIDTH 875 0
DWIDTH 7 0
BBX 6 8 0 0
BITMAP
88
F8
20
18
24
14
24
24
ENDCHAR
STARTCHAR uni12BE
ENCODING 4798
SWIDTH 875 0
DWIDTH 7 0
BBX 6 8 0 0
BITMAP
88
F8
20
18
24
24
20
20
ENDCHAR
STARTCHAR uni12BF
ENCODING 4799
SWIDTH 875 0
DWIDTH 7 0
BBX 1 1 0 0
BITMAP
00
ENDCHAR
STARTCHAR uni12C0
ENCODING 4800
SWIDTH 1375 0
DWIDTH 11 0
BBX 10 8 0 0
BITMAP
8800
F800
2000
1800
2400
2780
2540
2480
ENDCHAR
STARTCHAR uni12C1
ENCODING 4801
SWIDTH 1250 0
DWIDTH 10 0
BBX 1 1 0 0
BITMAP
00
ENDCHAR
STARTCHAR uni12C2
ENCODING 4802
SWIDTH 1250 0
DWIDTH 10 0
BBX 9 8 0 0
BITMAP
8800
F800
2000
1800
2500
2700
2580
2480
ENDCHAR
STARTCHAR uni12C3
ENCODING 4803
SWIDTH 1125 0
DWIDTH 9 0
BBX 8 9 0 -1
BITMAP
88
F8
20
18
24
24
04
1F
11
ENDCHAR
STARTCHAR uni12C4
ENCODING 4804
SWIDTH 1250 0
DWIDTH 10 0
BBX 9 9 0 -1
BITMAP
8800
F800
2000
1800
2400
2700
0480
1F00
1000
ENDCHAR
STARTCHAR uni12C5
ENCODING 4805
SWIDTH 1250 0
DWIDTH 10 0
BBX 9 8 0 0
BITMAP
8800
F800
2000
1800
2500
2780
2480
2400
ENDCHAR
STARTCHAR uni12C6
ENCODING 4806
SWIDTH 1250 0
DWIDTH 10 0
BBX 1 1 0 0
BITMAP
00
ENDCHAR
STARTCHAR uni12C7
ENCODING 4807
SWIDTH 1250 0
DWIDTH 10 0
BBX 1 1 0 0
BITMAP
00
ENDCHAR
STARTCHAR uni12C8
ENCODING 4808
SWIDTH 750 0
DWIDTH 6 0
BBX 5 6 0 1
BITMAP
60
B0
A8
A8
B8
E0
ENDCHAR
STARTCHAR uni12C9
ENCODING 4809
SWIDTH 1000 0
DWIDTH 8 0
BBX 7 6 0 1
BITMAP
60
B0
A8
A8
BE
E2
ENDCHAR
STARTCHAR uni12CA
ENCODING 4810
SWIDTH 750 0
DWIDTH 6 0
BBX 5 8 0 -1
BITMAP
70
A8
A8
70
20
20
38
08
ENDCHAR
STARTCHAR uni12CB
ENCODING 4811
SWIDTH 750 0
DWIDTH 6 0
BBX 5 7 0 0
BITMAP
70
A8
A8
70
20
20
20
ENDCHAR
STARTCHAR uni12CC
ENCODING 4812
SWIDTH 750 0
DWIDTH 6 0
BBX 5 7 0 0
BITMAP
70
A8
70
20
30
28
30
ENDCHAR
STARTCHAR uni12CD
ENCODING 4813
SWIDTH 1000 0
DWIDTH 8 0
BBX 7 6 0 1
BITMAP
60
B0
A8
AE
BA
E0
ENDCHAR
STARTCHAR uni12CE
ENCODING 4814
SWIDTH 750 0
DWIDTH 6 0
BBX 5 7 0 0
BITMAP
70
A8
A8
70
20
40
80
ENDCHAR
STARTCHAR uni12CF
ENCODING 4815
SWIDTH 1000 0
DWIDTH 8 0
BBX 7 7 0 0
BITMAP
1C
2A
EA
9C
08
10
20
ENDCHAR
STARTCHAR uni12D0
ENCODING 4816
SWIDTH 625 0
DWIDTH 5 0
BBX 4 7 0 0
BITMAP
60
90
90
90
90
90
60
ENDCHAR
STARTCHAR uni12D1
ENCODING 4817
SWIDTH 875 0
DWIDTH 7 0
BBX 6 7 0 0
BITMAP
60
90
9C
94
90
90
60
ENDCHAR
STARTCHAR uni12D2
ENCODING 4818
SWIDTH 1000 0
DWIDTH 8 0
BBX 7 8 0 -1
BITMAP
60
90
90
78
08
08
0E
02
ENDCHAR
STARTCHAR uni12D3
ENCODING 4819
SWIDTH 750 0
DWIDTH 6 0
BBX 5 7 0 0
BITMAP
60
90
90
78
08
08
08
ENDCHAR
STARTCHAR uni12D4
ENCODING 4820
SWIDTH 1000 0
DWIDTH 8 0
BBX 7 7 0 0
BITMAP
60
90
90
78
0C
0A
0C
ENDCHAR
STARTCHAR uni12D5
ENCODING 4821
SWIDTH 750 0
DWIDTH 6 0
BBX 5 7 0 0
BITMAP
20
20
70
88
88
88
70
ENDCHAR
STARTCHAR uni12D6
ENCODING 4822
SWIDTH 625 0
DWIDTH 5 0
BBX 4 7 0 0
BITMAP
60
90
90
60
20
40
80
ENDCHAR
STARTCHAR uni12D7
ENCODING 4823
SWIDTH 1250 0
DWIDTH 10 0
BBX 1 1 0 0
BITMAP
00
ENDCHAR
STARTCHAR uni12D8
ENCODING 4824
SWIDTH 625 0
DWIDTH 5 0
BBX 4 7 0 0
BITMAP
10
90
F0
90
90
90
90
ENDCHAR
STARTCHAR uni12D9
ENCODING 4825
SWIDTH 875 0
DWIDTH 7 0
BBX 6 7 0 0
BITMAP
10
90
FC
94
90
90
90
ENDCHAR
STARTCHAR uni12DA
ENCODING 4826
SWIDTH 875 0
DWIDTH 7 0
BBX 6 8 0 -1
BITMAP
10
90
F0
90
90
90
9C
04
ENDCHAR
STARTCHAR uni12DB
ENCODING 4827
SWIDTH 625 0
DWIDTH 5 0
BBX 4 7 0 0
BITMAP
10
90
F0
90
90
10
10
ENDCHAR
STARTCHAR uni12DC
ENCODING 4828
SWIDTH 875 0
DWIDTH 7 0
BBX 6 7 0 0
BITMAP
10
90
F0
90
98
94
98
ENDCHAR
STARTCHAR uni12DD
ENCODING 4829
SWIDTH 875 0
DWIDTH 7 0
BBX 6 7 0 0
BITMAP
04
E4
BC
24
24
24
24
ENDCHAR
STARTCHAR uni12DE
ENCODING 4830
SWIDTH 625 0
DWIDTH 5 0
BBX 4 7 0 0
BITMAP
10
90
F0
90
90
80
80
ENDCHAR
STARTCHAR uni12DF
ENCODING 4831
SWIDTH 875 0
DWIDTH 7 0
BBX 6 9 0 -2
BITMAP
10
90
F0
90
90
10
10
7C
44
ENDCHAR
STARTCHAR uni12E0
ENCODING 4832
SWIDTH 1125 0
DWIDTH 9 0
BBX 8 7 0 0
BITMAP
07
E5
BC
24
24
24
24
ENDCHAR
STARTCHAR uni12E1
ENCODING 4833
SWIDTH 1000 0
DWIDTH 8 0
BBX 8 7 -1 0
BITMAP
07
E5
BC
27
25
24
24
ENDCHAR
STARTCHAR uni12E2
ENCODING 4834
SWIDTH 1125 0
DWIDTH 9 0
BBX 8 8 0 -1
BITMAP
07
E5
BC
24
24
24
27
01
ENDCHAR
STARTCHAR uni12E3
ENCODING 4835
SWIDTH 1000 0
DWIDTH 8 0
BBX 8 7 0 0
BITMAP
07
E5
BC
24
24
04
04
ENDCHAR
STARTCHAR uni12E4
ENCODING 4836
SWIDTH 1125 0
DWIDTH 9 0
BBX 8 7 0 0
BITMAP
07
E5
BC
24
26
25
26
ENDCHAR
STARTCHAR uni12E5
ENCODING 4837
SWIDTH 1125 0
DWIDTH 9 0
BBX 8 8 0 0
BITMAP
E0
47
E5
BC
24
24
24
24
ENDCHAR
STARTCHAR uni12E6
ENCODING 4838
SWIDTH 1125 0
DWIDTH 9 0
BBX 8 7 0 0
BITMAP
07
E5
BC
24
24
20
20
ENDCHAR
STARTCHAR uni12E7
ENCODING 4839
SWIDTH 1125 0
DWIDTH 9 0
BBX 8 9 0 -2
BITMAP
07
E5
BC
24
24
04
04
1F
11
ENDCHAR
STARTCHAR uni12E8
ENCODING 4840
SWIDTH 625 0
DWIDTH 5 0
BBX 4 7 0 0
BITMAP
60
90
90
E0
80
80
80
ENDCHAR
STARTCHAR uni12E9
ENCODING 4841
SWIDTH 625 0
DWIDTH 5 0
BBX 4 7 0 0
BITMAP
60
90
90
E0
80
E0
A0
ENDCHAR
STARTCHAR uni12EA
ENCODING 4842
SWIDTH 875 0
DWIDTH 7 0
BBX 6 8 0 -1
BITMAP
60
90
90
E0
88
F8
8C
04
ENDCHAR
STARTCHAR uni12EB
ENCODING 4843
SWIDTH 875 0
DWIDTH 7 0
BBX 6 8 0 -1
BITMAP
18
24
24
38
20
20
E0
80
ENDCHAR
STARTCHAR uni12EC
ENCODING 4844
SWIDTH 750 0
DWIDTH 6 0
BBX 5 8 0 -1
BITMAP
60
90
90
E0
80
F0
A8
10
ENDCHAR
STARTCHAR uni12ED
ENCODING 4845
SWIDTH 875 0
DWIDTH 7 0
BBX 6 8 0 -1
BITMAP
30
48
48
70
40
44
F8
80
ENDCHAR
STARTCHAR uni12EE
ENCODING 4846
SWIDTH 875 0
DWIDTH 7 0
BBX 6 7 0 0
BITMAP
60
9C
94
E0
80
80
80
ENDCHAR
STARTCHAR uni12EF
ENCODING 4847
SWIDTH 1125 0
DWIDTH 9 0
BBX 8 7 0 0
BITMAP
18
27
25
F8
A0
20
20
ENDCHAR
STARTCHAR uni12F0
ENCODING 4848
SWIDTH 750 0
DWIDTH 6 0
BBX 5 8 0 -1
BITMAP
30
48
48
70
40
40
F8
88
ENDCHAR
STARTCHAR uni12F1
ENCODING 4849
SWIDTH 1125 0
DWIDTH 9 0
BBX 8 8 0 -1
BITMAP
30
48
48
70
40
F8
8F
09
ENDCHAR
STARTCHAR uni12F2
ENCODING 4850
SWIDTH 1125 0
DWIDTH 9 0
BBX 8 9 0 -2
BITMAP
30
48
48
70
40
F8
88
0F
01
ENDCHAR
STARTCHAR uni12F3
ENCODING 4851
SWIDTH 750 0
DWIDTH 6 0
BBX 5 8 0 -1
BITMAP
30
48
48
70
40
F8
88
08
ENDCHAR
STARTCHAR uni12F4
ENCODING 4852
SWIDTH 875 0
DWIDTH 7 0
BBX 6 8 0 -1
BITMAP
30
48
48
70
40
F8
94
08
ENDCHAR
STARTCHAR uni12F5
ENCODING 4853
SWIDTH 1000 0
DWIDTH 8 0
BBX 7 8 0 -1
BITMAP
30
4E
4A
70
40
40
F8
88
ENDCHAR
STARTCHAR uni12F6
ENCODING 4854
SWIDTH 875 0
DWIDTH 7 0
BBX 6 8 0 -1
BITMAP
18
24
24
38
20
7C
84
80
ENDCHAR
STARTCHAR uni12F7
ENCODING 4855
SWIDTH 1000 0
DWIDTH 8 0
BBX 7 9 0 -2
BITMAP
30
48
48
70
40
F8
88
3E
22
ENDCHAR
STARTCHAR uni12F8
ENCODING 4856
SWIDTH 875 0
DWIDTH 7 0
BBX 6 9 0 -1
BITMAP
10
10
38
44
44
78
40
F8
88
ENDCHAR
STARTCHAR uni12F9
ENCODING 4857
SWIDTH 1125 0
DWIDTH 9 0
BBX 8 9 0 -1
BITMAP
10
10
38
44
78
40
F8
8F
09
ENDCHAR
STARTCHAR uni12FA
ENCODING 4858
SWIDTH 1125 0
DWIDTH 9 0
BBX 8 10 0 -2
BITMAP
10
10
38
44
78
40
F8
88
0F
01
ENDCHAR
STARTCHAR uni12FB
ENCODING 4859
SWIDTH 875 0
DWIDTH 7 0
BBX 6 9 0 -1
BITMAP
10
10
38
44
78
40
F8
88
08
ENDCHAR
STARTCHAR uni12FC
ENCODING 4860
SWIDTH 875 0
DWIDTH 7 0
BBX 6 9 0 -1
BITMAP
10
10
38
44
78
40
F8
94
08
ENDCHAR
STARTCHAR uni12FD
ENCODING 4861
SWIDTH 1125 0
DWIDTH 9 0
BBX 8 9 0 -1
BITMAP
10
10
38
47
45
78
40
F8
88
ENDCHAR
STARTCHAR uni12FE
ENCODING 4862
SWIDTH 1000 0
DWIDTH 8 0
BBX 7 9 0 -1
BITMAP
08
08
1C
22
3C
20
7C
84
80
ENDCHAR
STARTCHAR uni12FF
ENCODING 4863
SWIDTH 1000 0
DWIDTH 8 0
BBX 7 10 0 -2
BITMAP
10
10
38
44
78
40
F8
88
3E
22
ENDCHAR
STARTCHAR uni1300
ENCODING 4864
SWIDTH 875 0
DWIDTH 7 0
BBX 6 9 0 -1
BITMAP
44
7C
10
38
44
78
40
F8
88
ENDCHAR
STARTCHAR uni1301
ENCODING 4865
SWIDTH 1125 0
DWIDTH 9 0
BBX 8 10 0 -1
BITMAP
44
7C
10
38
44
78
40
F8
8F
09
ENDCHAR
STARTCHAR uni1302
ENCODING 4866
SWIDTH 1125 0
DWIDTH 9 0
BBX 8 11 0 -2
BITMAP
44
7C
10
38
44
78
40
F8
88
0F
01
ENDCHAR
STARTCHAR uni1303
ENCODING 4867
SWIDTH 875 0
DWIDTH 7 0
BBX 6 10 0 -2
BITMAP
44
7C
10
38
44
78
40
F8
88
08
ENDCHAR
STARTCHAR uni1304
ENCODING 4868
SWIDTH 875 0
DWIDTH 7 0
BBX 6 10 0 -2
BITMAP
44
7C
10
38
44
78
40
F8
94
08
ENDCHAR
STARTCHAR uni1305
ENCODING 4869
SWIDTH 1125 0
DWIDTH 9 0
BBX 8 9 0 -1
BITMAP
44
7C
10
38
47
79
40
F8
88
ENDCHAR
STARTCHAR uni1306
ENCODING 4870
SWIDTH 1000 0
DWIDTH 8 0
BBX 7 10 0 -2
BITMAP
22
3E
08
1C
22
3C
20
7C
84
80
ENDCHAR
STARTCHAR uni1307
ENCODING 4871
SWIDTH 1000 0
DWIDTH 8 0
BBX 7 11 0 -2
BITMAP
44
7C
10
38
44
78
40
F8
88
3E
22
ENDCHAR
STARTCHAR uni1308
ENCODING 4872
SWIDTH 625 0
DWIDTH 5 0
BBX 4 7 0 0
BITMAP
60
90
90
10
10
10
10
ENDCHAR
STARTCHAR uni1309
ENCODING 4873
SWIDTH 875 0
DWIDTH 7 0
BBX 6 7 0 0
BITMAP
60
90
90
1C
14
10
10
ENDCHAR
STARTCHAR uni130A
ENCODING 4874
SWIDTH 875 0
DWIDTH 7 0
BBX 6 8 0 -1
BITMAP
60
90
90
10
10
10
1C
04
ENDCHAR
STARTCHAR uni130B
ENCODING 4875
SWIDTH 625 0
DWIDTH 5 0
BBX 4 8 0 -1
BITMAP
60
90
90
10
10
20
C0
80
ENDCHAR
STARTCHAR uni130C
ENCODING 4876
SWIDTH 875 0
DWIDTH 7 0
BBX 6 7 0 0
BITMAP
60
90
90
10
18
14
18
ENDCHAR
STARTCHAR uni130D
ENCODING 4877
SWIDTH 750 0
DWIDTH 6 0
BBX 5 7 0 0
BITMAP
30
48
A8
48
08
08
08
ENDCHAR
STARTCHAR uni130E
ENCODING 4878
SWIDTH 750 0
DWIDTH 6 0
BBX 5 8 0 0
BITMAP
20
20
70
88
88
08
08
08
ENDCHAR
STARTCHAR uni130F
ENCODING 4879
SWIDTH 750 0
DWIDTH 6 0
BBX 5 9 0 -1
BITMAP
20
20
70
88
88
08
08
78
40
ENDCHAR
STARTCHAR uni1310
ENCODING 4880
SWIDTH 1125 0
DWIDTH 9 0
BBX 8 7 0 0
BITMAP
60
90
90
1E
15
12
10
ENDCHAR
STARTCHAR uni1311
ENCODING 4881
SWIDTH 875 0
DWIDTH 7 0
BBX 1 1 0 0
BITMAP
00
ENDCHAR
STARTCHAR uni1312
ENCODING 4882
SWIDTH 1000 0
DWIDTH 8 0
BBX 7 7 0 0
BITMAP
60
90
94
1C
16
12
10
ENDCHAR
STARTCHAR uni1313
ENCODING 4883
SWIDTH 750 0
DWIDTH 6 0
BBX 5 8 0 -1
BITMAP
60
90
90
10
10
F8
88
08
ENDCHAR
STARTCHAR uni1314
ENCODING 4884
SWIDTH 875 0
DWIDTH 7 0
BBX 6 8 0 -1
BITMAP
60
90
90
10
18
14
F8
80
ENDCHAR
STARTCHAR uni1315
ENCODING 4885
SWIDTH 1000 0
DWIDTH 8 0
BBX 7 7 0 0
BITMAP
60
90
94
1E
12
10
10
ENDCHAR
STARTCHAR uni1316
ENCODING 4886
SWIDTH 1250 0
DWIDTH 10 0
BBX 1 1 0 0
BITMAP
00
ENDCHAR
STARTCHAR uni1318
ENCODING 4888
SWIDTH 750 0
DWIDTH 6 0
BBX 5 8 0 0
BITMAP
88
F8
20
70
88
88
08
08
ENDCHAR
STARTCHAR uni1319
ENCODING 4889
SWIDTH 1000 0
DWIDTH 8 0
BBX 7 8 0 0
BITMAP
88
F8
20
70
88
8E
0A
08
ENDCHAR
STARTCHAR uni131A
ENCODING 4890
SWIDTH 1000 0
DWIDTH 8 0
BBX 7 9 0 -1
BITMAP
88
F8
20
70
88
88
08
0E
02
ENDCHAR
STARTCHAR uni131B
ENCODING 4891
SWIDTH 750 0
DWIDTH 6 0
BBX 5 9 0 -1
BITMAP
88
F8
20
70
88
88
30
C0
80
ENDCHAR
STARTCHAR uni131C
ENCODING 4892
SWIDTH 1000 0
DWIDTH 8 0
BBX 7 8 0 0
BITMAP
88
F8
20
70
88
8C
0A
0C
ENDCHAR
STARTCHAR uni131D
ENCODING 4893
SWIDTH 875 0
DWIDTH 7 0
BBX 6 8 0 0
BITMAP
44
7C
10
38
44
A4
44
04
ENDCHAR
STARTCHAR uni131E
ENCODING 4894
SWIDTH 750 0
DWIDTH 6 0
BBX 5 8 0 0
BITMAP
88
F8
50
70
88
88
08
08
ENDCHAR
STARTCHAR uni131F
ENCODING 4895
SWIDTH 1000 0
DWIDTH 8 0
BBX 7 9 0 -1
BITMAP
88
F8
20
70
88
88
08
3E
22
ENDCHAR
STARTCHAR uni1320
ENCODING 4896
SWIDTH 750 0
DWIDTH 6 0
BBX 5 7 0 0
BITMAP
60
B0
A8
A8
A8
A8
A8
ENDCHAR
STARTCHAR uni1321
ENCODING 4897
SWIDTH 1000 0
DWIDTH 8 0
BBX 7 7 0 0
BITMAP
60
B0
A8
A8
AE
AA
A8
ENDCHAR
STARTCHAR uni1322
ENCODING 4898
SWIDTH 1000 0
DWIDTH 8 0
BBX 7 8 0 -1
BITMAP
60
B0
A8
A8
A8
A8
AE
02
ENDCHAR
STARTCHAR uni1323
ENCODING 4899
SWIDTH 750 0
DWIDTH 6 0
BBX 5 7 0 0
BITMAP
60
B0
A8
A8
A8
08
08
ENDCHAR
STARTCHAR uni1324
ENCODING 4900
SWIDTH 1000 0
DWIDTH 8 0
BBX 7 7 0 0
BITMAP
60
B0
A8
A8
AC
AA
AC
ENDCHAR
STARTCHAR uni1325
ENCODING 4901
SWIDTH 750 0
DWIDTH 6 0
BBX 5 7 0 0
BITMAP
60
B0
A8
A8
20
30
10
ENDCHAR
STARTCHAR uni1326
ENCODING 4902
SWIDTH 750 0
DWIDTH 6 0
BBX 5 7 0 0
BITMAP
60
B0
A8
A8
A8
80
80
ENDCHAR
STARTCHAR uni1327
ENCODING 4903
SWIDTH 1000 0
DWIDTH 8 0
BBX 7 9 0 -2
BITMAP
60
B0
A8
A8
A8
08
08
3E
22
ENDCHAR
STARTCHAR uni1328
ENCODING 4904
SWIDTH 1250 0
DWIDTH 10 0
BBX 9 7 0 0
BITMAP
7000
9C00
9200
9200
DB00
B680
DB00
ENDCHAR
STARTCHAR uni1329
ENCODING 4905
SWIDTH 1375 0
DWIDTH 11 0
BBX 10 7 0 0
BITMAP
7000
9C00
93C0
9240
DB00
B680
DB00
ENDCHAR
STARTCHAR uni132A
ENCODING 4906
SWIDTH 1250 0
DWIDTH 10 0
BBX 9 8 0 -1
BITMAP
7000
9C00
9200
9200
DA00
B600
DB80
0080
ENDCHAR
STARTCHAR uni132B
ENCODING 4907
SWIDTH 1250 0
DWIDTH 10 0
BBX 9 8 0 -1
BITMAP
7000
9C00
9200
DA00
B600
DB00
0280
0300
ENDCHAR
STARTCHAR uni132C
ENCODING 4908
SWIDTH 1625 0
DWIDTH 13 0
BBX 12 7 0 0
BITMAP
7000
9C00
93E0
9250
DB20
B680
DB00
ENDCHAR
STARTCHAR uni132D
ENCODING 4909
SWIDTH 1250 0
DWIDTH 10 0
BBX 9 9 0 -1
BITMAP
7000
9C00
D300
B280
D300
1800
0C00
0A00
0C00
ENDCHAR
STARTCHAR uni132E
ENCODING 4910
SWIDTH 1250 0
DWIDTH 10 0
BBX 9 8 0 -1
BITMAP
7000
9C00
9200
9B00
9680
DB00
A000
C000
ENDCHAR
STARTCHAR uni132F
ENCODING 4911
SWIDTH 1250 0
DWIDTH 10 0
BBX 9 9 0 -2
BITMAP
7000
9C00
9200
DA00
B600
DA00
0200
0F80
0880
ENDCHAR
STARTCHAR uni1330
ENCODING 4912
SWIDTH 625 0
DWIDTH 5 0
BBX 4 7 0 0
BITMAP
40
40
A0
40
60
90
90
ENDCHAR
STARTCHAR uni1331
ENCODING 4913
SWIDTH 875 0
DWIDTH 7 0
BBX 6 7 0 0
BITMAP
40
40
A0
40
60
9C
94
ENDCHAR
STARTCHAR uni1332
ENCODING 4914
SWIDTH 875 0
DWIDTH 7 0
BBX 6 8 0 -1
BITMAP
40
40
A0
40
60
90
9C
04
ENDCHAR
STARTCHAR uni1333
ENCODING 4915
SWIDTH 625 0
DWIDTH 5 0
BBX 4 7 0 0
BITMAP
40
40
A0
40
60
90
10
ENDCHAR
STARTCHAR uni1334
ENCODING 4916
SWIDTH 1250 0
DWIDTH 10 0
BBX 7 8 0 -1
BITMAP
40
40
A0
40
60
9C
92
9C
ENDCHAR
STARTCHAR uni1335
ENCODING 4917
SWIDTH 750 0
DWIDTH 6 0
BBX 5 7 0 0
BITMAP
40
40
B8
48
60
90
90
ENDCHAR
STARTCHAR uni1336
ENCODING 4918
SWIDTH 625 0
DWIDTH 5 0
BBX 4 7 0 0
BITMAP
40
40
A0
40
60
90
80
ENDCHAR
STARTCHAR uni1337
ENCODING 4919
SWIDTH 875 0
DWIDTH 7 0
BBX 6 9 0 -2
BITMAP
40
40
A0
40
60
90
10
7C
44
ENDCHAR
STARTCHAR uni1338
ENCODING 4920
SWIDTH 625 0
DWIDTH 5 0
BBX 4 6 0 0
BITMAP
40
A0
40
60
90
90
ENDCHAR
STARTCHAR uni1339
ENCODING 4921
SWIDTH 875 0
DWIDTH 7 0
BBX 6 6 0 0
BITMAP
40
A0
40
60
9C
94
ENDCHAR
STARTCHAR uni133A
ENCODING 4922
SWIDTH 875 0
DWIDTH 7 0
BBX 6 7 0 -1
BITMAP
40
A0
40
60
90
9C
04
ENDCHAR
STARTCHAR uni133B
ENCODING 4923
SWIDTH 625 0
DWIDTH 5 0
BBX 4 6 0 0
BITMAP
40
A0
40
60
90
10
ENDCHAR
STARTCHAR uni133C
ENCODING 4924
SWIDTH 1250 0
DWIDTH 10 0
BBX 7 7 0 0
BITMAP
40
A0
40
60
9C
92
9C
ENDCHAR
STARTCHAR uni133D
ENCODING 4925
SWIDTH 750 0
DWIDTH 6 0
BBX 5 6 0 0
BITMAP
40
B8
48
60
90
90
ENDCHAR
STARTCHAR uni133E
ENCODING 4926
SWIDTH 625 0
DWIDTH 5 0
BBX 4 6 0 0
BITMAP
40
A0
40
60
90
80
ENDCHAR
STARTCHAR uni133F
ENCODING 4927
SWIDTH 875 0
DWIDTH 7 0
BBX 6 8 0 -2
BITMAP
40
A0
40
60
90
10
7C
44
ENDCHAR
STARTCHAR uni1340
ENCODING 4928
SWIDTH 625 0
DWIDTH 5 0
BBX 4 7 0 0
BITMAP
60
90
90
F0
90
90
60
ENDCHAR
STARTCHAR uni1341
ENCODING 4929
SWIDTH 875 0
DWIDTH 7 0
BBX 6 7 0 0
BITMAP
60
90
90
FC
94
90
60
ENDCHAR
STARTCHAR uni1342
ENCODING 4930
SWIDTH 875 0
DWIDTH 7 0
BBX 6 9 0 -1
BITMAP
60
90
F0
90
70
10
10
1C
04
ENDCHAR
STARTCHAR uni1343
ENCODING 4931
SWIDTH 625 0
DWIDTH 5 0
BBX 4 8 0 0
BITMAP
60
90
F0
90
70
10
10
10
ENDCHAR
STARTCHAR uni1344
ENCODING 4932
SWIDTH 875 0
DWIDTH 7 0
BBX 6 8 0 0
BITMAP
60
90
F0
90
70
18
14
18
ENDCHAR
STARTCHAR uni1345
ENCODING 4933
SWIDTH 625 0
DWIDTH 5 0
BBX 5 8 0 0
BITMAP
20
20
70
88
F8
88
88
70
ENDCHAR
STARTCHAR uni1346
ENCODING 4934
SWIDTH 625 0
DWIDTH 5 0
BBX 4 8 0 0
BITMAP
60
90
F0
90
60
20
40
80
ENDCHAR
STARTCHAR uni1347
ENCODING 4935
SWIDTH 875 0
DWIDTH 7 0
BBX 6 8 0 0
BITMAP
18
24
FC
A4
18
08
10
20
ENDCHAR
STARTCHAR uni1348
ENCODING 4936
SWIDTH 750 0
DWIDTH 6 0
BBX 5 8 0 -1
BITMAP
20
20
40
80
C0
A0
F8
08
ENDCHAR
STARTCHAR uni1349
ENCODING 4937
SWIDTH 750 0
DWIDTH 6 0
BBX 5 7 0 0
BITMAP
20
20
40
A0
F8
48
80
ENDCHAR
STARTCHAR uni134A
ENCODING 4938
SWIDTH 750 0
DWIDTH 6 0
BBX 5 7 0 0
BITMAP
20
20
40
80
C0
A8
F0
ENDCHAR
STARTCHAR uni134B
ENCODING 4939
SWIDTH 750 0
DWIDTH 6 0
BBX 5 7 0 0
BITMAP
20
20
40
A0
F8
28
20
ENDCHAR
STARTCHAR uni134C
ENCODING 4940
SWIDTH 1000 0
DWIDTH 8 0
BBX 7 7 0 0
BITMAP
20
20
40
80
C4
AA
FC
ENDCHAR
STARTCHAR uni134D
ENCODING 4941
SWIDTH 750 0
DWIDTH 6 0
BBX 5 7 0 0
BITMAP
78
88
C0
A0
F8
28
20
ENDCHAR
STARTCHAR uni134E
ENCODING 4942
SWIDTH 875 0
DWIDTH 7 0
BBX 6 8 0 -1
BITMAP
38
54
88
80
C0
A0
F8
08
ENDCHAR
STARTCHAR uni134F
ENCODING 4943
SWIDTH 750 0
DWIDTH 6 0
BBX 5 9 0 -2
BITMAP
20
40
A0
A0
F8
28
20
F8
88
ENDCHAR
STARTCHAR uni1350
ENCODING 4944
SWIDTH 750 0
DWIDTH 6 0
BBX 5 7 0 0
BITMAP
F8
A8
20
20
20
20
20
ENDCHAR
STARTCHAR uni1351
ENCODING 4945
SWIDTH 750 0
DWIDTH 6 0
BBX 5 7 0 0
BITMAP
F8
A8
20
38
28
20
20
ENDCHAR
STARTCHAR uni1352
ENCODING 4946
SWIDTH 750 0
DWIDTH 6 0
BBX 5 8 0 -1
BITMAP
F8
A8
20
20
20
20
38
08
ENDCHAR
STARTCHAR uni1353
ENCODING 4947
SWIDTH 750 0
DWIDTH 6 0
BBX 5 8 0 -1
BITMAP
F8
A8
20
20
20
20
C0
80
ENDCHAR
STARTCHAR uni1354
ENCODING 4948
SWIDTH 750 0
DWIDTH 6 0
BBX 5 7 0 0
BITMAP
F8
A8
20
20
30
28
30
ENDCHAR
STARTCHAR uni1355
ENCODING 4949
SWIDTH 750 0
DWIDTH 6 0
BBX 5 7 0 0
BITMAP
F8
A8
20
30
10
10
10
ENDCHAR
STARTCHAR uni1356
ENCODING 4950
SWIDTH 750 0
DWIDTH 6 0
BBX 5 7 0 0
BITMAP
F8
A8
20
40
40
80
80
ENDCHAR
STARTCHAR uni1357
ENCODING 4951
SWIDTH 1250 0
DWIDTH 10 0
BBX 5 9 0 -2
BITMAP
F8
A8
20
20
20
20
20
F8
88
ENDCHAR
STARTCHAR uni1358
ENCODING 4952
SWIDTH 875 0
DWIDTH 7 0
BBX 6 8 0 0
BITMAP
44
7C
10
20
40
80
88
F0
ENDCHAR
STARTCHAR uni1359
ENCODING 4953
SWIDTH 1250 0
DWIDTH 10 0
BBX 9 10 0 -1
BITMAP
4400
7C00
1000
7C00
AA00
AE00
E200
0200
0380
0080
ENDCHAR
STARTCHAR uni135A
ENCODING 4954
SWIDTH 750 0
DWIDTH 6 0
BBX 5 8 0 0
BITMAP
88
F8
20
40
80
C0
A8
F0
ENDCHAR
STARTCHAR uni135D
ENCODING 4957
SWIDTH 0 0
DWIDTH 0 0
BBX 5 1 -6 8
BITMAP
A8
ENDCHAR
STARTCHAR uni135E
ENCODING 4958
SWIDTH 0 0
DWIDTH 0 0
BBX 1 1 -3 8
BITMAP
80
ENDCHAR
STARTCHAR uni135F
ENCODING 4959
SWIDTH 0 0
DWIDTH 0 0
BBX 3 1 -4 8
BITMAP
A0
ENDCHAR
STARTCHAR uni1360
ENCODING 4960
SWIDTH 1000 0
DWIDTH 8 0
BBX 7 7 0 0
BITMAP
92
44
28
92
28
44
92
ENDCHAR
STARTCHAR uni1361
ENCODING 4961
SWIDTH 250 0
DWIDTH 2 0
BBX 1 3 0 2
BITMAP
80
00
80
ENDCHAR
STARTCHAR uni1362
ENCODING 4962
SWIDTH 500 0
DWIDTH 4 0
BBX 3 3 0 2
BITMAP
A0
00
A0
ENDCHAR
STARTCHAR uni1363
ENCODING 4963
SWIDTH 500 0
DWIDTH 4 0
BBX 3 5 0 1
BITMAP
E0
00
40
00
40
ENDCHAR
STARTCHAR uni1364
ENCODING 4964
SWIDTH 500 0
DWIDTH 4 0
BBX 3 5 0 1
BITMAP
40
00
E0
00
40
ENDCHAR
STARTCHAR uni1365
ENCODING 4965
SWIDTH 500 0
DWIDTH 4 0
BBX 3 7 0 0
BITMAP
E0
00
40
00
40
00
E0
ENDCHAR
STARTCHAR uni1366
ENCODING 4966
SWIDTH 500 0
DWIDTH 4 0
BBX 3 5 0 1
BITMAP
80
00
60
00
80
ENDCHAR
STARTCHAR uni1367
ENCODING 4967
SWIDTH 250 0
DWIDTH 2 0
BBX 1 5 0 1
BITMAP
80
00
80
00
80
ENDCHAR
STARTCHAR uni1368
ENCODING 4968
SWIDTH 750 0
DWIDTH 6 0
BBX 5 5 0 1
BITMAP
20
88
20
88
20
ENDCHAR
STARTCHAR uni1369
ENCODING 4969
SWIDTH 750 0
DWIDTH 6 0
BBX 5 9 0 -1
BITMAP
F8
00
40
80
F0
88
70
00
F8
ENDCHAR
STARTCHAR uni136A
ENCODING 4970
SWIDTH 750 0
DWIDTH 6 0
BBX 5 9 0 -1
BITMAP
F8
00
70
88
F0
88
70
00
F8
ENDCHAR
STARTCHAR uni136B
ENCODING 4971
SWIDTH 750 0
DWIDTH 6 0
BBX 5 9 0 -1
BITMAP
F8
00
78
88
80
80
80
00
F8
ENDCHAR
STARTCHAR uni136C
ENCODING 4972
SWIDTH 750 0
DWIDTH 6 0
BBX 5 9 0 -1
BITMAP
F8
00
70
88
88
88
70
00
F8
ENDCHAR
STARTCHAR uni136D
ENCODING 4973
SWIDTH 750 0
DWIDTH 6 0
BBX 5 9 0 -1
BITMAP
F8
00
78
48
80
F0
90
00
F8
ENDCHAR
STARTCHAR uni136E
ENCODING 4974
SWIDTH 750 0
DWIDTH 6 0
BBX 5 9 0 -1
BITMAP
F8
00
E0
A0
30
28
30
00
F8
ENDCHAR
STARTCHAR uni136F
ENCODING 4975
SWIDTH 750 0
DWIDTH 6 0
BBX 5 9 0 -1
BITMAP
F8
00
E0
A0
20
38
08
00
F8
ENDCHAR
STARTCHAR uni1370
ENCODING 4976
SWIDTH 750 0
DWIDTH 6 0
BBX 5 9 0 -1
BITMAP
F8
00
F8
A8
20
F8
88
00
F8
ENDCHAR
STARTCHAR uni1371
ENCODING 4977
SWIDTH 750 0
DWIDTH 6 0
BBX 5 9 0 -1
BITMAP
F8
00
88
88
F8
88
70
00
F8
ENDCHAR
STARTCHAR uni1372
ENCODING 4978
SWIDTH 750 0
DWIDTH 6 0
BBX 5 9 0 -1
BITMAP
F8
00
20
20
20
20
20
00
F8
ENDCHAR
STARTCHAR uni1373
ENCODING 4979
SWIDTH 750 0
DWIDTH 6 0
BBX 5 9 0 -1
BITMAP
F8
00
F8
88
40
70
88
00
F8
ENDCHAR
STARTCHAR uni1374
ENCODING 4980
SWIDTH 750 0
DWIDTH 6 0
BBX 5 9 0 -1
BITMAP
F8
00
B0
A8
A8
A8
68
00
F8
ENDCHAR
STARTCHAR uni1375
ENCODING 4981
SWIDTH 750 0
DWIDTH 6 0
BBX 5 9 0 -1
BITMAP
F8
00
A8
A8
58
08
08
00
F8
ENDCHAR
STARTCHAR uni1376
ENCODING 4982
SWIDTH 750 0
DWIDTH 6 0
BBX 5 9 0 -1
BITMAP
F8
00
88
88
78
08
08
00
F8
ENDCHAR
STARTCHAR uni1377
ENCODING 4983
SWIDTH 875 0
DWIDTH 7 0
BBX 6 9 0 -1
BITMAP
F8
00
F8
A8
00
7C
54
00
F8
ENDCHAR
STARTCHAR uni1378
ENCODING 4984
SWIDTH 875 0
DWIDTH 7 0
BBX 6 9 0 -1
BITMAP
F8
00
08
74
88
E0
20
00
F8
ENDCHAR
STARTCHAR uni1379
ENCODING 4985
SWIDTH 1000 0
DWIDTH 8 0
BBX 7 9 0 -1
BITMAP
7C
00
FE
AA
28
28
28
00
7C
ENDCHAR
STARTCHAR uni137A
ENCODING 4986
SWIDTH 750 0
DWIDTH 6 0
BBX 5 9 0 -1
BITMAP
F8
00
60
90
98
08
08
00
F8
ENDCHAR
STARTCHAR uni137B
ENCODING 4987
SWIDTH 750 0
DWIDTH 6 0
BBX 5 9 0 -1
BITMAP
F8
00
70
88
88
F0
80
00
F8
ENDCHAR
STARTCHAR uni137C
ENCODING 4988
SWIDTH 1000 0
DWIDTH 8 0
BBX 7 9 0 -1
BITMAP
7C
00
44
AA
AA
CC
88
00
7C
ENDCHAR
STARTCHAR uni13A0
ENCODING 5024
SWIDTH 875 0
DWIDTH 7 0
BBX 6 7 0 0
BITMAP
F8
44
44
44
44
44
F8
ENDCHAR
STARTCHAR uni13A1
ENCODING 5025
SWIDTH 1000 0
DWIDTH 8 0
BBX 7 7 0 0
BITMAP
F0
88
88
F0
88
8A
84
ENDCHAR
STARTCHAR uni13A2
ENCODING 5026
SWIDTH 750 0
DWIDTH 6 0
BBX 5 7 0 0
BITMAP
F8
20
20
20
20
20
20
ENDCHAR
STARTCHAR uni13A3
ENCODING 5027
SWIDTH 1000 0
DWIDTH 8 0
BBX 7 7 0 0
BITMAP
38
10
3C
42
A2
A2
44
ENDCHAR
STARTCHAR uni13A4
ENCODING 5028
SWIDTH 1125 0
DWIDTH 9 0
BBX 8 7 0 0
BITMAP
70
8A
89
8E
88
88
70
ENDCHAR
STARTCHAR uni13A5
ENCODING 5029
SWIDTH 500 0
DWIDTH 4 0
BBX 3 7 0 0
BITMAP
40
00
40
40
40
40
E0
ENDCHAR
STARTCHAR uni13A6
ENCODING 5030
SWIDTH 750 0
DWIDTH 6 0
BBX 5 7 0 0
BITMAP
70
88
40
F8
10
88
70
ENDCHAR
STARTCHAR uni13A7
ENCODING 5031
SWIDTH 1000 0
DWIDTH 8 0
BBX 7 7 0 0
BITMAP
18
04
42
A2
A2
44
38
ENDCHAR
STARTCHAR uni13A8
ENCODING 5032
SWIDTH 750 0
DWIDTH 6 0
BBX 5 7 0 0
BITMAP
E0
40
40
68
50
40
E0
ENDCHAR
STARTCHAR uni13A9
ENCODING 5033
SWIDTH 1000 0
DWIDTH 8 0
BBX 6 7 0 0
BITMAP
44
44
28
28
10
90
60
ENDCHAR
STARTCHAR uni13AA
ENCODING 5034
SWIDTH 750 0
DWIDTH 6 0
BBX 5 7 0 0
BITMAP
20
50
50
88
F8
88
88
ENDCHAR
STARTCHAR uni13AB
ENCODING 5035
SWIDTH 750 0
DWIDTH 6 0
BBX 5 7 0 0
BITMAP
08
08
08
08
08
88
70
ENDCHAR
STARTCHAR uni13AC
ENCODING 5036
SWIDTH 750 0
DWIDTH 6 0
BBX 5 7 0 0
BITMAP
F8
80
80
F8
80
80
F8
ENDCHAR
STARTCHAR uni13AD
ENCODING 5037
SWIDTH 1000 0
DWIDTH 8 0
BBX 7 7 0 0
BITMAP
1C
48
A8
BE
AA
4C
08
ENDCHAR
STARTCHAR uni13AE
ENCODING 5038
SWIDTH 1000 0
DWIDTH 8 0
BBX 7 7 0 0
BITMAP
7C
82
3A
12
1C
10
38
ENDCHAR
STARTCHAR uni13AF
ENCODING 5039
SWIDTH 1000 0
DWIDTH 8 0
BBX 7 7 0 0
BITMAP
1C
22
3E
22
22
AA
44
ENDCHAR
STARTCHAR uni13B0
ENCODING 5040
SWIDTH 500 0
DWIDTH 4 0
BBX 3 7 0 0
BITMAP
80
80
80
E0
80
80
80
ENDCHAR
STARTCHAR uni13B1
ENCODING 5041
SWIDTH 750 0
DWIDTH 6 0
BBX 5 7 0 0
BITMAP
F8
88
80
80
80
80
80
ENDCHAR
STARTCHAR uni13B2
ENCODING 5042
SWIDTH 1000 0
DWIDTH 8 0
BBX 7 7 0 0
BITMAP
20
50
50
50
2E
A4
58
ENDCHAR
STARTCHAR uni13B3
ENCODING 5043
SWIDTH 1000 0
DWIDTH 8 0
BBX 7 7 0 0
BITMAP
92
92
92
AA
AA
44
44
ENDCHAR
STARTCHAR uni13B4
ENCODING 5044
SWIDTH 875 0
DWIDTH 7 0
BBX 6 7 0 0
BITMAP
08
14
10
70
90
90
60
ENDCHAR
STARTCHAR uni13B5
ENCODING 5045
SWIDTH 750 0
DWIDTH 6 0
BBX 5 7 0 0
BITMAP
70
88
88
80
80
80
80
ENDCHAR
STARTCHAR uni13B6
ENCODING 5046
SWIDTH 1000 0
DWIDTH 8 0
BBX 7 7 0 0
BITMAP
7C
82
88
8C
8A
82
7C
ENDCHAR
STARTCHAR uni13B7
ENCODING 5047
SWIDTH 1000 0
DWIDTH 8 0
BBX 7 7 0 0
BITMAP
82
C6
C6
AA
AA
92
92
ENDCHAR
STARTCHAR uni13B8
ENCODING 5048
SWIDTH 750 0
DWIDTH 6 0
BBX 5 7 0 0
BITMAP
F0
08
88
E8
98
08
08
ENDCHAR
STARTCHAR uni13B9
ENCODING 5049
SWIDTH 1000 0
DWIDTH 8 0
BBX 7 7 0 0
BITMAP
38
10
34
4A
E0
50
20
ENDCHAR
STARTCHAR uni13BA
ENCODING 5050
SWIDTH 1000 0
DWIDTH 8 0
BBX 7 7 0 0
BITMAP
72
8A
8A
8E
8A
8A
72
ENDCHAR
STARTCHAR uni13BB
ENCODING 5051
SWIDTH 750 0
DWIDTH 6 0
BBX 5 7 0 0
BITMAP
88
88
88
F8
88
88
88
ENDCHAR
STARTCHAR uni13BC
ENCODING 5052
SWIDTH 750 0
DWIDTH 6 0
BBX 5 7 0 0
BITMAP
70
20
70
88
08
88
70
ENDCHAR
STARTCHAR uni13BD
ENCODING 5053
SWIDTH 1250 0
DWIDTH 10 0
BBX 9 7 0 0
BITMAP
1380
1100
0A00
0A00
E400
4400
3800
ENDCHAR
STARTCHAR uni13BE
ENCODING 5054
SWIDTH 750 0
DWIDTH 6 0
BBX 5 7 0 0
BITMAP
70
88
88
F8
88
88
70
ENDCHAR
STARTCHAR uni13BF
ENCODING 5055
SWIDTH 875 0
DWIDTH 7 0
BBX 6 9 0 -2
BITMAP
40
E0
40
40
5C
48
38
08
10
ENDCHAR
STARTCHAR uni13C0
ENCODING 5056
SWIDTH 875 0
DWIDTH 7 0
BBX 5 7 0 0
BITMAP
70
88
80
98
88
88
78
ENDCHAR
STARTCHAR uni13C1
ENCODING 5057
SWIDTH 875 0
DWIDTH 7 0
BBX 6 7 0 0
BITMAP
38
44
44
44
44
44
84
ENDCHAR
STARTCHAR uni13C2
ENCODING 5058
SWIDTH 750 0
DWIDTH 6 0
BBX 5 7 0 0
BITMAP
80
80
80
F0
88
88
88
ENDCHAR
STARTCHAR uni13C3
ENCODING 5059
SWIDTH 750 0
DWIDTH 6 0
BBX 5 7 0 0
BITMAP
F8
08
10
20
40
80
F8
ENDCHAR
STARTCHAR uni13C4
ENCODING 5060
SWIDTH 875 0
DWIDTH 7 0
BBX 6 9 0 -2
BITMAP
38
44
E4
04
E4
44
3C
04
04
ENDCHAR
STARTCHAR uni13C5
ENCODING 5061
SWIDTH 1125 0
DWIDTH 9 0
BBX 8 7 0 0
BITMAP
70
88
88
8D
8A
88
70
ENDCHAR
STARTCHAR uni13C6
ENCODING 5062
SWIDTH 750 0
DWIDTH 6 0
BBX 5 7 0 0
BITMAP
F8
A8
20
20
20
A8
F8
ENDCHAR
STARTCHAR uni13C7
ENCODING 5063
SWIDTH 1000 0
DWIDTH 8 0
BBX 7 7 0 0
BITMAP
18
24
02
82
92
92
6C
ENDCHAR
STARTCHAR uni13C8
ENCODING 5064
SWIDTH 1000 0
DWIDTH 8 0
BBX 7 7 0 0
BITMAP
6C
92
2A
2C
28
28
10
ENDCHAR
STARTCHAR uni13C9
ENCODING 5065
SWIDTH 1375 0
DWIDTH 11 0
BBX 10 7 0 0
BITMAP
A400
6B80
2640
2280
1400
1400
0800
ENDCHAR
STARTCHAR uni13CA
ENCODING 5066
SWIDTH 1000 0
DWIDTH 8 0
BBX 7 7 0 0
BITMAP
18
04
02
4A
92
92
6C
ENDCHAR
STARTCHAR uni13CB
ENCODING 5067
SWIDTH 750 0
DWIDTH 6 0
BBX 5 7 0 0
BITMAP
70
88
80
40
90
88
70
ENDCHAR
STARTCHAR uni13CC
ENCODING 5068
SWIDTH 750 0
DWIDTH 6 0
BBX 5 7 0 0
BITMAP
88
88
88
F8
88
88
70
ENDCHAR
STARTCHAR uni13CD
ENCODING 5069
SWIDTH 1250 0
DWIDTH 10 0
BBX 9 7 0 0
BITMAP
1F00
0080
4E80
A480
BC80
A480
4300
ENDCHAR
STARTCHAR uni13CE
ENCODING 5070
SWIDTH 750 0
DWIDTH 6 0
BBX 5 7 0 0
BITMAP
30
50
50
90
F8
10
10
ENDCHAR
STARTCHAR uni13CF
ENCODING 5071
SWIDTH 750 0
DWIDTH 6 0
BBX 5 7 0 0
BITMAP
80
80
80
F0
88
88
F0
ENDCHAR
STARTCHAR uni13D0
ENCODING 5072
SWIDTH 750 0
DWIDTH 6 0
BBX 5 7 0 0
BITMAP
70
20
20
B0
68
20
70
ENDCHAR
STARTCHAR uni13D1
ENCODING 5073
SWIDTH 875 0
DWIDTH 7 0
BBX 6 7 0 0
BITMAP
40
A8
74
20
48
48
30
ENDCHAR
STARTCHAR uni13D2
ENCODING 5074
SWIDTH 750 0
DWIDTH 6 0
BBX 5 7 0 0
BITMAP
F0
88
88
90
88
88
88
ENDCHAR
STARTCHAR uni13D3
ENCODING 5075
SWIDTH 750 0
DWIDTH 6 0
BBX 5 7 0 0
BITMAP
80
80
80
80
80
88
70
ENDCHAR
STARTCHAR uni13D4
ENCODING 5076
SWIDTH 1000 0
DWIDTH 8 0
BBX 7 7 0 0
BITMAP
AA
AA
AA
54
54
28
28
ENDCHAR
STARTCHAR uni13D5
ENCODING 5077
SWIDTH 750 0
DWIDTH 6 0
BBX 5 7 0 0
BITMAP
70
98
40
38
10
88
70
ENDCHAR
STARTCHAR uni13D6
ENCODING 5078
SWIDTH 1000 0
DWIDTH 8 0
BBX 7 7 0 0
BITMAP
E0
20
20
24
22
22
1C
ENDCHAR
STARTCHAR uni13D7
ENCODING 5079
SWIDTH 750 0
DWIDTH 6 0
BBX 5 7 0 0
BITMAP
08
08
18
18
28
A8
48
ENDCHAR
STARTCHAR uni13D8
ENCODING 5080
SWIDTH 750 0
DWIDTH 6 0
BBX 5 7 0 0
BITMAP
78
08
18
18
28
A8
48
ENDCHAR
STARTCHAR uni13D9
ENCODING 5081
SWIDTH 750 0
DWIDTH 6 0
BBX 5 7 0 0
BITMAP
88
88
88
50
50
20
20
ENDCHAR
STARTCHAR uni13DA
ENCODING 5082
SWIDTH 750 0
DWIDTH 6 0
BBX 5 7 0 0
BITMAP
70
88
40
20
10
88
70
ENDCHAR
STARTCHAR uni13DB
ENCODING 5083
SWIDTH 1000 0
DWIDTH 8 0
BBX 7 7 0 0
BITMAP
34
4A
A2
A4
A0
A0
40
ENDCHAR
STARTCHAR uni13DC
ENCODING 5084
SWIDTH 1000 0
DWIDTH 8 0
BBX 7 7 0 0
BITMAP
38
44
38
44
AA
AA
44
ENDCHAR
STARTCHAR uni13DD
ENCODING 5085
SWIDTH 625 0
DWIDTH 5 0
BBX 4 7 0 0
BITMAP
60
90
80
80
80
80
F0
ENDCHAR
STARTCHAR uni13DE
ENCODING 5086
SWIDTH 625 0
DWIDTH 5 0
BBX 4 7 0 0
BITMAP
80
80
80
80
80
80
F0
ENDCHAR
STARTCHAR uni13DF
ENCODING 5087
SWIDTH 750 0
DWIDTH 6 0
BBX 5 7 0 0
BITMAP
70
88
80
80
80
88
70
ENDCHAR
STARTCHAR uni13E0
ENCODING 5088
SWIDTH 1000 0
DWIDTH 8 0
BBX 7 7 0 0
BITMAP
04
44
A4
7E
24
24
18
ENDCHAR
STARTCHAR uni13E1
ENCODING 5089
SWIDTH 1125 0
DWIDTH 9 0
BBX 8 7 0 0
BITMAP
36
49
54
F4
14
14
08
ENDCHAR
STARTCHAR uni13E2
ENCODING 5090
SWIDTH 750 0
DWIDTH 6 0
BBX 5 7 0 0
BITMAP
F0
88
88
F0
80
80
80
ENDCHAR
STARTCHAR uni13E3
ENCODING 5091
SWIDTH 1000 0
DWIDTH 8 0
BBX 7 7 0 0
BITMAP
78
84
8E
80
80
84
78
ENDCHAR
STARTCHAR uni13E4
ENCODING 5092
SWIDTH 875 0
DWIDTH 7 0
BBX 6 7 0 0
BITMAP
E4
24
28
28
30
30
20
ENDCHAR
STARTCHAR uni13E5
ENCODING 5093
SWIDTH 750 0
DWIDTH 6 0
BBX 5 7 0 0
BITMAP
80
80
80
B8
D0
90
90
ENDCHAR
STARTCHAR uni13E6
ENCODING 5094
SWIDTH 750 0
DWIDTH 6 0
BBX 5 7 0 0
BITMAP
88
90
A0
C0
A0
90
88
ENDCHAR
STARTCHAR uni13E7
ENCODING 5095
SWIDTH 625 0
DWIDTH 5 0
BBX 4 7 0 0
BITMAP
10
10
10
70
90
90
60
ENDCHAR
STARTCHAR uni13E8
ENCODING 5096
SWIDTH 1000 0
DWIDTH 8 0
BBX 7 7 0 0
BITMAP
74
8A
80
80
80
8A
74
ENDCHAR
STARTCHAR uni13E9
ENCODING 5097
SWIDTH 1000 0
DWIDTH 8 0
BBX 7 7 0 0
BITMAP
70
88
80
80
9C
88
76
ENDCHAR
STARTCHAR uni13EA
ENCODING 5098
SWIDTH 1125 0
DWIDTH 9 0
BBX 8 7 0 0
BITMAP
22
55
55
53
21
A2
5C
ENDCHAR
STARTCHAR uni13EB
ENCODING 5099
SWIDTH 1000 0
DWIDTH 8 0
BBX 5 7 0 0
BITMAP
70
88
E8
A8
B8
88
70
ENDCHAR
STARTCHAR uni13EC
ENCODING 5100
SWIDTH 875 0
DWIDTH 7 0
BBX 6 7 0 0
BITMAP
48
A4
A4
C4
84
44
38
ENDCHAR
STARTCHAR uni13ED
ENCODING 5101
SWIDTH 750 0
DWIDTH 6 0
BBX 5 7 0 0
BITMAP
30
48
48
28
28
90
60
ENDCHAR
STARTCHAR uni13EE
ENCODING 5102
SWIDTH 750 0
DWIDTH 6 0
BBX 5 7 0 0
BITMAP
70
80
80
F0
88
88
70
ENDCHAR
STARTCHAR uni13EF
ENCODING 5103
SWIDTH 1000 0
DWIDTH 8 0
BBX 7 7 0 0
BITMAP
18
24
02
AA
92
92
6C
ENDCHAR
STARTCHAR uni13F0
ENCODING 5104
SWIDTH 750 0
DWIDTH 6 0
BBX 5 8 0 -1
BITMAP
30
48
48
70
48
48
F0
40
ENDCHAR
STARTCHAR uni13F1
ENCODING 5105
SWIDTH 1000 0
DWIDTH 8 0
BBX 7 7 0 0
BITMAP
1C
08
1C
22
26
AA
44
ENDCHAR
STARTCHAR uni13F2
ENCODING 5106
SWIDTH 750 0
DWIDTH 6 0
BBX 5 7 0 0
BITMAP
70
88
80
F0
88
88
88
ENDCHAR
STARTCHAR uni13F3
ENCODING 5107
SWIDTH 1000 0
DWIDTH 8 0
BBX 7 7 0 0
BITMAP
74
8A
80
80
9C
88
70
ENDCHAR
STARTCHAR uni13F4
ENCODING 5108
SWIDTH 750 0
DWIDTH 6 0
BBX 5 7 0 0
BITMAP
F0
88
88
F0
88
88
F0
ENDCHAR
STARTCHAR uni13F5
ENCODING 5109
SWIDTH 875 0
DWIDTH 7 0
BBX 6 7 0 0
BITMAP
18
20
40
80
9C
88
78
ENDCHAR
STARTCHAR uni1C90
ENCODING 7312
SWIDTH 750 0
DWIDTH 6 0
BBX 5 7 0 0
BITMAP
20
20
20
10
08
88
70
ENDCHAR
STARTCHAR uni1C91
ENCODING 7313
SWIDTH 750 0
DWIDTH 6 0
BBX 5 7 0 0
BITMAP
40
20
20
70
88
88
70
ENDCHAR
STARTCHAR uni1C92
ENCODING 7314
SWIDTH 750 0
DWIDTH 6 0
BBX 5 7 0 0
BITMAP
40
A0
20
70
88
88
70
ENDCHAR
STARTCHAR uni1C93
ENCODING 7315
SWIDTH 1000 0
DWIDTH 8 0
BBX 7 7 0 0
BITMAP
6C
92
92
92
8C
40
FC
ENDCHAR
STARTCHAR uni1C94
ENCODING 7316
SWIDTH 625 0
DWIDTH 5 0
BBX 4 7 0 0
BITMAP
60
90
10
10
90
90
60
ENDCHAR
STARTCHAR uni1C95
ENCODING 7317
SWIDTH 625 0
DWIDTH 5 0
BBX 4 7 0 0
BITMAP
60
90
20
10
90
90
60
ENDCHAR
STARTCHAR uni1C96
ENCODING 7318
SWIDTH 875 0
DWIDTH 7 0
BBX 6 7 0 0
BITMAP
40
A0
60
38
24
24
18
ENDCHAR
STARTCHAR uni1C97
ENCODING 7319
SWIDTH 1000 0
DWIDTH 8 0
BBX 7 7 0 0
BITMAP
6C
92
92
92
92
92
64
ENDCHAR
STARTCHAR uni1C98
ENCODING 7320
SWIDTH 750 0
DWIDTH 6 0
BBX 5 7 0 0
BITMAP
70
88
88
88
88
88
50
ENDCHAR
STARTCHAR uni1C99
ENCODING 7321
SWIDTH 625 0
DWIDTH 5 0
BBX 4 7 0 0
BITMAP
20
10
20
10
90
90
60
ENDCHAR
STARTCHAR uni1C9A
ENCODING 7322
SWIDTH 1000 0
DWIDTH 8 0
BBX 7 7 0 0
BITMAP
54
AA
AA
82
84
40
FC
ENDCHAR
STARTCHAR uni1C9B
ENCODING 7323
SWIDTH 625 0
DWIDTH 5 0
BBX 4 7 0 0
BITMAP
60
90
10
70
90
90
60
ENDCHAR
STARTCHAR uni1C9C
ENCODING 7324
SWIDTH 625 0
DWIDTH 5 0
BBX 4 7 0 0
BITMAP
70
80
80
E0
90
90
60
ENDCHAR
STARTCHAR uni1C9D
ENCODING 7325
SWIDTH 1000 0
DWIDTH 8 0
BBX 7 7 0 0
BITMAP
6C
92
92
92
82
82
44
ENDCHAR
STARTCHAR uni1C9E
ENCODING 7326
SWIDTH 625 0
DWIDTH 5 0
BBX 4 7 0 0
BITMAP
80
60
10
20
90
90
60
ENDCHAR
STARTCHAR uni1C9F
ENCODING 7327
SWIDTH 750 0
DWIDTH 6 0
BBX 4 7 0 0
BITMAP
10
B0
50
10
90
90
60
ENDCHAR
STARTCHAR uni1CA0
ENCODING 7328
SWIDTH 1000 0
DWIDTH 8 0
BBX 7 7 0 0
BITMAP
06
78
80
EC
92
82
44
ENDCHAR
STARTCHAR uni1CA1
ENCODING 7329
SWIDTH 625 0
DWIDTH 5 0
BBX 4 7 0 0
BITMAP
80
80
80
90
A0
90
60
ENDCHAR
STARTCHAR uni1CA2
ENCODING 7330
SWIDTH 1125 0
DWIDTH 9 0
BBX 8 7 0 0
BITMAP
0C
12
4C
92
89
41
3E
ENDCHAR
STARTCHAR uni1CA3
ENCODING 7331
SWIDTH 875 0
DWIDTH 7 0
BBX 6 7 0 0
BITMAP
A8
54
04
04
24
24
18
ENDCHAR
STARTCHAR uni1CA4
ENCODING 7332
SWIDTH 1125 0
DWIDTH 9 0
BBX 8 7 0 0
BITMAP
6E
91
91
92
61
09
06
ENDCHAR
STARTCHAR uni1CA5
ENCODING 7333
SWIDTH 625 0
DWIDTH 5 0
BBX 4 7 0 0
BITMAP
10
70
90
10
90
90
60
ENDCHAR
STARTCHAR uni1CA6
ENCODING 7334
SWIDTH 1000 0
DWIDTH 8 0
BBX 7 7 0 0
BITMAP
6C
92
92
82
84
40
FC
ENDCHAR
STARTCHAR uni1CA7
ENCODING 7335
SWIDTH 625 0
DWIDTH 5 0
BBX 4 7 0 0
BITMAP
90
90
70
10
90
90
60
ENDCHAR
STARTCHAR uni1CA8
ENCODING 7336
SWIDTH 750 0
DWIDTH 6 0
BBX 5 7 0 0
BITMAP
50
A8
08
38
48
48
30
ENDCHAR
STARTCHAR uni1CA9
ENCODING 7337
SWIDTH 625 0
DWIDTH 5 0
BBX 4 7 0 0
BITMAP
40
A0
80
E0
90
90
A0
ENDCHAR
STARTCHAR uni1CAA
ENCODING 7338
SWIDTH 875 0
DWIDTH 7 0
BBX 6 7 0 0
BITMAP
20
98
84
88
84
44
38
ENDCHAR
STARTCHAR uni1CAB
ENCODING 7339
SWIDTH 625 0
DWIDTH 5 0
BBX 4 7 0 0
BITMAP
20
10
10
70
90
90
60
ENDCHAR
STARTCHAR uni1CAC
ENCODING 7340
SWIDTH 750 0
DWIDTH 6 0
BBX 5 7 0 0
BITMAP
50
A8
80
F8
88
50
20
ENDCHAR
STARTCHAR uni1CAD
ENCODING 7341
SWIDTH 625 0
DWIDTH 5 0
BBX 4 7 0 0
BITMAP
20
70
A0
70
20
90
60
ENDCHAR
STARTCHAR uni1CAE
ENCODING 7342
SWIDTH 625 0
DWIDTH 5 0
BBX 4 7 0 0
BITMAP
80
A0
C0
E0
90
90
60
ENDCHAR
STARTCHAR uni1CAF
ENCODING 7343
SWIDTH 750 0
DWIDTH 6 0
BBX 5 7 0 0
BITMAP
A0
78
20
10
08
88
70
ENDCHAR
STARTCHAR uni1CB0
ENCODING 7344
SWIDTH 625 0
DWIDTH 5 0
BBX 4 8 0 0
BITMAP
80
60
10
20
10
20
90
60
ENDCHAR
STARTCHAR uni1CB1
ENCODING 7345
SWIDTH 1125 0
DWIDTH 9 0
BBX 7 7 0 0
BITMAP
4C
A2
A4
C2
84
42
3C
ENDCHAR
STARTCHAR uni1CB2
ENCODING 7346
SWIDTH 1000 0
DWIDTH 8 0
BBX 7 7 0 0
BITMAP
38
44
44
44
28
10
EE
ENDCHAR
STARTCHAR uni1CB3
ENCODING 7347
SWIDTH 625 0
DWIDTH 5 0
BBX 4 7 0 0
BITMAP
F0
10
10
20
90
90
60
ENDCHAR
STARTCHAR uni1CB4
ENCODING 7348
SWIDTH 625 0
DWIDTH 5 0
BBX 4 7 0 0
BITMAP
60
80
60
10
20
90
60
ENDCHAR
STARTCHAR uni1CB5
ENCODING 7349
SWIDTH 625 0
DWIDTH 5 0
BBX 4 7 0 0
BITMAP
40
A0
70
20
70
A0
40
ENDCHAR
STARTCHAR uni1CB6
ENCODING 7350
SWIDTH 1000 0
DWIDTH 8 0
BBX 7 7 0 0
BITMAP
10
7C
92
92
92
7C
10
ENDCHAR
STARTCHAR uni1CB7
ENCODING 7351
SWIDTH 625 0
DWIDTH 5 0
BBX 4 7 0 0
BITMAP
60
90
10
60
80
90
60
ENDCHAR
STARTCHAR uni1CB8
ENCODING 7352
SWIDTH 625 0
DWIDTH 5 0
BBX 4 6 0 0
BITMAP
90
90
E0
80
90
60
ENDCHAR
ENDFONT
